<svg width="368" height="368" viewBox="0 0 368 368" fill="none" xmlns="http://www.w3.org/2000/svg">
<g filter="url(#filter0_i_63_16)">
<g clip-path="url(#clip0_63_16)">
<rect width="368" height="368" rx="35" fill="url(#paint0_linear_63_16)"/>
<rect x="-30" y="-35" width="366" height="366" rx="47" fill="white"/>
<path d="M50.4205 26.1989C49.483 26.1989 48.6473 26.0379 47.9134 25.7159C47.1842 25.3939 46.6042 24.9465 46.1733 24.3736C45.7472 23.7959 45.5152 23.1259 45.4773 22.3636H47.267C47.3049 22.8324 47.4659 23.2372 47.75 23.5781C48.0341 23.9143 48.4058 24.1747 48.8651 24.3594C49.3243 24.544 49.8333 24.6364 50.392 24.6364C51.017 24.6364 51.571 24.5275 52.054 24.3097C52.5369 24.0919 52.9157 23.7888 53.1903 23.4006C53.465 23.0123 53.6023 22.5625 53.6023 22.0511C53.6023 21.5161 53.4697 21.045 53.2045 20.6378C52.9394 20.2259 52.5511 19.9039 52.0398 19.6719C51.5284 19.4399 50.9034 19.3239 50.1648 19.3239H49V17.7614H50.1648C50.7424 17.7614 51.2491 17.6572 51.6847 17.4489C52.125 17.2405 52.4683 16.947 52.7145 16.5682C52.9654 16.1894 53.0909 15.7443 53.0909 15.233C53.0909 14.7405 52.982 14.312 52.7642 13.9474C52.5464 13.5829 52.2386 13.2988 51.8409 13.0952C51.4479 12.8916 50.9839 12.7898 50.4489 12.7898C49.947 12.7898 49.4735 12.8821 49.0284 13.0668C48.5881 13.2467 48.2282 13.5095 47.9489 13.8551C47.6695 14.196 47.518 14.608 47.4943 15.0909H45.7898C45.8182 14.3286 46.0478 13.661 46.4787 13.0881C46.9096 12.5104 47.473 12.0606 48.169 11.7386C48.8698 11.4167 49.6392 11.2557 50.4773 11.2557C51.3769 11.2557 52.1487 11.438 52.7926 11.8026C53.4366 12.1624 53.9313 12.6383 54.277 13.2301C54.6226 13.822 54.7955 14.4612 54.7955 15.1477C54.7955 15.9669 54.58 16.6652 54.1491 17.2429C53.723 17.8205 53.143 18.2206 52.4091 18.4432V18.5568C53.3277 18.7083 54.045 19.099 54.5611 19.7287C55.0772 20.3537 55.3352 21.1278 55.3352 22.0511C55.3352 22.8419 55.1198 23.5521 54.6889 24.1818C54.2628 24.8068 53.6804 25.2992 52.9418 25.6591C52.2031 26.0189 51.3627 26.1989 50.4205 26.1989ZM63.3537 11.4545V26H61.5923V13.3011H61.5071L57.956 15.6591V13.8693L61.5923 11.4545H63.3537Z" fill="#CFCFCF"/>
<path d="M159.619 11.4545V26H157.858V13.3011H157.773L154.222 15.6591V13.8693L157.858 11.4545H159.619Z" fill="#7B7B7B"/>
<path d="M250.506 26V24.7216L255.307 19.4659C255.87 18.8504 256.334 18.3153 256.699 17.8608C257.063 17.4015 257.333 16.9706 257.509 16.5682C257.688 16.161 257.778 15.7348 257.778 15.2898C257.778 14.7784 257.655 14.3357 257.409 13.9616C257.168 13.5876 256.836 13.2988 256.415 13.0952C255.993 12.8916 255.52 12.7898 254.994 12.7898C254.436 12.7898 253.948 12.9058 253.531 13.1378C253.119 13.3651 252.8 13.6847 252.572 14.0966C252.35 14.5085 252.239 14.9915 252.239 15.5455H250.562C250.562 14.6932 250.759 13.9451 251.152 13.3011C251.545 12.6572 252.08 12.1553 252.757 11.7955C253.439 11.4356 254.204 11.2557 255.051 11.2557C255.903 11.2557 256.659 11.4356 257.317 11.7955C257.975 12.1553 258.491 12.6406 258.865 13.2514C259.239 13.8622 259.426 14.5417 259.426 15.2898C259.426 15.8248 259.329 16.348 259.135 16.8594C258.946 17.366 258.614 17.9318 258.141 18.5568C257.672 19.1771 257.021 19.9347 256.188 20.8295L252.92 24.3239V24.4375H259.682V26H250.506Z" fill="#7B7B7B"/>
<path d="M49.9602 73L56.4659 60.1307V60.017H48.9659V58.4545H58.2841V60.1023L51.8068 73H49.9602Z" fill="#7B7B7B"/>
<path d="M152.165 73.1989C151.189 73.1989 150.328 73.026 149.58 72.6804C148.836 72.33 148.256 71.8494 147.839 71.2386C147.423 70.6231 147.217 69.9223 147.222 69.1364C147.217 68.5208 147.338 67.9527 147.584 67.4318C147.83 66.9062 148.166 66.4683 148.592 66.1179C149.023 65.7628 149.504 65.5379 150.034 65.4432V65.358C149.338 65.178 148.784 64.7874 148.372 64.1861C147.96 63.58 147.757 62.8911 147.761 62.1193C147.757 61.3807 147.944 60.7202 148.322 60.1378C148.701 59.5554 149.222 59.0961 149.885 58.7599C150.553 58.4238 151.313 58.2557 152.165 58.2557C153.008 58.2557 153.76 58.4238 154.423 58.7599C155.086 59.0961 155.607 59.5554 155.986 60.1378C156.369 60.7202 156.563 61.3807 156.568 62.1193C156.563 62.8911 156.353 63.58 155.936 64.1861C155.524 64.7874 154.977 65.178 154.295 65.358V65.4432C154.821 65.5379 155.295 65.7628 155.716 66.1179C156.137 66.4683 156.473 66.9062 156.724 67.4318C156.975 67.9527 157.103 68.5208 157.108 69.1364C157.103 69.9223 156.89 70.6231 156.469 71.2386C156.052 71.8494 155.472 72.33 154.729 72.6804C153.99 73.026 153.135 73.1989 152.165 73.1989ZM152.165 71.6364C152.823 71.6364 153.391 71.5298 153.869 71.3168C154.348 71.1037 154.717 70.803 154.977 70.4148C155.238 70.0265 155.37 69.572 155.375 69.0511C155.37 68.5019 155.228 68.0166 154.949 67.5952C154.67 67.1738 154.288 66.8423 153.805 66.6009C153.327 66.3594 152.78 66.2386 152.165 66.2386C151.545 66.2386 150.991 66.3594 150.503 66.6009C150.02 66.8423 149.639 67.1738 149.359 67.5952C149.085 68.0166 148.95 68.5019 148.955 69.0511C148.95 69.572 149.075 70.0265 149.331 70.4148C149.591 70.803 149.963 71.1037 150.446 71.3168C150.929 71.5298 151.502 71.6364 152.165 71.6364ZM152.165 64.733C152.686 64.733 153.147 64.6288 153.55 64.4205C153.957 64.2121 154.277 63.9209 154.509 63.5469C154.741 63.1728 154.859 62.7348 154.864 62.233C154.859 61.7405 154.743 61.312 154.516 60.9474C154.288 60.5781 153.973 60.294 153.571 60.0952C153.169 59.8916 152.7 59.7898 152.165 59.7898C151.62 59.7898 151.144 59.8916 150.737 60.0952C150.33 60.294 150.015 60.5781 149.793 60.9474C149.57 61.312 149.461 61.7405 149.466 62.233C149.461 62.7348 149.572 63.1728 149.8 63.5469C150.032 63.9209 150.351 64.2121 150.759 64.4205C151.166 64.6288 151.634 64.733 152.165 64.733Z" fill="#7B7B7B"/>
<path d="M251.136 58.2557C251.733 58.2604 252.33 58.3741 252.926 58.5966C253.523 58.8191 254.067 59.1884 254.56 59.7045C255.052 60.2159 255.447 60.9143 255.746 61.7997C256.044 62.6851 256.193 63.7955 256.193 65.1307C256.193 66.4233 256.07 67.5715 255.824 68.5753C255.582 69.5743 255.232 70.4171 254.773 71.1037C254.318 71.7902 253.764 72.3111 253.111 72.6662C252.462 73.0213 251.728 73.1989 250.909 73.1989C250.095 73.1989 249.368 73.0379 248.729 72.7159C248.094 72.3892 247.573 71.937 247.166 71.3594C246.764 70.777 246.506 70.1023 246.392 69.3352H248.125C248.281 70.0028 248.591 70.5545 249.055 70.9901C249.524 71.4209 250.142 71.6364 250.909 71.6364C252.031 71.6364 252.917 71.1463 253.565 70.1662C254.219 69.1861 254.545 67.8011 254.545 66.0114H254.432C254.167 66.4091 253.852 66.7524 253.487 67.0412C253.123 67.33 252.718 67.5526 252.273 67.7088C251.828 67.8651 251.354 67.9432 250.852 67.9432C250.019 67.9432 249.254 67.7372 248.558 67.3253C247.867 66.9086 247.313 66.3381 246.896 65.6136C246.484 64.8845 246.278 64.0511 246.278 63.1136C246.278 62.2235 246.477 61.4091 246.875 60.6705C247.277 59.9271 247.841 59.3352 248.565 58.8949C249.295 58.4545 250.152 58.2415 251.136 58.2557ZM251.136 59.8182C250.54 59.8182 250.002 59.9673 249.524 60.2656C249.051 60.5592 248.674 60.9569 248.395 61.4588C248.12 61.956 247.983 62.5076 247.983 63.1136C247.983 63.7197 248.116 64.2713 248.381 64.7685C248.651 65.2609 249.018 65.6539 249.482 65.9474C249.95 66.2363 250.483 66.3807 251.08 66.3807C251.529 66.3807 251.948 66.2931 252.337 66.1179C252.725 65.938 253.063 65.6941 253.352 65.3864C253.646 65.0739 253.875 64.7211 254.041 64.3281C254.207 63.9304 254.29 63.5161 254.29 63.0852C254.29 62.517 254.152 61.9844 253.878 61.4872C253.608 60.9901 253.234 60.5876 252.756 60.2798C252.282 59.9721 251.742 59.8182 251.136 59.8182Z" fill="#7B7B7B"/>
<path d="M48.1193 105.455V120H46.358V107.301H46.2727L42.7216 109.659V107.869L46.358 105.455H48.1193ZM51.9616 117.017V115.568L58.3537 105.455H59.4048V107.699H58.6946L53.8651 115.341V115.455H62.473V117.017H51.9616ZM58.8082 120V116.577V115.902V105.455H60.4844V120H58.8082Z" fill="#7B7B7B"/>
<path d="M149.119 105.455V120H147.358V107.301H147.273L143.722 109.659V107.869L147.358 105.455H149.119ZM157.848 120.199C157.015 120.199 156.264 120.033 155.597 119.702C154.929 119.37 154.394 118.916 153.991 118.338C153.589 117.76 153.369 117.102 153.331 116.364H155.036C155.102 117.022 155.4 117.566 155.93 117.997C156.465 118.423 157.105 118.636 157.848 118.636C158.445 118.636 158.975 118.497 159.439 118.217C159.908 117.938 160.275 117.554 160.54 117.067C160.81 116.574 160.945 116.018 160.945 115.398C160.945 114.763 160.805 114.197 160.526 113.7C160.251 113.198 159.872 112.803 159.389 112.514C158.906 112.225 158.355 112.079 157.734 112.074C157.289 112.069 156.832 112.138 156.364 112.28C155.895 112.417 155.509 112.595 155.206 112.812L153.558 112.614L154.439 105.455H161.996V107.017H155.916L155.405 111.307H155.49C155.788 111.07 156.162 110.874 156.612 110.717C157.062 110.561 157.531 110.483 158.018 110.483C158.909 110.483 159.702 110.696 160.398 111.122C161.098 111.544 161.648 112.121 162.045 112.855C162.448 113.589 162.649 114.427 162.649 115.369C162.649 116.297 162.441 117.126 162.024 117.855C161.612 118.58 161.044 119.152 160.32 119.574C159.595 119.991 158.771 120.199 157.848 120.199Z" fill="#7B7B7B"/>
<path d="M249.119 105.455V120H247.358V107.301H247.273L243.722 109.659V107.869L247.358 105.455H249.119ZM258.132 120.199C257.536 120.189 256.939 120.076 256.342 119.858C255.746 119.64 255.201 119.273 254.709 118.757C254.216 118.236 253.821 117.533 253.523 116.648C253.224 115.758 253.075 114.64 253.075 113.295C253.075 112.008 253.196 110.866 253.438 109.872C253.679 108.873 254.029 108.033 254.489 107.351C254.948 106.664 255.502 106.143 256.151 105.788C256.804 105.433 257.54 105.256 258.359 105.256C259.174 105.256 259.898 105.419 260.533 105.746C261.172 106.068 261.693 106.518 262.095 107.095C262.498 107.673 262.758 108.338 262.876 109.091H261.143C260.982 108.437 260.67 107.895 260.206 107.464C259.742 107.034 259.126 106.818 258.359 106.818C257.232 106.818 256.345 107.308 255.696 108.288C255.052 109.268 254.728 110.644 254.723 112.415H254.837C255.102 112.012 255.417 111.669 255.781 111.385C256.151 111.096 256.558 110.874 257.003 110.717C257.448 110.561 257.919 110.483 258.416 110.483C259.25 110.483 260.012 110.691 260.703 111.108C261.394 111.52 261.948 112.09 262.365 112.82C262.782 113.544 262.99 114.375 262.99 115.312C262.99 116.212 262.789 117.036 262.386 117.784C261.984 118.527 261.418 119.119 260.689 119.56C259.964 119.995 259.112 120.208 258.132 120.199ZM258.132 118.636C258.729 118.636 259.264 118.487 259.737 118.189C260.215 117.891 260.592 117.491 260.866 116.989C261.146 116.487 261.286 115.928 261.286 115.312C261.286 114.711 261.151 114.164 260.881 113.672C260.616 113.175 260.249 112.779 259.78 112.486C259.316 112.192 258.786 112.045 258.189 112.045C257.739 112.045 257.32 112.135 256.932 112.315C256.544 112.491 256.203 112.732 255.909 113.04C255.62 113.348 255.393 113.7 255.227 114.098C255.062 114.491 254.979 114.905 254.979 115.341C254.979 115.919 255.114 116.458 255.384 116.96C255.658 117.462 256.032 117.867 256.506 118.175C256.984 118.482 257.526 118.636 258.132 118.636Z" fill="#7B7B7B"/>
<rect x="30" y="148" width="46" height="46" rx="7" fill="#5EA500"/>
<path d="M43.5057 178V176.722L48.3068 171.466C48.8703 170.85 49.3343 170.315 49.6989 169.861C50.0634 169.402 50.3333 168.971 50.5085 168.568C50.6884 168.161 50.7784 167.735 50.7784 167.29C50.7784 166.778 50.6553 166.336 50.4091 165.962C50.1676 165.588 49.8362 165.299 49.4148 165.095C48.9934 164.892 48.5199 164.79 47.9943 164.79C47.4356 164.79 46.9479 164.906 46.5312 165.138C46.1193 165.365 45.7997 165.685 45.5724 166.097C45.3499 166.509 45.2386 166.991 45.2386 167.545H43.5625C43.5625 166.693 43.759 165.945 44.152 165.301C44.545 164.657 45.08 164.155 45.7571 163.795C46.4389 163.436 47.2036 163.256 48.0511 163.256C48.9034 163.256 49.6586 163.436 50.3168 163.795C50.9749 164.155 51.491 164.641 51.8651 165.251C52.2391 165.862 52.4261 166.542 52.4261 167.29C52.4261 167.825 52.3291 168.348 52.1349 168.859C51.9455 169.366 51.6141 169.932 51.1406 170.557C50.6719 171.177 50.0208 171.935 49.1875 172.83L45.9205 176.324V176.438H52.6818V178H43.5057ZM60.7287 163.455V178H58.9673V165.301H58.8821L55.331 167.659V165.869L58.9673 163.455H60.7287Z" fill="white"/>
<path d="M141.506 178V176.722L146.307 171.466C146.87 170.85 147.334 170.315 147.699 169.861C148.063 169.402 148.333 168.971 148.509 168.568C148.688 168.161 148.778 167.735 148.778 167.29C148.778 166.778 148.655 166.336 148.409 165.962C148.168 165.588 147.836 165.299 147.415 165.095C146.993 164.892 146.52 164.79 145.994 164.79C145.436 164.79 144.948 164.906 144.531 165.138C144.119 165.365 143.8 165.685 143.572 166.097C143.35 166.509 143.239 166.991 143.239 167.545H141.562C141.562 166.693 141.759 165.945 142.152 165.301C142.545 164.657 143.08 164.155 143.757 163.795C144.439 163.436 145.204 163.256 146.051 163.256C146.903 163.256 147.659 163.436 148.317 163.795C148.975 164.155 149.491 164.641 149.865 165.251C150.239 165.862 150.426 166.542 150.426 167.29C150.426 167.825 150.329 168.348 150.135 168.859C149.946 169.366 149.614 169.932 149.141 170.557C148.672 171.177 148.021 171.935 147.188 172.83L143.92 176.324V176.438H150.682V178H141.506ZM153.615 178V176.722L158.416 171.466C158.98 170.85 159.444 170.315 159.808 169.861C160.173 169.402 160.443 168.971 160.618 168.568C160.798 168.161 160.888 167.735 160.888 167.29C160.888 166.778 160.765 166.336 160.518 165.962C160.277 165.588 159.946 165.299 159.524 165.095C159.103 164.892 158.629 164.79 158.104 164.79C157.545 164.79 157.057 164.906 156.641 165.138C156.229 165.365 155.909 165.685 155.682 166.097C155.459 166.509 155.348 166.991 155.348 167.545H153.672C153.672 166.693 153.868 165.945 154.261 165.301C154.654 164.657 155.189 164.155 155.866 163.795C156.548 163.436 157.313 163.256 158.161 163.256C159.013 163.256 159.768 163.436 160.426 163.795C161.084 164.155 161.6 164.641 161.974 165.251C162.348 165.862 162.536 166.542 162.536 167.29C162.536 167.825 162.438 168.348 162.244 168.859C162.055 169.366 161.723 169.932 161.25 170.557C160.781 171.177 160.13 171.935 159.297 172.83L156.03 176.324V176.438H162.791V178H153.615Z" fill="black"/>
<path d="M241.506 178V176.722L246.307 171.466C246.87 170.85 247.334 170.315 247.699 169.861C248.063 169.402 248.333 168.971 248.509 168.568C248.688 168.161 248.778 167.735 248.778 167.29C248.778 166.778 248.655 166.336 248.409 165.962C248.168 165.588 247.836 165.299 247.415 165.095C246.993 164.892 246.52 164.79 245.994 164.79C245.436 164.79 244.948 164.906 244.531 165.138C244.119 165.365 243.8 165.685 243.572 166.097C243.35 166.509 243.239 166.991 243.239 167.545H241.562C241.562 166.693 241.759 165.945 242.152 165.301C242.545 164.657 243.08 164.155 243.757 163.795C244.439 163.436 245.204 163.256 246.051 163.256C246.903 163.256 247.659 163.436 248.317 163.795C248.975 164.155 249.491 164.641 249.865 165.251C250.239 165.862 250.426 166.542 250.426 167.29C250.426 167.825 250.329 168.348 250.135 168.859C249.946 169.366 249.614 169.932 249.141 170.557C248.672 171.177 248.021 171.935 247.188 172.83L243.92 176.324V176.438H250.682V178H241.506ZM258.53 178.199C257.592 178.199 256.757 178.038 256.023 177.716C255.294 177.394 254.714 176.946 254.283 176.374C253.857 175.796 253.625 175.126 253.587 174.364H255.376C255.414 174.832 255.575 175.237 255.859 175.578C256.143 175.914 256.515 176.175 256.974 176.359C257.434 176.544 257.943 176.636 258.501 176.636C259.126 176.636 259.68 176.527 260.163 176.31C260.646 176.092 261.025 175.789 261.3 175.401C261.574 175.012 261.712 174.562 261.712 174.051C261.712 173.516 261.579 173.045 261.314 172.638C261.049 172.226 260.661 171.904 260.149 171.672C259.638 171.44 259.013 171.324 258.274 171.324H257.109V169.761H258.274C258.852 169.761 259.358 169.657 259.794 169.449C260.234 169.241 260.578 168.947 260.824 168.568C261.075 168.189 261.2 167.744 261.2 167.233C261.2 166.741 261.091 166.312 260.874 165.947C260.656 165.583 260.348 165.299 259.95 165.095C259.557 164.892 259.093 164.79 258.558 164.79C258.056 164.79 257.583 164.882 257.138 165.067C256.697 165.247 256.338 165.509 256.058 165.855C255.779 166.196 255.627 166.608 255.604 167.091H253.899C253.928 166.329 254.157 165.661 254.588 165.088C255.019 164.51 255.582 164.061 256.278 163.739C256.979 163.417 257.749 163.256 258.587 163.256C259.486 163.256 260.258 163.438 260.902 163.803C261.546 164.162 262.041 164.638 262.386 165.23C262.732 165.822 262.905 166.461 262.905 167.148C262.905 167.967 262.689 168.665 262.259 169.243C261.832 169.821 261.252 170.221 260.518 170.443V170.557C261.437 170.708 262.154 171.099 262.67 171.729C263.187 172.354 263.445 173.128 263.445 174.051C263.445 174.842 263.229 175.552 262.798 176.182C262.372 176.807 261.79 177.299 261.051 177.659C260.313 178.019 259.472 178.199 258.53 178.199Z" fill="black"/>
<path d="M41.5057 236V234.722L46.3068 229.466C46.8703 228.85 47.3343 228.315 47.6989 227.861C48.0634 227.402 48.3333 226.971 48.5085 226.568C48.6884 226.161 48.7784 225.735 48.7784 225.29C48.7784 224.778 48.6553 224.336 48.4091 223.962C48.1676 223.588 47.8362 223.299 47.4148 223.095C46.9934 222.892 46.5199 222.79 45.9943 222.79C45.4356 222.79 44.9479 222.906 44.5312 223.138C44.1193 223.365 43.7997 223.685 43.5724 224.097C43.3499 224.509 43.2386 224.991 43.2386 225.545H41.5625C41.5625 224.693 41.759 223.945 42.152 223.301C42.545 222.657 43.08 222.155 43.7571 221.795C44.4389 221.436 45.2036 221.256 46.0511 221.256C46.9034 221.256 47.6586 221.436 48.3168 221.795C48.9749 222.155 49.491 222.641 49.8651 223.251C50.2391 223.862 50.4261 224.542 50.4261 225.29C50.4261 225.825 50.3291 226.348 50.1349 226.859C49.9455 227.366 49.6141 227.932 49.1406 228.557C48.6719 229.177 48.0208 229.935 47.1875 230.83L43.9205 234.324V234.438H50.6818V236H41.5057ZM58.2741 236.199C57.2988 236.199 56.437 236.026 55.6889 235.68C54.9455 235.33 54.3655 234.849 53.9489 234.239C53.5322 233.623 53.3262 232.922 53.331 232.136C53.3262 231.521 53.447 230.953 53.6932 230.432C53.9394 229.906 54.2756 229.468 54.7017 229.118C55.1326 228.763 55.6132 228.538 56.1435 228.443V228.358C55.4474 228.178 54.8935 227.787 54.4815 227.186C54.0696 226.58 53.866 225.891 53.8707 225.119C53.866 224.381 54.053 223.72 54.4318 223.138C54.8106 222.555 55.3314 222.096 55.9943 221.76C56.6619 221.424 57.4219 221.256 58.2741 221.256C59.117 221.256 59.8698 221.424 60.5327 221.76C61.1955 222.096 61.7164 222.555 62.0952 223.138C62.4787 223.72 62.6728 224.381 62.6776 225.119C62.6728 225.891 62.4621 226.58 62.0455 227.186C61.6335 227.787 61.0866 228.178 60.4048 228.358V228.443C60.9304 228.538 61.4039 228.763 61.8253 229.118C62.2467 229.468 62.5829 229.906 62.8338 230.432C63.0848 230.953 63.2126 231.521 63.2173 232.136C63.2126 232.922 62.9995 233.623 62.5781 234.239C62.1615 234.849 61.5814 235.33 60.8381 235.68C60.0994 236.026 59.2448 236.199 58.2741 236.199ZM58.2741 234.636C58.9323 234.636 59.5005 234.53 59.9787 234.317C60.4569 234.104 60.8262 233.803 61.0866 233.415C61.3471 233.027 61.4796 232.572 61.4844 232.051C61.4796 231.502 61.3376 231.017 61.0582 230.595C60.7789 230.174 60.3977 229.842 59.9148 229.601C59.4366 229.359 58.8897 229.239 58.2741 229.239C57.6539 229.239 57.0999 229.359 56.6122 229.601C56.1293 229.842 55.7481 230.174 55.4688 230.595C55.1941 231.017 55.0592 231.502 55.0639 232.051C55.0592 232.572 55.1847 233.027 55.4403 233.415C55.7008 233.803 56.0724 234.104 56.5554 234.317C57.0384 234.53 57.6113 234.636 58.2741 234.636ZM58.2741 227.733C58.795 227.733 59.2566 227.629 59.6591 227.42C60.0663 227.212 60.3859 226.921 60.6179 226.547C60.8499 226.173 60.9683 225.735 60.973 225.233C60.9683 224.741 60.8523 224.312 60.625 223.947C60.3977 223.578 60.0829 223.294 59.6804 223.095C59.2779 222.892 58.8092 222.79 58.2741 222.79C57.7296 222.79 57.2538 222.892 56.8466 223.095C56.4394 223.294 56.1245 223.578 55.902 223.947C55.6795 224.312 55.5705 224.741 55.5753 225.233C55.5705 225.735 55.6818 226.173 55.9091 226.547C56.1411 226.921 56.4607 227.212 56.8679 227.42C57.2751 227.629 57.7438 227.733 58.2741 227.733Z" fill="black"/>
<path d="M141.506 236V234.722L146.307 229.466C146.87 228.85 147.334 228.315 147.699 227.861C148.063 227.402 148.333 226.971 148.509 226.568C148.688 226.161 148.778 225.735 148.778 225.29C148.778 224.778 148.655 224.336 148.409 223.962C148.168 223.588 147.836 223.299 147.415 223.095C146.993 222.892 146.52 222.79 145.994 222.79C145.436 222.79 144.948 222.906 144.531 223.138C144.119 223.365 143.8 223.685 143.572 224.097C143.35 224.509 143.239 224.991 143.239 225.545H141.562C141.562 224.693 141.759 223.945 142.152 223.301C142.545 222.657 143.08 222.155 143.757 221.795C144.439 221.436 145.204 221.256 146.051 221.256C146.903 221.256 147.659 221.436 148.317 221.795C148.975 222.155 149.491 222.641 149.865 223.251C150.239 223.862 150.426 224.542 150.426 225.29C150.426 225.825 150.329 226.348 150.135 226.859C149.946 227.366 149.614 227.932 149.141 228.557C148.672 229.177 148.021 229.935 147.188 230.83L143.92 234.324V234.438H150.682V236H141.506ZM158.246 221.256C158.842 221.26 159.439 221.374 160.036 221.597C160.632 221.819 161.177 222.188 161.669 222.705C162.161 223.216 162.557 223.914 162.855 224.8C163.153 225.685 163.303 226.795 163.303 228.131C163.303 229.423 163.179 230.571 162.933 231.575C162.692 232.574 162.341 233.417 161.882 234.104C161.428 234.79 160.874 235.311 160.22 235.666C159.571 236.021 158.838 236.199 158.018 236.199C157.204 236.199 156.477 236.038 155.838 235.716C155.204 235.389 154.683 234.937 154.276 234.359C153.873 233.777 153.615 233.102 153.501 232.335H155.234C155.391 233.003 155.701 233.554 156.165 233.99C156.634 234.421 157.251 234.636 158.018 234.636C159.141 234.636 160.026 234.146 160.675 233.166C161.328 232.186 161.655 230.801 161.655 229.011H161.541C161.276 229.409 160.961 229.752 160.597 230.041C160.232 230.33 159.827 230.553 159.382 230.709C158.937 230.865 158.464 230.943 157.962 230.943C157.128 230.943 156.364 230.737 155.668 230.325C154.976 229.909 154.422 229.338 154.006 228.614C153.594 227.884 153.388 227.051 153.388 226.114C153.388 225.223 153.587 224.409 153.984 223.67C154.387 222.927 154.95 222.335 155.675 221.895C156.404 221.455 157.261 221.241 158.246 221.256ZM158.246 222.818C157.649 222.818 157.112 222.967 156.634 223.266C156.16 223.559 155.784 223.957 155.504 224.459C155.23 224.956 155.092 225.508 155.092 226.114C155.092 226.72 155.225 227.271 155.49 227.768C155.76 228.261 156.127 228.654 156.591 228.947C157.06 229.236 157.592 229.381 158.189 229.381C158.639 229.381 159.058 229.293 159.446 229.118C159.834 228.938 160.173 228.694 160.462 228.386C160.755 228.074 160.985 227.721 161.151 227.328C161.316 226.93 161.399 226.516 161.399 226.085C161.399 225.517 161.262 224.984 160.987 224.487C160.717 223.99 160.343 223.588 159.865 223.28C159.392 222.972 158.852 222.818 158.246 222.818Z" fill="black"/>
<path d="M246.42 236.199C245.483 236.199 244.647 236.038 243.913 235.716C243.184 235.394 242.604 234.946 242.173 234.374C241.747 233.796 241.515 233.126 241.477 232.364H243.267C243.305 232.832 243.466 233.237 243.75 233.578C244.034 233.914 244.406 234.175 244.865 234.359C245.324 234.544 245.833 234.636 246.392 234.636C247.017 234.636 247.571 234.527 248.054 234.31C248.537 234.092 248.916 233.789 249.19 233.401C249.465 233.012 249.602 232.562 249.602 232.051C249.602 231.516 249.47 231.045 249.205 230.638C248.939 230.226 248.551 229.904 248.04 229.672C247.528 229.44 246.903 229.324 246.165 229.324H245V227.761H246.165C246.742 227.761 247.249 227.657 247.685 227.449C248.125 227.241 248.468 226.947 248.714 226.568C248.965 226.189 249.091 225.744 249.091 225.233C249.091 224.741 248.982 224.312 248.764 223.947C248.546 223.583 248.239 223.299 247.841 223.095C247.448 222.892 246.984 222.79 246.449 222.79C245.947 222.79 245.473 222.882 245.028 223.067C244.588 223.247 244.228 223.509 243.949 223.855C243.67 224.196 243.518 224.608 243.494 225.091H241.79C241.818 224.329 242.048 223.661 242.479 223.088C242.91 222.51 243.473 222.061 244.169 221.739C244.87 221.417 245.639 221.256 246.477 221.256C247.377 221.256 248.149 221.438 248.793 221.803C249.437 222.162 249.931 222.638 250.277 223.23C250.623 223.822 250.795 224.461 250.795 225.148C250.795 225.967 250.58 226.665 250.149 227.243C249.723 227.821 249.143 228.221 248.409 228.443V228.557C249.328 228.708 250.045 229.099 250.561 229.729C251.077 230.354 251.335 231.128 251.335 232.051C251.335 232.842 251.12 233.552 250.689 234.182C250.263 234.807 249.68 235.299 248.942 235.659C248.203 236.019 247.363 236.199 246.42 236.199ZM258.984 236.199C257.914 236.199 257.003 235.908 256.25 235.325C255.497 234.738 254.922 233.888 254.524 232.776C254.126 231.658 253.928 230.309 253.928 228.727C253.928 227.155 254.126 225.813 254.524 224.7C254.927 223.583 255.504 222.731 256.257 222.143C257.015 221.552 257.924 221.256 258.984 221.256C260.045 221.256 260.952 221.552 261.705 222.143C262.462 222.731 263.04 223.583 263.438 224.7C263.84 225.813 264.041 227.155 264.041 228.727C264.041 230.309 263.842 231.658 263.445 232.776C263.047 233.888 262.472 234.738 261.719 235.325C260.966 235.908 260.054 236.199 258.984 236.199ZM258.984 234.636C260.045 234.636 260.869 234.125 261.456 233.102C262.043 232.08 262.337 230.621 262.337 228.727C262.337 227.468 262.202 226.395 261.932 225.51C261.667 224.625 261.283 223.95 260.781 223.486C260.284 223.022 259.685 222.79 258.984 222.79C257.933 222.79 257.112 223.308 256.52 224.345C255.928 225.377 255.632 226.838 255.632 228.727C255.632 229.987 255.765 231.057 256.03 231.938C256.295 232.818 256.676 233.488 257.173 233.947C257.675 234.407 258.279 234.636 258.984 234.636Z" fill="black"/>
<path d="M47.6648 280.017V278.568L54.0568 268.455H55.108V270.699H54.3977L49.5682 278.341V278.455H58.1761V280.017H47.6648ZM54.5114 283V279.577V278.902V268.455H56.1875V283H54.5114Z" fill="#7B7B7B"/>
<path d="M152.551 283.199C151.718 283.199 150.967 283.033 150.3 282.702C149.632 282.37 149.097 281.916 148.695 281.338C148.292 280.76 148.072 280.102 148.034 279.364H149.739C149.805 280.022 150.103 280.566 150.634 280.997C151.169 281.423 151.808 281.636 152.551 281.636C153.148 281.636 153.678 281.497 154.142 281.217C154.611 280.938 154.978 280.554 155.243 280.067C155.513 279.574 155.648 279.018 155.648 278.398C155.648 277.763 155.508 277.197 155.229 276.7C154.954 276.198 154.575 275.803 154.092 275.514C153.609 275.225 153.058 275.079 152.438 275.074C151.992 275.069 151.536 275.138 151.067 275.28C150.598 275.417 150.212 275.595 149.909 275.812L148.261 275.614L149.142 268.455H156.699V270.017H150.619L150.108 274.307H150.193C150.491 274.07 150.866 273.874 151.315 273.717C151.765 273.561 152.234 273.483 152.722 273.483C153.612 273.483 154.405 273.696 155.101 274.122C155.802 274.544 156.351 275.121 156.749 275.855C157.151 276.589 157.352 277.427 157.352 278.369C157.352 279.297 157.144 280.126 156.727 280.855C156.315 281.58 155.747 282.152 155.023 282.574C154.298 282.991 153.474 283.199 152.551 283.199Z" fill="#7B7B7B"/>
<path d="M252.835 283.199C252.239 283.189 251.642 283.076 251.045 282.858C250.449 282.64 249.904 282.273 249.412 281.757C248.92 281.236 248.524 280.533 248.226 279.648C247.928 278.758 247.778 277.64 247.778 276.295C247.778 275.008 247.899 273.866 248.141 272.872C248.382 271.873 248.732 271.033 249.192 270.351C249.651 269.664 250.205 269.143 250.854 268.788C251.507 268.433 252.243 268.256 253.062 268.256C253.877 268.256 254.601 268.419 255.236 268.746C255.875 269.068 256.396 269.518 256.798 270.095C257.201 270.673 257.461 271.338 257.58 272.091H255.847C255.686 271.437 255.373 270.895 254.909 270.464C254.445 270.034 253.83 269.818 253.062 269.818C251.936 269.818 251.048 270.308 250.399 271.288C249.755 272.268 249.431 273.644 249.426 275.415H249.54C249.805 275.012 250.12 274.669 250.484 274.385C250.854 274.096 251.261 273.874 251.706 273.717C252.151 273.561 252.622 273.483 253.119 273.483C253.953 273.483 254.715 273.691 255.406 274.108C256.098 274.52 256.652 275.09 257.068 275.82C257.485 276.544 257.693 277.375 257.693 278.312C257.693 279.212 257.492 280.036 257.089 280.784C256.687 281.527 256.121 282.119 255.392 282.56C254.668 282.995 253.815 283.208 252.835 283.199ZM252.835 281.636C253.432 281.636 253.967 281.487 254.44 281.189C254.919 280.891 255.295 280.491 255.57 279.989C255.849 279.487 255.989 278.928 255.989 278.312C255.989 277.711 255.854 277.164 255.584 276.672C255.319 276.175 254.952 275.779 254.483 275.486C254.019 275.192 253.489 275.045 252.892 275.045C252.442 275.045 252.023 275.135 251.635 275.315C251.247 275.491 250.906 275.732 250.612 276.04C250.323 276.348 250.096 276.7 249.93 277.098C249.765 277.491 249.682 277.905 249.682 278.341C249.682 278.919 249.817 279.458 250.087 279.96C250.361 280.462 250.735 280.867 251.209 281.175C251.687 281.482 252.229 281.636 252.835 281.636Z" fill="#7B7B7B"/>
</g>
</g>
<defs>
<filter id="filter0_i_63_16" x="0" y="0" width="372" height="372" filterUnits="userSpaceOnUse" color-interpolation-filters="sRGB">
<feFlood flood-opacity="0" result="BackgroundImageFix"/>
<feBlend mode="normal" in="SourceGraphic" in2="BackgroundImageFix" result="shape"/>
<feColorMatrix in="SourceAlpha" type="matrix" values="0 0 0 0 0 0 0 0 0 0 0 0 0 0 0 0 0 0 127 0" result="hardAlpha"/>
<feOffset dx="4" dy="4"/>
<feGaussianBlur stdDeviation="10.3"/>
<feComposite in2="hardAlpha" operator="arithmetic" k2="-1" k3="1"/>
<feColorMatrix type="matrix" values="0 0 0 0 0 0 0 0 0 0 0 0 0 0 0 0 0 0 0.03 0"/>
<feBlend mode="normal" in2="shape" result="effect1_innerShadow_63_16"/>
</filter>
<linearGradient id="paint0_linear_63_16" x1="184" y1="0" x2="184" y2="368" gradientUnits="userSpaceOnUse">
<stop stop-color="#E5E7EB"/>
<stop offset="1" stop-color="#EFEFEF"/>
</linearGradient>
<clipPath id="clip0_63_16">
<rect width="368" height="368" rx="35" fill="white"/>
</clipPath>
</defs>
</svg>
