<svg width="368" height="368" viewBox="0 0 368 368" fill="none" xmlns="http://www.w3.org/2000/svg">
<g filter="url(#filter0_i_63_19)">
<g clip-path="url(#clip0_63_19)">
<rect width="368" height="368" rx="35" fill="url(#paint0_linear_63_19)"/>
<rect x="95.5" y="24.5" width="357" height="68" rx="12.5" fill="white"/>
<rect x="95.5" y="24.5" width="357" height="68" rx="12.5" stroke="#D2D2D2"/>
<path d="M150.143 75.6424H130.857C126.711 75.6424 123.357 72.2887 123.357 68.1424H157.643C157.643 72.2887 154.289 75.6424 150.143 75.6424Z" fill="url(#paint1_linear_63_19)"/>
<path d="M150.143 74.9996H130.857C126.711 74.9996 123.357 71.646 123.357 67.4996V48.8568C123.357 44.7103 126.711 41.3568 130.857 41.3568H150.143C154.289 41.3568 157.643 44.7103 157.643 48.8568V67.4996C157.643 71.646 154.289 74.9996 150.143 74.9996Z" fill="url(#paint2_linear_63_19)"/>
<path d="M150.143 74.2494H130.857C126.711 74.2494 123.357 70.896 123.357 66.7494V52.0709C123.357 47.9245 157.643 47.9245 157.643 52.0709V66.7494C157.643 70.896 154.289 74.2494 150.143 74.2494Z" fill="url(#paint3_linear_63_19)"/>
<path d="M123.357 52.071V48.8567C123.357 44.7103 126.711 41.3568 130.857 41.3568H150.143C154.289 41.3568 157.643 44.7103 157.643 48.8567V52.071H123.357Z" fill="url(#paint4_radial_63_19)"/>
<path d="M131.286 45.2675H145.257C150.229 45.2675 150.143 41.3568 150.143 41.3568H130.857C126.711 41.3568 123.357 44.7103 123.357 48.8567V52.071H123.432C123.979 48.2246 127.289 45.2675 131.286 45.2675Z" fill="url(#paint5_linear_63_19)"/>
<path d="M137.2 47.9033C137.2 48.9533 136.461 49.5961 135.378 49.5961C134.286 49.5854 133.6 48.9104 133.6 47.9033V47.6247H134.564V47.8604C134.564 48.4068 134.886 48.6854 135.368 48.6854C135.903 48.6854 136.182 48.364 136.182 47.8604V44.9033H134.457V43.9926H137.178V47.9033H137.2Z" fill="white"/>
<path d="M138.357 43.9926H139.364V47.464C139.364 48.364 139.975 48.6854 140.639 48.6854C141.389 48.6854 141.925 48.289 141.925 47.464V43.9926H142.932V47.5068C142.932 48.8997 141.946 49.5961 140.639 49.5961C139.321 49.5961 138.357 48.8783 138.357 47.5068V43.9926Z" fill="white"/>
<path d="M147.4 48.5783V49.489H144.121V43.9926H145.128V48.5783H147.4Z" fill="white"/>
<path d="M130.45 58.8966C133.182 58.8966 134.297 57.9322 134.65 56.3036H137.318V71.4109H134.329V61.1359H130.45V58.8966Z" fill="url(#paint6_linear_63_19)"/>
<path d="M150.764 56.3036V58.6393L144.893 71.4109H141.711L147.464 58.875H140.65V56.3036H150.764Z" fill="url(#paint7_linear_63_19)"/>
<path d="M137.318 62.8823C136.225 62.625 135.229 62.4536 134.329 62.55V71.4214H137.318V62.8823Z" fill="url(#paint8_linear_63_19)"/>
<path d="M145.086 64.0496L141.711 71.4103H144.893L148.632 63.2781C147.389 63.7389 146.2 63.9639 145.086 64.0496Z" fill="url(#paint9_linear_63_19)"/>
<path d="M177.244 71.5H173.92L183.534 45.3182H186.807L196.42 71.5H193.097L185.273 49.4602H185.068L177.244 71.5ZM178.472 61.2727H191.869V64.0852H178.472V61.2727ZM212.464 63.4716V51.8636H215.482V71.5H212.464V68.1761H212.26C211.8 69.1733 211.084 70.0213 210.112 70.7202C209.141 71.4105 207.913 71.7557 206.43 71.7557C205.203 71.7557 204.112 71.4872 203.158 70.9503C202.203 70.4048 201.453 69.5866 200.908 68.4957C200.362 67.3963 200.089 66.0114 200.089 64.3409V51.8636H203.107V64.1364C203.107 65.5682 203.507 66.7102 204.308 67.5625C205.118 68.4148 206.149 68.8409 207.402 68.8409C208.152 68.8409 208.915 68.6491 209.69 68.2656C210.474 67.8821 211.131 67.294 211.659 66.5014C212.196 65.7088 212.464 64.6989 212.464 63.4716ZM228.934 79.2727C227.476 79.2727 226.223 79.0852 225.175 78.7102C224.127 78.3438 223.253 77.858 222.554 77.2528C221.864 76.6563 221.314 76.017 220.905 75.3352L223.309 73.6477C223.581 74.0057 223.926 74.4148 224.344 74.875C224.762 75.3438 225.333 75.7486 226.057 76.0895C226.79 76.4389 227.749 76.6136 228.934 76.6136C230.519 76.6136 231.827 76.2301 232.858 75.4631C233.89 74.696 234.405 73.4943 234.405 71.858V67.8693H234.15C233.928 68.2273 233.613 68.6705 233.203 69.1989C232.803 69.7188 232.223 70.1832 231.465 70.5923C230.715 70.9929 229.701 71.1932 228.422 71.1932C226.837 71.1932 225.414 70.8182 224.152 70.0682C222.9 69.3182 221.907 68.2273 221.174 66.7955C220.449 65.3636 220.087 63.625 220.087 61.5795C220.087 59.5682 220.441 57.8168 221.148 56.3253C221.855 54.8253 222.84 53.6662 224.101 52.848C225.363 52.0213 226.82 51.608 228.473 51.608C229.752 51.608 230.766 51.821 231.516 52.2472C232.275 52.6648 232.854 53.142 233.255 53.679C233.664 54.2074 233.979 54.642 234.201 54.983H234.507V51.8636H237.422V72.0625C237.422 73.75 237.039 75.1222 236.272 76.179C235.513 77.2443 234.49 78.0241 233.203 78.5185C231.925 79.0213 230.502 79.2727 228.934 79.2727ZM228.831 68.483C230.042 68.483 231.064 68.206 231.9 67.652C232.735 67.098 233.37 66.3011 233.804 65.2614C234.239 64.2216 234.456 62.9773 234.456 61.5284C234.456 60.1136 234.243 58.8651 233.817 57.7827C233.391 56.7003 232.76 55.8523 231.925 55.2386C231.09 54.625 230.059 54.3182 228.831 54.3182C227.553 54.3182 226.488 54.642 225.635 55.2898C224.792 55.9375 224.157 56.8068 223.73 57.8977C223.313 58.9886 223.104 60.1989 223.104 61.5284C223.104 62.892 223.317 64.098 223.743 65.1463C224.178 66.1861 224.817 67.0043 225.661 67.6009C226.513 68.1889 227.57 68.483 228.831 68.483ZM255.32 63.4716V51.8636H258.337V71.5H255.32V68.1761H255.115C254.655 69.1733 253.939 70.0213 252.968 70.7202C251.996 71.4105 250.769 71.7557 249.286 71.7557C248.059 71.7557 246.968 71.4872 246.013 70.9503C245.059 70.4048 244.309 69.5866 243.763 68.4957C243.218 67.3963 242.945 66.0114 242.945 64.3409V51.8636H245.962V64.1364C245.962 65.5682 246.363 66.7102 247.164 67.5625C247.973 68.4148 249.005 68.8409 250.257 68.8409C251.007 68.8409 251.77 68.6491 252.546 68.2656C253.33 67.8821 253.986 67.294 254.515 66.5014C255.051 65.7088 255.32 64.6989 255.32 63.4716ZM277.772 56.2614L275.062 57.0284C274.891 56.5767 274.64 56.1378 274.308 55.7116C273.984 55.277 273.54 54.919 272.978 54.6378C272.415 54.3565 271.695 54.2159 270.817 54.2159C269.616 54.2159 268.614 54.4929 267.813 55.0469C267.021 55.5923 266.624 56.2869 266.624 57.1307C266.624 57.8807 266.897 58.473 267.442 58.9077C267.988 59.3423 268.84 59.7045 269.999 59.9943L272.914 60.7102C274.67 61.1364 275.978 61.7884 276.839 62.6662C277.7 63.5355 278.13 64.6562 278.13 66.0284C278.13 67.1534 277.806 68.1591 277.158 69.0455C276.519 69.9318 275.624 70.6307 274.474 71.142C273.323 71.6534 271.985 71.9091 270.46 71.9091C268.457 71.9091 266.799 71.4744 265.487 70.6051C264.174 69.7358 263.343 68.4659 262.994 66.7955L265.857 66.0795C266.13 67.1364 266.646 67.929 267.404 68.4574C268.171 68.9858 269.173 69.25 270.408 69.25C271.815 69.25 272.931 68.9517 273.758 68.3551C274.593 67.75 275.011 67.0256 275.011 66.1818C275.011 65.5 274.772 64.929 274.295 64.4688C273.817 64 273.085 63.6506 272.096 63.4205L268.823 62.6534C267.025 62.2273 265.704 61.5668 264.86 60.6719C264.025 59.7685 263.607 58.6392 263.607 57.2841C263.607 56.1761 263.918 55.196 264.54 54.3438C265.171 53.4915 266.028 52.8224 267.11 52.3366C268.201 51.8509 269.437 51.608 270.817 51.608C272.761 51.608 274.286 52.0341 275.394 52.8864C276.511 53.7386 277.303 54.8636 277.772 56.2614ZM291.211 51.8636V54.4205H281.035V51.8636H291.211ZM284.001 47.1591H287.018V65.875C287.018 66.7273 287.142 67.3665 287.389 67.7926C287.645 68.2102 287.968 68.4915 288.36 68.6364C288.761 68.7727 289.183 68.8409 289.626 68.8409C289.958 68.8409 290.231 68.8239 290.444 68.7898C290.657 68.7472 290.828 68.7131 290.956 68.6875L291.569 71.3977C291.365 71.4744 291.079 71.5511 290.713 71.6278C290.346 71.7131 289.882 71.7557 289.319 71.7557C288.467 71.7557 287.632 71.5724 286.814 71.206C286.004 70.8395 285.331 70.2812 284.794 69.5312C284.265 68.7812 284.001 67.8352 284.001 66.6932V47.1591ZM305.824 71.5V69.1989L314.466 59.7386C315.48 58.6307 316.315 57.6676 316.971 56.8494C317.627 56.0227 318.113 55.2472 318.429 54.5227C318.752 53.7898 318.914 53.0227 318.914 52.2216C318.914 51.3011 318.693 50.5043 318.25 49.831C317.815 49.1577 317.218 48.6378 316.46 48.2713C315.701 47.9048 314.849 47.7216 313.903 47.7216C312.897 47.7216 312.02 47.9304 311.27 48.348C310.528 48.7571 309.953 49.3324 309.544 50.0739C309.143 50.8153 308.943 51.6847 308.943 52.6818H305.926C305.926 51.1477 306.279 49.8011 306.987 48.642C307.694 47.483 308.657 46.5795 309.876 45.9318C311.103 45.2841 312.48 44.9602 314.005 44.9602C315.539 44.9602 316.899 45.2841 318.083 45.9318C319.268 46.5795 320.197 47.4531 320.87 48.5526C321.544 49.652 321.88 50.875 321.88 52.2216C321.88 53.1847 321.706 54.1264 321.356 55.0469C321.015 55.9588 320.419 56.9773 319.566 58.1023C318.723 59.2187 317.551 60.5824 316.051 62.1932L310.17 68.483V68.6875H322.341V71.5H305.824ZM336.825 45.3182V71.5H333.654V48.642H333.501L327.109 52.8864V49.6648L333.654 45.3182H336.825Z" fill="black"/>
<rect x="-47.5" y="187.5" width="295" height="68" rx="12.5" fill="white"/>
<rect x="-47.5" y="187.5" width="295" height="68" rx="12.5" stroke="#D2D2D2"/>
<path d="M48.1262 230.516C48.1024 231.185 46.7617 232.079 44.8013 232.079C42.8409 232.079 33.881 228.573 31.6529 225.108C28.7015 220.518 25.6486 219.229 23.9624 218.212C22.2762 217.195 24.5324 211.316 26.7907 209.604C29.049 207.892 29.9667 210.992 32.646 210.299C35.3254 209.606 40.0126 210.176 41.8737 210.77C43.7347 211.365 56.4859 219.179 56.3867 222.031C56.2873 224.883 55.8167 226.174 53.757 226.224C53.757 226.224 54.0053 228.456 51.0042 228.506C51.0042 228.508 50.9675 230.989 48.1262 230.516Z" fill="url(#paint10_linear_63_19)"/>
<path d="M52.7746 223.365C51.8159 223.531 46.7725 220.293 45.3497 220.373C43.5642 220.472 46.6666 221.327 49.2683 222.804C52.7076 224.755 54.4284 226.623 51.2028 227.467C50.3111 227.7 45.693 223.717 42.9661 223.944C42.3702 223.993 44.9416 225.259 47.7872 227.07C50.6328 228.881 49.1927 229.525 47.7289 229.378C46.2651 229.231 41.2303 226.427 40.0147 226.649C38.7992 226.871 42.4695 227.765 45.3734 229.6C46.8631 230.542 44.3652 231.014 41.5822 231.25C43.0287 231.77 44.2226 232.081 44.8013 232.081C46.7617 232.081 48.1003 231.187 48.1262 230.518C50.9675 230.989 51.0041 228.508 51.0041 228.508C54.0052 228.458 53.7569 226.226 53.7569 226.226C55.8166 226.176 56.2873 224.887 56.3866 222.033C56.3888 221.951 56.3801 221.862 56.3607 221.772L54.2276 220.487C54.6918 222.141 53.7332 223.199 52.7746 223.365Z" fill="url(#paint11_linear_63_19)"/>
<path d="M50.9373 228.953C50.5983 228.62 50.2334 228.281 49.8124 227.936C40.7833 220.515 39.5419 226.079 35.3254 223.251C31.1087 220.422 33.7881 217.346 30.1653 217.147C26.9893 216.972 25.1477 215.195 24.4417 212.853C23.3902 215.072 22.9152 217.581 23.9624 218.214C25.6486 219.23 28.7014 220.522 31.6528 225.109C33.881 228.573 42.8409 232.081 44.8013 232.081C46.7617 232.081 48.1003 231.187 48.1262 230.518C50.1945 230.859 50.7753 229.641 50.9373 228.953Z" fill="url(#paint12_linear_63_19)"/>
<path d="M45.4641 220.619C47.1114 221.135 48.6681 221.91 50.1686 222.757C50.9135 223.191 51.6476 223.646 52.373 224.106C53.1891 224.508 53.5885 225.404 53.7591 226.224C53.513 225.412 53.0833 224.59 52.2931 224.236C51.5483 223.802 50.8185 223.346 50.0694 222.927C48.5839 222.064 47.0532 221.286 45.4641 220.619Z" fill="#804B24"/>
<path d="M43.5123 224.143C44.8768 224.639 46.1485 225.356 47.3921 226.094C48.0074 226.476 48.6206 226.863 49.2208 227.269L51.0042 228.508C49.7368 227.804 48.5342 226.999 47.2906 226.263C46.6775 225.881 46.0513 225.52 45.4252 225.162C44.797 224.807 44.1644 224.458 43.5123 224.143Z" fill="#804B24"/>
<path d="M40.3365 226.846C41.7162 227.262 43.0332 227.854 44.3329 228.465C45.6219 229.1 46.9022 229.76 48.1263 230.516C45.529 229.283 42.9792 227.975 40.3365 226.846Z" fill="#804B24"/>
<path d="M47.7872 231.121C33.5268 229.417 32.497 223.165 30.8453 220.984C29.1915 218.801 30.8129 217.115 29.4571 217.709C28.2697 218.229 25.4111 218.624 23.4528 215.921C23.2888 216.998 23.4075 217.875 23.9667 218.214C25.6529 219.231 28.7058 220.522 31.6571 225.11C33.8853 228.573 42.8452 232.081 44.8056 232.081C46.2003 232.079 47.2734 231.624 47.7872 231.121Z" fill="url(#paint13_linear_63_19)"/>
<path d="M36.7135 210.005C35.2432 209.943 33.7686 210.008 32.6481 210.299C30.1436 210.949 29.1785 208.282 27.2181 209.33C29.0296 209.345 29.4139 211.478 31.6398 211.422C33.1338 211.385 34.6063 211.074 35.9211 211.005C36.1479 210.666 36.4091 210.323 36.7135 210.005Z" fill="url(#paint14_linear_63_19)"/>
<path d="M55.6915 225.334C56.16 224.654 56.3348 223.581 56.3888 222.033C56.4881 219.181 43.7369 211.366 41.8758 210.772C40.7337 210.407 38.525 210.051 36.3703 209.992C36.1717 209.986 33.5075 213.574 33.5571 214.766C33.596 215.725 34.2782 217.024 36.7136 217.024C39.149 217.024 39.5592 213.866 40.833 213.509C42.8517 212.948 44.8704 216.694 47.6469 217.985C50.4256 219.274 53.798 220.654 54.1283 221.217C54.4479 221.755 55.9808 223.335 55.6915 225.334Z" fill="url(#paint15_linear_63_19)"/>
<path d="M35.1786 216.055C33.9868 215.36 34.1855 214.021 34.7813 213.028C35.3772 212.035 36.6424 208.563 39.9155 208.563C42.8431 208.563 45.3066 210.279 47.1353 210.994C48.6401 211.581 50.3609 212.531 51.6001 212.531C52.8394 212.531 55.1021 211.307 55.8664 210.696C56.445 210.234 57.9499 210.646 60.1823 214.714C62.4147 218.782 61.6698 219.626 60.5299 219.924C59.3878 220.222 57.7512 220.669 57.3539 221.908C56.9567 223.147 56.2334 223.83 56.2334 223.83C56.2334 223.83 55.182 221.2 53.5346 220.122C50.8056 218.337 48.4242 217.344 47.0856 216.353C45.747 215.36 42.3725 212.68 40.982 212.68C39.5917 212.68 37.7586 217.393 35.1786 216.055Z" fill="url(#paint16_linear_63_19)"/>
<path d="M56.2334 223.832C56.2334 223.832 56.9588 223.149 57.3539 221.91C57.7512 220.671 59.3877 220.224 60.5299 219.926C61.4539 219.684 62.1146 219.086 61.1516 216.711C56.8012 215.798 58.3277 223.471 54.7912 219.263C51.1187 214.898 48.2428 215.724 46.9863 215.029C45.7297 214.334 42.4955 211.987 40.9086 211.987C39.3217 211.987 38.3545 216.502 34.7597 215.722C34.8763 215.843 35.0101 215.958 35.1785 216.055C37.7586 217.393 39.5938 212.68 40.9842 212.68C42.3746 212.68 45.747 215.36 47.0877 216.353C48.4263 217.346 50.8078 218.337 53.5367 220.122C55.1819 221.2 56.2334 223.832 56.2334 223.832Z" fill="url(#paint17_linear_63_19)"/>
<path d="M39.5182 233.867C38.1321 233.785 37.7284 232.241 38.1796 230.965C38.7992 229.203 40.0234 228.968 40.6841 228.981C41.3448 228.994 42.543 229.499 42.2213 231.164C41.9774 232.444 41.6017 233.99 39.5182 233.867Z" fill="url(#paint18_linear_63_19)"/>
<path d="M43.7542 234.525C42.8885 234.525 41.9407 234.249 42.0227 231.762C42.1047 229.275 43.5103 229.303 43.8902 229.303C44.2703 229.303 45.6218 229.745 45.6218 231.846C45.6218 233.945 44.7819 234.525 43.7542 234.525Z" fill="url(#paint19_linear_63_19)"/>
<path d="M41.7463 232.718C41.1223 232.796 40.1357 232.835 39.5764 232.427C38.8791 231.917 39.0583 230.183 39.6606 229.186C39.1166 229.426 38.5444 229.927 38.1796 230.963C37.7305 232.241 38.1321 233.783 39.5182 233.865C40.7575 233.94 41.3836 233.418 41.7463 232.718Z" fill="url(#paint20_linear_63_19)"/>
<path d="M45.6218 231.844C45.6218 231.418 45.557 231.077 45.4642 230.779C45.3108 231.593 44.5422 233.055 43.7434 233.055C43.0396 233.055 42.4804 232.865 42.0313 231.606C42.0291 231.658 42.0227 231.706 42.0205 231.76C41.9385 234.247 42.8863 234.523 43.752 234.523C44.7819 234.525 45.6218 233.944 45.6218 231.844Z" fill="url(#paint21_linear_63_19)"/>
<path d="M32.4106 229.415C31.0202 228.767 30.7309 227.306 31.6118 225.406C32.4927 223.506 33.8334 224.002 34.4941 224.311C35.1547 224.62 36.3206 226.019 35.5866 227.601C34.8525 229.184 33.5355 229.94 32.4106 229.415Z" fill="url(#paint22_linear_63_19)"/>
<path d="M35.3297 231.824C34.112 231.028 34.248 229.337 35.5563 227.478C36.8647 225.619 38.0176 226.353 38.5725 226.783C39.1274 227.213 39.9521 228.934 38.8013 230.419C37.9183 231.561 37.1281 232.999 35.3297 231.824Z" fill="url(#paint23_linear_63_19)"/>
<path d="M32.836 228.672C31.75 228.165 31.8537 225.382 33.0778 224.048C32.5683 224.141 32.0371 224.492 31.614 225.408C30.7331 227.308 31.0224 228.77 32.4128 229.417C33.5377 229.942 34.8547 229.186 35.5888 227.604C35.5866 227.599 34.1271 229.273 32.836 228.672Z" fill="url(#paint24_linear_63_19)"/>
<path d="M35.3318 231.822C36.2796 232.442 36.9468 232.332 37.4952 231.926C36.6251 231.898 35.4096 231.438 35.4096 230.194C35.4096 228.711 36.353 227.092 38.0695 226.455C37.4477 226.146 36.5474 226.069 35.5586 227.476C34.2502 229.337 34.112 231.028 35.3318 231.822Z" fill="url(#paint25_linear_63_19)"/>
<path d="M31.6119 225.406C31.8516 224.883 32.1948 224.356 32.7475 224.106C33.3046 223.858 33.9501 223.991 34.4726 224.24C35.021 224.505 35.4118 224.997 35.6622 225.535C35.9105 226.079 35.958 226.716 35.7853 227.293C35.7745 227.331 35.7335 227.353 35.6946 227.342C35.686 227.34 35.6773 227.334 35.6709 227.329L35.6687 227.327C35.6363 227.303 35.6298 227.256 35.6557 227.223C36.0508 226.727 36.582 226.209 37.2901 226.187C37.6334 226.17 37.9681 226.284 38.2552 226.448C38.5359 226.608 38.8187 226.824 38.9979 227.113C39.3628 227.672 39.5269 228.353 39.4621 229.013C39.4535 229.095 39.4449 229.18 39.4254 229.259L39.4017 229.382V229.387C39.5225 229.471 39.2376 229.277 39.2678 229.296L39.2743 229.292L39.2872 229.283L39.3131 229.266L39.3671 229.233C39.5117 229.149 39.6629 229.08 39.8205 229.026C40.1379 228.92 40.4704 228.877 40.805 228.905C41.47 228.964 42.1134 229.432 42.2753 230.099C42.3012 230.179 42.312 230.261 42.325 230.343L42.3293 230.373L42.3314 230.389V230.393C42.3595 230.399 42.094 230.361 42.2062 230.373L42.2084 230.367L42.2343 230.311L42.2861 230.199C42.3617 230.052 42.448 229.907 42.5603 229.784C42.7741 229.527 43.085 229.354 43.4088 229.287C44.063 229.104 44.7712 229.469 45.1317 230C45.5203 230.535 45.6304 231.205 45.624 231.842C45.6088 231.205 45.4728 230.542 45.0777 230.039C44.6912 229.54 44.0544 229.221 43.4304 229.395C43.1281 229.462 42.8475 229.624 42.651 229.864C42.5495 229.981 42.4696 230.117 42.4005 230.255L42.353 230.363L42.3293 230.417L42.3271 230.423C42.4394 230.438 42.1738 230.406 42.1998 230.408V230.404L42.1976 230.389L42.1933 230.361C42.1803 230.285 42.1695 230.207 42.1458 230.134C41.9925 229.525 41.4031 229.11 40.7899 229.061C40.4833 229.039 40.1659 229.082 39.8745 229.184C39.7277 229.236 39.5873 229.3 39.4556 229.38L39.406 229.413L39.3822 229.428L39.3693 229.436L39.3628 229.441C39.3909 229.462 39.108 229.264 39.2289 229.346V229.341L39.2505 229.227C39.2678 229.151 39.2743 229.074 39.2807 228.996C39.3369 228.376 39.162 227.742 38.8338 227.219C38.6741 226.954 38.4344 226.768 38.1624 226.604C37.8968 226.446 37.5988 226.345 37.2944 226.356C36.6705 226.362 36.1609 226.83 35.7702 227.312L35.7572 227.208L35.7594 227.211L35.6428 227.247C35.8112 226.705 35.7766 226.107 35.5456 225.585C35.3146 225.069 34.9368 224.585 34.4294 224.335C33.9155 224.091 33.3132 223.94 32.7713 224.158C32.2315 224.382 31.8688 224.89 31.6119 225.406Z" fill="#804B24"/>
<path d="M38.5747 226.783C38.1667 226.507 37.6917 226.293 37.2189 226.354C36.7482 226.412 36.3423 226.71 36.0184 227.064C35.6859 227.416 35.4182 227.835 35.1635 228.253C34.9173 228.677 34.6971 229.121 34.559 229.601C34.6259 229.106 34.8008 228.627 35.0296 228.18C35.2628 227.735 35.5348 227.312 35.8738 226.93C36.2236 226.572 36.6726 226.237 37.2059 226.205C37.7414 226.166 38.2142 226.453 38.5747 226.783Z" fill="#804B24"/>
<path d="M39.1015 227.506C39.5117 228.188 39.5873 229.091 39.257 229.847C39.0907 230.227 38.8208 230.538 38.579 230.842C38.3307 231.151 38.0695 231.457 37.7586 231.706C38.0177 231.405 38.2314 231.075 38.4581 230.751C38.6827 230.421 38.9374 230.125 39.0778 229.769C39.3973 229.069 39.3563 228.253 39.1015 227.506Z" fill="#804B24"/>
<path d="M41.6816 229.329C41.9774 229.508 42.2084 229.812 42.2991 230.162C42.3984 230.51 42.3725 230.877 42.3142 231.22C42.1739 231.883 42.0033 232.608 41.5067 233.113C41.6903 232.82 41.8069 232.5 41.8997 232.176C41.9904 231.85 42.0616 231.52 42.1199 231.183C42.2688 230.538 42.1976 229.814 41.6816 229.329Z" fill="#804B24"/>
<path d="M40.5567 208.608C40.343 208.591 40.1336 208.563 39.9155 208.563C36.6402 208.563 35.3751 212.037 34.7813 213.028C34.2696 213.879 34.0645 214.98 34.7662 215.716C34.8375 215.791 34.7684 215.433 34.6302 215.073C34.328 214.287 35.3189 209.915 40.5567 208.608Z" fill="url(#paint26_linear_63_19)"/>
<path d="M39.9154 208.563C39.1403 208.567 38.3695 208.792 37.724 209.211C37.0719 209.625 36.5408 210.2 36.0982 210.828C35.6556 211.461 35.3058 212.147 34.9518 212.838C34.5545 213.488 34.2436 214.248 34.425 214.99C34.5135 215.351 34.7402 215.673 35.0468 215.884C35.3555 216.096 35.729 216.193 36.096 216.219C36.8517 216.202 37.5146 215.729 38.0651 215.213C38.6243 214.686 39.1014 214.077 39.6282 213.503C39.8916 213.218 40.1658 212.929 40.5264 212.726C40.9064 212.495 41.3641 212.616 41.7203 212.741C43.1885 213.332 44.4256 214.291 45.68 215.196C46.3061 215.651 46.9063 216.15 47.5432 216.575C48.1866 216.996 48.871 217.361 49.549 217.732C50.9113 218.469 52.2693 219.222 53.5604 220.079C54.2081 220.526 54.7155 221.135 55.1473 221.776C55.5748 222.424 55.9397 223.113 56.2333 223.827C55.5943 222.437 54.7825 221.034 53.5064 220.159C52.2089 219.315 50.8509 218.574 49.4842 217.847C48.802 217.48 48.1154 217.119 47.4612 216.696C46.807 216.264 46.2111 215.776 45.5807 215.325C44.3284 214.433 43.0719 213.483 41.6534 212.924C41.2993 212.799 40.9215 212.7 40.6149 212.89C40.2975 213.065 40.0234 213.343 39.7621 213.622C39.2374 214.183 38.7538 214.794 38.1795 215.327C37.616 215.848 36.9208 216.346 36.0982 216.361C35.6967 216.331 35.2994 216.223 34.9691 215.994C34.6409 215.766 34.3926 215.412 34.2998 215.019C34.1097 214.218 34.4552 213.425 34.8525 212.78C35.2087 212.095 35.5671 211.4 36.0205 210.767C36.4804 210.141 37.0331 209.569 37.7002 209.165C38.3609 208.76 39.1403 208.55 39.9154 208.563Z" fill="#804B24"/>
<path opacity="0.75" d="M39.7536 209.606C40.5546 210.141 39.9565 211.812 38.9504 213.419C38.1278 214.731 36.4611 215.707 35.6925 215.165C34.9238 214.621 34.3474 213.989 36.2495 211.383C37.37 209.848 38.9699 209.083 39.7536 209.606Z" fill="url(#paint27_radial_63_19)"/>
<path opacity="0.75" d="M29.2087 210.316C30.597 210.88 30.5797 212.853 29.9623 214.779C29.457 216.355 27.6003 217.598 26.253 217.022C24.9058 216.448 23.7853 215.755 25.1692 212.611C25.981 210.761 27.8507 209.766 29.2087 210.316Z" fill="url(#paint28_radial_63_19)"/>
<path opacity="0.75" d="M50.9005 214.371C50.3888 215.185 48.368 215.055 46.3665 214.559C44.73 214.153 43.3698 212.944 43.8945 212.156C44.4191 211.368 45.0776 210.724 48.3593 211.763C50.2959 212.374 51.4014 213.576 50.9005 214.371Z" fill="url(#paint29_radial_63_19)"/>
<path opacity="0.75" d="M57.8245 217.637C56.5291 218.242 54.953 217.208 53.7807 215.811C52.8242 214.667 52.9516 212.823 54.2319 212.251C55.5122 211.679 56.7515 211.314 58.4355 213.835C59.4309 215.323 59.0918 217.046 57.8245 217.637Z" fill="url(#paint30_radial_63_19)"/>
<path d="M77.0966 229.131V226.523L88.6023 208.318H90.4943V212.358H89.2159L80.5227 226.114V226.318H96.017V229.131H77.0966ZM89.4205 234.5V228.338V227.124V208.318H92.4375V234.5H89.4205ZM110.984 241.864V214.864H113.899V217.983H114.257C114.478 217.642 114.785 217.207 115.177 216.679C115.578 216.142 116.149 215.665 116.89 215.247C117.64 214.821 118.654 214.608 119.933 214.608C121.586 214.608 123.044 215.021 124.305 215.848C125.566 216.675 126.551 217.847 127.258 219.364C127.966 220.881 128.319 222.67 128.319 224.733C128.319 226.812 127.966 228.615 127.258 230.141C126.551 231.658 125.571 232.834 124.318 233.669C123.065 234.496 121.62 234.909 119.984 234.909C118.723 234.909 117.713 234.7 116.954 234.283C116.196 233.857 115.612 233.375 115.203 232.838C114.794 232.293 114.478 231.841 114.257 231.483H114.001V241.864H110.984ZM113.95 224.682C113.95 226.165 114.167 227.473 114.602 228.607C115.037 229.732 115.672 230.614 116.507 231.253C117.342 231.884 118.365 232.199 119.575 232.199C120.836 232.199 121.889 231.866 122.733 231.202C123.585 230.528 124.224 229.625 124.65 228.491C125.085 227.349 125.302 226.08 125.302 224.682C125.302 223.301 125.089 222.057 124.663 220.949C124.245 219.832 123.61 218.95 122.758 218.303C121.914 217.646 120.853 217.318 119.575 217.318C118.348 217.318 117.316 217.629 116.481 218.251C115.646 218.865 115.015 219.726 114.589 220.834C114.163 221.933 113.95 223.216 113.95 224.682ZM141.154 234.909C139.262 234.909 137.63 234.491 136.258 233.656C134.895 232.812 133.842 231.636 133.1 230.128C132.368 228.611 132.001 226.847 132.001 224.835C132.001 222.824 132.368 221.051 133.1 219.517C133.842 217.974 134.873 216.773 136.194 215.912C137.524 215.043 139.075 214.608 140.848 214.608C141.87 214.608 142.88 214.778 143.877 215.119C144.875 215.46 145.782 216.014 146.6 216.781C147.419 217.54 148.071 218.545 148.556 219.798C149.042 221.051 149.285 222.594 149.285 224.426V225.705H134.149V223.097H146.217C146.217 221.989 145.995 221 145.552 220.131C145.118 219.261 144.495 218.575 143.686 218.072C142.885 217.57 141.939 217.318 140.848 217.318C139.646 217.318 138.606 217.616 137.728 218.213C136.859 218.801 136.19 219.568 135.721 220.514C135.252 221.46 135.018 222.474 135.018 223.557V225.295C135.018 226.778 135.274 228.036 135.785 229.067C136.305 230.089 137.025 230.869 137.946 231.406C138.866 231.935 139.936 232.199 141.154 232.199C141.947 232.199 142.663 232.088 143.302 231.866C143.95 231.636 144.508 231.295 144.977 230.844C145.446 230.384 145.808 229.812 146.064 229.131L148.978 229.949C148.672 230.938 148.156 231.807 147.431 232.557C146.707 233.298 145.812 233.878 144.747 234.295C143.681 234.705 142.484 234.909 141.154 234.909ZM161.852 234.909C160.079 234.909 158.524 234.487 157.186 233.643C155.856 232.8 154.816 231.619 154.066 230.102C153.325 228.585 152.954 226.812 152.954 224.784C152.954 222.739 153.325 220.953 154.066 219.428C154.816 217.902 155.856 216.717 157.186 215.874C158.524 215.03 160.079 214.608 161.852 214.608C163.625 214.608 165.176 215.03 166.505 215.874C167.843 216.717 168.883 217.902 169.625 219.428C170.375 220.953 170.75 222.739 170.75 224.784C170.75 226.812 170.375 228.585 169.625 230.102C168.883 231.619 167.843 232.8 166.505 233.643C165.176 234.487 163.625 234.909 161.852 234.909ZM161.852 232.199C163.199 232.199 164.306 231.854 165.176 231.163C166.045 230.473 166.689 229.565 167.106 228.44C167.524 227.315 167.733 226.097 167.733 224.784C167.733 223.472 167.524 222.249 167.106 221.115C166.689 219.982 166.045 219.065 165.176 218.366C164.306 217.668 163.199 217.318 161.852 217.318C160.505 217.318 159.397 217.668 158.528 218.366C157.659 219.065 157.015 219.982 156.598 221.115C156.18 222.249 155.971 223.472 155.971 224.784C155.971 226.097 156.18 227.315 156.598 228.44C157.015 229.565 157.659 230.473 158.528 231.163C159.397 231.854 160.505 232.199 161.852 232.199ZM175.355 241.864V214.864H178.27V217.983H178.628C178.849 217.642 179.156 217.207 179.548 216.679C179.949 216.142 180.52 215.665 181.261 215.247C182.011 214.821 183.026 214.608 184.304 214.608C185.957 214.608 187.415 215.021 188.676 215.848C189.938 216.675 190.922 217.847 191.629 219.364C192.337 220.881 192.69 222.67 192.69 224.733C192.69 226.812 192.337 228.615 191.629 230.141C190.922 231.658 189.942 232.834 188.689 233.669C187.436 234.496 185.991 234.909 184.355 234.909C183.094 234.909 182.084 234.7 181.325 234.283C180.567 233.857 179.983 233.375 179.574 232.838C179.165 232.293 178.849 231.841 178.628 231.483H178.372V241.864H175.355ZM178.321 224.682C178.321 226.165 178.538 227.473 178.973 228.607C179.408 229.732 180.043 230.614 180.878 231.253C181.713 231.884 182.736 232.199 183.946 232.199C185.207 232.199 186.26 231.866 187.104 231.202C187.956 230.528 188.595 229.625 189.021 228.491C189.456 227.349 189.673 226.08 189.673 224.682C189.673 223.301 189.46 222.057 189.034 220.949C188.616 219.832 187.982 218.95 187.129 218.303C186.286 217.646 185.224 217.318 183.946 217.318C182.719 217.318 181.688 217.629 180.852 218.251C180.017 218.865 179.386 219.726 178.96 220.834C178.534 221.933 178.321 223.216 178.321 224.682ZM200.31 208.318V234.5H197.293V208.318H200.31ZM214.069 234.909C212.176 234.909 210.544 234.491 209.172 233.656C207.809 232.812 206.756 231.636 206.015 230.128C205.282 228.611 204.915 226.847 204.915 224.835C204.915 222.824 205.282 221.051 206.015 219.517C206.756 217.974 207.787 216.773 209.108 215.912C210.438 215.043 211.989 214.608 213.762 214.608C214.784 214.608 215.794 214.778 216.792 215.119C217.789 215.46 218.696 216.014 219.515 216.781C220.333 217.54 220.985 218.545 221.471 219.798C221.956 221.051 222.199 222.594 222.199 224.426V225.705H207.063V223.097H219.131C219.131 221.989 218.909 221 218.466 220.131C218.032 219.261 217.409 218.575 216.6 218.072C215.799 217.57 214.853 217.318 213.762 217.318C212.56 217.318 211.52 217.616 210.642 218.213C209.773 218.801 209.104 219.568 208.635 220.514C208.167 221.46 207.932 222.474 207.932 223.557V225.295C207.932 226.778 208.188 228.036 208.699 229.067C209.219 230.089 209.939 230.869 210.86 231.406C211.78 231.935 212.85 232.199 214.069 232.199C214.861 232.199 215.577 232.088 216.216 231.866C216.864 231.636 217.422 231.295 217.891 230.844C218.36 230.384 218.722 229.812 218.978 229.131L221.892 229.949C221.586 230.938 221.07 231.807 220.346 232.557C219.621 233.298 218.726 233.878 217.661 234.295C216.596 234.705 215.398 234.909 214.069 234.909Z" fill="black"/>
<rect x="144.5" y="108.5" width="195" height="68" rx="12.5" fill="white"/>
<rect x="144.5" y="108.5" width="195" height="68" rx="12.5" stroke="#D2D2D2"/>
<path d="M189.5 160.714C199.559 160.714 207.714 152.559 207.714 142.5C207.714 132.44 199.559 124.286 189.5 124.286C179.44 124.286 171.286 132.44 171.286 142.5C171.286 152.559 179.44 160.714 189.5 160.714Z" fill="url(#paint31_linear_63_19)"/>
<path d="M189.5 160.178C199.263 160.178 207.178 152.263 207.178 142.5C207.178 132.736 199.263 124.821 189.5 124.821C179.736 124.821 171.821 132.736 171.821 142.5C171.821 152.263 179.736 160.178 189.5 160.178Z" fill="url(#paint32_linear_63_19)"/>
<path opacity="0.5" d="M189.5 126.129C180.457 126.129 173.129 133.457 173.129 142.5C173.129 151.543 180.457 158.871 189.5 158.871C198.543 158.871 205.871 151.543 205.871 142.5C205.871 133.457 198.543 126.129 189.5 126.129ZM189.5 157.521C181.207 157.521 174.479 150.793 174.479 142.5C174.479 134.207 181.207 127.479 189.5 127.479C197.793 127.479 204.521 134.207 204.521 142.5C204.521 150.793 197.793 157.521 189.5 157.521Z" fill="url(#paint33_linear_63_19)"/>
<path d="M189.5 157.5C197.784 157.5 204.5 150.784 204.5 142.5C204.5 134.216 197.784 127.5 189.5 127.5C181.216 127.5 174.5 134.216 174.5 142.5C174.5 150.784 181.216 157.5 189.5 157.5Z" fill="url(#paint34_linear_63_19)"/>
<path d="M189.5 156.996C197.506 156.996 203.996 150.506 203.996 142.5C203.996 134.494 197.506 128.004 189.5 128.004C181.494 128.004 175.004 134.494 175.004 142.5C175.004 150.506 181.494 156.996 189.5 156.996Z" fill="url(#paint35_linear_63_19)"/>
<path d="M199.293 136.928C199.218 136.8 199.046 136.768 198.918 136.843L190.175 142.446L183.179 137.86C182.932 137.7 182.6 137.764 182.439 138.01C182.279 138.257 182.343 138.589 182.589 138.75L189.639 143.368L189.929 142.918L190.068 143.143L199.207 137.293C199.336 137.218 199.368 137.057 199.293 136.928Z" fill="url(#paint36_linear_63_19)"/>
<path d="M191.45 142.929C191.45 142.522 191.289 142.157 191.032 141.879V139.5C191.032 138.89 190.539 138.397 189.928 138.397C189.318 138.397 188.825 138.89 188.825 139.5V141.879C188.568 142.147 188.407 142.522 188.407 142.929C188.407 143.7 188.975 144.332 189.714 144.44V155.111C189.714 155.229 189.81 155.325 189.928 155.325C190.046 155.325 190.143 155.229 190.143 155.111V144.44C190.882 144.332 191.45 143.7 191.45 142.929Z" fill="url(#paint37_linear_63_19)"/>
<path d="M190.571 130.157C195.104 130.157 199.175 132.096 202.025 135.182C199.507 130.886 194.846 128.004 189.5 128.004C181.496 128.004 175.004 134.496 175.004 142.5C175.004 143.057 175.036 143.604 175.1 144.139C175.882 136.286 182.514 130.157 190.571 130.157Z" fill="url(#paint38_linear_63_19)"/>
<path d="M189.5 158.946C180.436 158.946 173.053 151.564 173.053 142.5C173.053 133.436 180.436 126.053 189.5 126.053C198.564 126.053 205.946 133.436 205.946 142.5C205.946 151.564 198.564 158.946 189.5 158.946ZM189.5 126.161C180.489 126.161 173.161 133.489 173.161 142.5C173.161 151.511 180.489 158.839 189.5 158.839C198.511 158.839 205.839 151.511 205.839 142.5C205.839 133.489 198.511 126.161 189.5 126.161Z" fill="white"/>
<path d="M189.671 131.035H189.328L189.221 128.389H189.778L189.671 131.035Z" fill="#3C2200"/>
<path d="M189.286 130.21C189.425 130.2 189.564 130.189 189.704 130.178L189.779 128.389H189.211L189.286 130.21Z" fill="black"/>
<path d="M189.328 153.964H189.671L189.778 156.611H189.221L189.328 153.964Z" fill="#3C2200"/>
<path d="M200.964 142.672V142.329L203.611 142.222V142.779L200.964 142.672Z" fill="#3C2200"/>
<path d="M178.035 142.329V142.672L175.389 142.779V142.222L178.035 142.329Z" fill="#3C2200"/>
<path d="M195.082 152.518L195.382 152.336L196.796 154.575L196.303 154.864L195.082 152.518Z" fill="#3C2200"/>
<path d="M183.918 132.482L183.618 132.664L182.203 130.425L182.696 130.136L183.918 132.482Z" fill="#3C2200"/>
<path d="M199.335 148.382L199.518 148.082L201.864 149.303L201.575 149.796L199.335 148.382Z" fill="#3C2200"/>
<path d="M179.664 136.618L179.482 136.918L177.135 135.696L177.425 135.203L179.664 136.618Z" fill="#3C2200"/>
<path d="M199.518 136.918L199.335 136.618L201.575 135.203L201.864 135.696L199.518 136.918Z" fill="#3C2200"/>
<path d="M179.482 148.082L179.664 148.382L177.425 149.796L177.135 149.303L179.482 148.082Z" fill="#3C2200"/>
<path d="M195.382 132.664L195.082 132.482L196.303 130.136L196.796 130.425L195.382 132.664Z" fill="#3C2200"/>
<path d="M183.618 152.336L183.918 152.518L182.696 154.864L182.203 154.575L183.618 152.336Z" fill="#3C2200"/>
<path d="M196.282 131.239L196.796 130.424L196.303 130.146L195.821 131.067C195.982 131.121 196.132 131.185 196.282 131.239Z" fill="black"/>
<path d="M182.696 130.136L182.203 130.414L183.21 132C183.328 131.936 183.457 131.872 183.575 131.807L182.696 130.136Z" fill="black"/>
<path opacity="0.25" d="M178.218 138.224C178.443 137.11 178.936 136.049 179.579 135.085C180.222 134.131 181.036 133.274 181.957 132.567C182.879 131.86 183.918 131.303 185.011 130.928C186.104 130.564 187.261 130.371 188.397 130.446C188.611 130.456 188.772 130.649 188.761 130.864C188.75 131.024 188.643 131.153 188.504 131.206C187.497 131.581 186.532 131.956 185.632 132.428C184.722 132.889 183.864 133.424 183.061 134.024C182.257 134.635 181.507 135.31 180.811 136.06C180.114 136.81 179.482 137.624 178.85 138.503C178.732 138.664 178.518 138.696 178.357 138.578C178.239 138.492 178.186 138.353 178.218 138.224Z" fill="white"/>
<path d="M177.425 135.203L177.146 135.696L178.229 136.264C178.325 136.135 178.421 136.018 178.518 135.9L177.425 135.203Z" fill="black"/>
<path d="M189.5 143.036C189.403 143.036 189.296 143.004 189.21 142.951L182.01 138.236C181.764 138.075 181.689 137.743 181.86 137.497C182.021 137.25 182.353 137.175 182.6 137.347L189.8 142.061C190.046 142.222 190.121 142.554 189.95 142.801C189.843 142.951 189.671 143.036 189.5 143.036Z" fill="#3C2200"/>
<path d="M189.5 142.768C189.414 142.768 189.328 142.725 189.275 142.639C189.2 142.51 189.232 142.35 189.361 142.264L198.725 136.264C198.853 136.189 199.014 136.221 199.1 136.35C199.186 136.478 199.143 136.639 199.014 136.725L189.65 142.725C189.596 142.757 189.553 142.768 189.5 142.768Z" fill="#3C2200"/>
<path d="M189.5 154.897C189.382 154.897 189.286 154.8 189.286 154.682V142.5C189.286 142.382 189.382 142.286 189.5 142.286C189.618 142.286 189.714 142.382 189.714 142.5V154.682C189.714 154.8 189.618 154.897 189.5 154.897Z" fill="url(#paint39_linear_63_19)"/>
<path d="M189.5 137.967C188.889 137.967 188.396 138.46 188.396 139.071V142.499H190.603V139.071C190.603 138.46 190.111 137.967 189.5 137.967Z" fill="url(#paint40_linear_63_19)"/>
<path d="M189.5 144.021C190.34 144.021 191.021 143.34 191.021 142.5C191.021 141.66 190.34 140.978 189.5 140.978C188.66 140.978 187.978 141.66 187.978 142.5C187.978 143.34 188.66 144.021 189.5 144.021Z" fill="url(#paint41_linear_63_19)"/>
<path d="M188.128 135.096C188.128 135.043 188.161 134.989 188.193 134.946C188.214 134.925 188.236 134.903 188.268 134.893C188.3 134.882 188.332 134.871 188.364 134.871C188.396 134.871 188.439 134.882 188.471 134.893C188.503 134.903 188.525 134.925 188.546 134.946C188.568 134.968 188.578 134.989 188.589 135.021C188.6 135.043 188.6 135.075 188.611 135.107H188.128V135.096ZM188.761 134.786C188.664 134.678 188.536 134.636 188.375 134.636C188.311 134.636 188.236 134.646 188.171 134.678C188.107 134.711 188.053 134.743 188 134.796C187.946 134.85 187.914 134.914 187.882 134.978C187.85 135.053 187.839 135.139 187.839 135.225C187.839 135.311 187.85 135.396 187.882 135.482C187.914 135.557 187.946 135.621 188 135.675C188.053 135.728 188.107 135.771 188.182 135.793C188.246 135.825 188.321 135.836 188.396 135.836C188.461 135.836 188.514 135.825 188.578 135.803C188.632 135.782 188.675 135.761 188.718 135.728C188.761 135.696 188.793 135.664 188.825 135.611C188.857 135.568 188.878 135.525 188.889 135.471L188.643 135.396C188.621 135.439 188.6 135.482 188.557 135.525C188.514 135.557 188.461 135.568 188.396 135.568C188.364 135.568 188.321 135.557 188.289 135.546C188.257 135.536 188.225 135.514 188.203 135.493C188.182 135.471 188.161 135.439 188.15 135.407C188.139 135.375 188.128 135.343 188.128 135.3H188.9C188.9 135.3 188.9 135.289 188.9 135.268C188.9 135.246 188.9 135.225 188.9 135.203C188.9 135.032 188.857 134.893 188.761 134.786Z" fill="url(#paint42_linear_63_19)"/>
<path d="M187.646 135.236C187.582 135.172 187.496 135.129 187.378 135.107L187.207 135.065C187.175 135.065 187.153 135.043 187.132 135.032C187.111 135.011 187.1 134.99 187.1 134.968C187.1 134.936 187.121 134.904 187.143 134.893C187.175 134.872 187.207 134.861 187.25 134.861C187.282 134.861 187.303 134.861 187.336 134.872C187.357 134.882 187.378 134.893 187.389 134.904C187.4 134.915 187.411 134.936 187.421 134.947C187.432 134.968 187.432 134.979 187.432 135H187.443L187.7 134.947C187.7 134.915 187.689 134.872 187.668 134.84C187.646 134.797 187.625 134.765 187.582 134.732C187.539 134.7 187.496 134.668 187.443 134.647C187.378 134.625 187.303 134.615 187.228 134.615C187.164 134.615 187.111 134.625 187.046 134.647C186.993 134.668 186.95 134.69 186.907 134.722C186.864 134.754 186.832 134.797 186.811 134.84C186.789 134.882 186.778 134.936 186.778 134.979C186.778 135.054 186.811 135.129 186.853 135.193C186.907 135.257 186.993 135.3 187.111 135.322L187.261 135.354C187.314 135.365 187.336 135.375 187.357 135.397C187.378 135.418 187.389 135.44 187.389 135.461C187.389 135.493 187.378 135.515 187.357 135.536C187.336 135.557 187.293 135.568 187.239 135.568C187.175 135.568 187.121 135.547 187.089 135.515C187.057 135.482 187.036 135.44 187.036 135.397H187.025L186.757 135.45C186.757 135.493 186.778 135.525 186.789 135.557C186.811 135.6 186.843 135.643 186.875 135.675C186.918 135.718 186.971 135.74 187.025 135.761C187.089 135.782 187.164 135.793 187.25 135.793C187.314 135.793 187.389 135.782 187.453 135.761C187.507 135.74 187.561 135.718 187.593 135.675C187.668 135.611 187.711 135.515 187.711 135.418C187.732 135.375 187.7 135.3 187.646 135.236Z" fill="url(#paint43_linear_63_19)"/>
<path d="M191.064 135.236C191 135.172 190.914 135.129 190.797 135.107L190.625 135.065C190.593 135.065 190.572 135.043 190.55 135.032C190.529 135.011 190.518 134.99 190.518 134.968C190.518 134.936 190.539 134.904 190.561 134.893C190.593 134.872 190.625 134.861 190.668 134.861C190.7 134.861 190.722 134.861 190.754 134.872C190.775 134.882 190.797 134.893 190.807 134.904C190.818 134.915 190.829 134.936 190.839 134.947C190.85 134.968 190.85 134.979 190.85 135H190.861L191.118 134.947C191.118 134.915 191.107 134.872 191.086 134.84C191.064 134.797 191.043 134.765 191 134.732C190.957 134.7 190.914 134.668 190.861 134.647C190.797 134.625 190.722 134.615 190.647 134.615C190.582 134.615 190.529 134.625 190.464 134.647C190.411 134.668 190.368 134.69 190.325 134.722C190.282 134.754 190.25 134.797 190.229 134.84C190.207 134.882 190.197 134.936 190.197 134.979C190.197 135.054 190.229 135.129 190.272 135.193C190.325 135.257 190.411 135.3 190.529 135.322L190.679 135.354C190.732 135.365 190.754 135.375 190.775 135.397C190.797 135.418 190.807 135.44 190.807 135.461C190.807 135.493 190.797 135.515 190.775 135.536C190.754 135.557 190.711 135.568 190.657 135.568C190.593 135.568 190.539 135.547 190.507 135.515C190.475 135.482 190.454 135.44 190.454 135.397H190.443L190.175 135.45C190.175 135.493 190.197 135.525 190.207 135.557C190.229 135.6 190.261 135.643 190.293 135.675C190.336 135.718 190.389 135.74 190.443 135.761C190.507 135.782 190.582 135.793 190.668 135.793C190.732 135.793 190.807 135.782 190.872 135.761C190.925 135.74 190.979 135.718 191.011 135.675C191.086 135.611 191.129 135.515 191.129 135.418C191.15 135.375 191.118 135.3 191.064 135.236Z" fill="url(#paint44_linear_63_19)"/>
<path d="M191.943 135.321C191.943 135.364 191.932 135.407 191.921 135.45C191.911 135.482 191.889 135.503 191.868 135.525C191.846 135.546 191.825 135.557 191.793 135.568C191.761 135.578 191.739 135.578 191.707 135.578C191.664 135.578 191.621 135.568 191.6 135.536C191.578 135.514 191.568 135.482 191.568 135.45C191.568 135.407 191.578 135.375 191.611 135.353C191.632 135.332 191.675 135.311 191.707 135.311L191.943 135.268V135.332V135.321ZM192.221 135.814V135.064C192.221 135.011 192.211 134.957 192.2 134.903C192.189 134.85 192.157 134.807 192.125 134.764C192.082 134.721 192.039 134.689 191.986 134.668C191.921 134.646 191.846 134.636 191.771 134.636C191.707 134.636 191.643 134.646 191.578 134.668C191.525 134.689 191.482 134.721 191.439 134.753C191.407 134.786 191.375 134.828 191.353 134.871C191.343 134.903 191.332 134.925 191.321 134.957L191.578 135.011C191.589 134.978 191.6 134.957 191.621 134.936C191.653 134.903 191.707 134.882 191.771 134.882C191.836 134.882 191.878 134.893 191.911 134.925C191.943 134.957 191.953 134.989 191.953 135.032C191.953 135.053 191.943 135.064 191.932 135.086C191.911 135.107 191.889 135.118 191.868 135.118L191.611 135.161C191.568 135.171 191.525 135.182 191.482 135.193C191.45 135.214 191.407 135.236 191.386 135.257C191.353 135.289 191.332 135.321 191.321 135.364C191.3 135.407 191.3 135.45 191.3 135.493C191.3 135.536 191.311 135.578 191.321 135.621C191.343 135.664 191.364 135.696 191.396 135.728C191.428 135.761 191.471 135.782 191.514 135.803C191.557 135.825 191.611 135.836 191.664 135.836C191.846 135.836 191.953 135.728 191.975 135.675V135.825L192.221 135.814Z" fill="url(#paint45_linear_63_19)"/>
<path d="M190.046 134.914C190.035 134.861 190.003 134.807 189.971 134.764C189.939 134.721 189.896 134.689 189.843 134.668C189.789 134.646 189.725 134.625 189.66 134.636C189.596 134.636 189.532 134.646 189.478 134.679C189.446 134.7 189.403 134.721 189.382 134.743V134.657H189.071V135.814H189.382V135.011C189.393 135 189.457 134.914 189.564 134.914C189.639 134.914 189.693 134.936 189.725 134.979C189.757 135.021 189.778 135.086 189.778 135.139V135.804H190.089V135.075C190.078 135.032 190.068 134.968 190.046 134.914Z" fill="url(#paint46_linear_63_19)"/>
<path d="M233.915 129.318V155.5H230.744V132.642H230.591L224.199 136.886V133.665L230.744 129.318H233.915ZM250.291 155.858C248.604 155.858 247.099 155.568 245.778 154.989C244.466 154.409 243.422 153.604 242.646 152.572C241.879 151.533 241.462 150.327 241.393 148.955H244.615C244.683 149.798 244.973 150.527 245.484 151.141C245.996 151.746 246.665 152.214 247.491 152.547C248.318 152.879 249.234 153.045 250.24 153.045C251.365 153.045 252.362 152.849 253.232 152.457C254.101 152.065 254.783 151.52 255.277 150.821C255.771 150.122 256.018 149.312 256.018 148.392C256.018 147.429 255.78 146.581 255.303 145.848C254.825 145.107 254.126 144.527 253.206 144.109C252.286 143.692 251.161 143.483 249.831 143.483H247.734V140.67H249.831C250.871 140.67 251.783 140.483 252.567 140.108C253.359 139.733 253.977 139.205 254.42 138.523C254.872 137.841 255.098 137.04 255.098 136.119C255.098 135.233 254.902 134.462 254.51 133.805C254.118 133.149 253.564 132.638 252.848 132.271C252.141 131.905 251.305 131.722 250.342 131.722C249.439 131.722 248.587 131.888 247.786 132.22C246.993 132.544 246.345 133.017 245.842 133.639C245.339 134.253 245.067 134.994 245.024 135.864H241.956C242.007 134.491 242.42 133.29 243.196 132.259C243.972 131.219 244.986 130.409 246.239 129.83C247.5 129.25 248.885 128.96 250.393 128.96C252.013 128.96 253.402 129.288 254.561 129.945C255.72 130.592 256.611 131.449 257.233 132.514C257.855 133.58 258.166 134.73 258.166 135.966C258.166 137.44 257.778 138.697 257.003 139.737C256.236 140.777 255.192 141.497 253.871 141.898V142.102C255.524 142.375 256.815 143.078 257.744 144.212C258.673 145.337 259.138 146.73 259.138 148.392C259.138 149.815 258.75 151.094 257.974 152.227C257.207 153.352 256.159 154.239 254.83 154.886C253.5 155.534 251.987 155.858 250.291 155.858ZM266.616 152.151C265.986 152.151 265.445 151.925 264.993 151.473C264.541 151.021 264.315 150.48 264.315 149.849C264.315 149.219 264.541 148.678 264.993 148.226C265.445 147.774 265.986 147.548 266.616 147.548C267.247 147.548 267.788 147.774 268.24 148.226C268.692 148.678 268.918 149.219 268.918 149.849C268.918 150.267 268.811 150.651 268.598 151C268.393 151.349 268.116 151.631 267.767 151.844C267.426 152.048 267.043 152.151 266.616 152.151ZM266.616 138.906C265.986 138.906 265.445 138.68 264.993 138.229C264.541 137.777 264.315 137.236 264.315 136.605C264.315 135.974 264.541 135.433 264.993 134.982C265.445 134.53 265.986 134.304 266.616 134.304C267.247 134.304 267.788 134.53 268.24 134.982C268.692 135.433 268.918 135.974 268.918 136.605C268.918 137.023 268.811 137.406 268.598 137.756C268.393 138.105 268.116 138.386 267.767 138.599C267.426 138.804 267.043 138.906 266.616 138.906ZM282.82 155.858C280.894 155.858 279.254 155.334 277.898 154.286C276.543 153.229 275.508 151.699 274.792 149.696C274.076 147.685 273.718 145.256 273.718 142.409C273.718 139.58 274.076 137.163 274.792 135.161C275.516 133.149 276.556 131.615 277.911 130.558C279.275 129.493 280.911 128.96 282.82 128.96C284.729 128.96 286.362 129.493 287.717 130.558C289.08 131.615 290.12 133.149 290.836 135.161C291.56 137.163 291.923 139.58 291.923 142.409C291.923 145.256 291.565 147.685 290.849 149.696C290.133 151.699 289.097 153.229 287.742 154.286C286.387 155.334 284.746 155.858 282.82 155.858ZM282.82 153.045C284.729 153.045 286.212 152.125 287.269 150.284C288.326 148.443 288.854 145.818 288.854 142.409C288.854 140.142 288.612 138.212 288.126 136.618C287.648 135.024 286.958 133.81 286.055 132.974C285.16 132.139 284.082 131.722 282.82 131.722C280.928 131.722 279.45 132.655 278.384 134.521C277.319 136.379 276.786 139.009 276.786 142.409C276.786 144.676 277.025 146.602 277.502 148.188C277.979 149.773 278.665 150.979 279.56 151.805C280.464 152.632 281.55 153.045 282.82 153.045ZM305.32 155.858C303.394 155.858 301.754 155.334 300.398 154.286C299.043 153.229 298.008 151.699 297.292 149.696C296.576 147.685 296.218 145.256 296.218 142.409C296.218 139.58 296.576 137.163 297.292 135.161C298.016 133.149 299.056 131.615 300.411 130.558C301.775 129.493 303.411 128.96 305.32 128.96C307.229 128.96 308.862 129.493 310.217 130.558C311.58 131.615 312.62 133.149 313.336 135.161C314.06 137.163 314.423 139.58 314.423 142.409C314.423 145.256 314.065 147.685 313.349 149.696C312.633 151.699 311.597 153.229 310.242 154.286C308.887 155.334 307.246 155.858 305.32 155.858ZM305.32 153.045C307.229 153.045 308.712 152.125 309.769 150.284C310.826 148.443 311.354 145.818 311.354 142.409C311.354 140.142 311.112 138.212 310.626 136.618C310.148 135.024 309.458 133.81 308.555 132.974C307.66 132.139 306.582 131.722 305.32 131.722C303.428 131.722 301.95 132.655 300.884 134.521C299.819 136.379 299.286 139.009 299.286 142.409C299.286 144.676 299.525 146.602 300.002 148.188C300.479 149.773 301.165 150.979 302.06 151.805C302.964 152.632 304.05 153.045 305.32 153.045Z" fill="black"/>
<rect x="106.5" y="271.5" width="225" height="68" rx="12.5" fill="white"/>
<rect x="106.5" y="271.5" width="225" height="68" rx="12.5" stroke="#D2D2D2"/>
<path d="M150.375 302.831V322.32C150.375 322.503 150.879 322.642 151.511 322.642C152.132 322.642 152.647 322.492 152.647 322.32V302.831H150.375Z" fill="url(#paint47_linear_63_19)"/>
<path opacity="0.5" d="M150.375 302.831V322.32C150.375 322.503 150.879 322.642 151.511 322.642C152.132 322.642 152.647 322.492 152.647 322.32V302.831H150.375Z" fill="url(#paint48_radial_63_19)"/>
<path opacity="0.5" d="M150.375 302.831V313.042C150.375 313.224 150.879 313.363 151.511 313.363C152.132 313.363 152.647 313.213 152.647 313.042V302.831H150.375Z" fill="url(#paint49_linear_63_19)"/>
<path d="M151.511 307.45C156.783 307.45 161.057 303.176 161.057 297.903C161.057 292.631 156.783 288.357 151.511 288.357C146.238 288.357 141.964 292.631 141.964 297.903C141.964 303.176 146.238 307.45 151.511 307.45Z" fill="url(#paint50_radial_63_19)"/>
<path d="M152.132 307.45C155.748 307.45 158.679 303.176 158.679 297.903C158.679 292.631 155.748 288.357 152.132 288.357C148.517 288.357 145.586 292.631 145.586 297.903C145.586 303.176 148.517 307.45 152.132 307.45Z" fill="url(#paint51_linear_63_19)"/>
<path d="M159.878 293.307C159.332 299.211 154.361 303.839 148.307 303.839C146.496 303.839 144.782 303.421 143.25 302.682C144.9 305.521 147.986 307.439 151.511 307.439C156.782 307.439 161.057 303.164 161.057 297.893C161.046 296.232 160.628 294.678 159.878 293.307Z" fill="url(#paint52_linear_63_19)"/>
<path d="M149.7 305.692C155.143 305.692 159.557 301.278 159.557 295.835C159.557 294.249 159.182 292.749 158.507 291.41C160.082 293.114 161.047 295.385 161.047 297.892C161.047 303.164 156.772 307.439 151.5 307.439C148.543 307.439 145.907 306.099 144.15 303.989C145.736 305.071 147.643 305.692 149.7 305.692Z" fill="url(#paint53_radial_63_19)"/>
<path d="M151.672 301.043C149.207 301.043 146.175 301.9 144.515 304.397C146.261 306.272 148.747 307.44 151.5 307.44C156.772 307.44 161.047 303.165 161.047 297.893C161.047 296.061 160.532 294.336 159.632 292.89C159.29 297.947 154.768 301.043 151.672 301.043Z" fill="url(#paint54_radial_63_19)"/>
<path d="M149.432 306.271C154.436 306.271 158.497 302.21 158.497 297.207C158.497 296.242 158.347 295.31 158.068 294.442C157.768 295.053 157.275 295.674 156.525 296.274C152.507 299.51 149.25 296.028 143.229 299.039C143.379 301.749 144.654 304.171 146.604 305.81C147.482 306.11 148.436 306.271 149.432 306.271Z" fill="url(#paint55_linear_63_19)"/>
<path d="M151.511 307.45C156.783 307.45 161.057 303.176 161.057 297.903C161.057 292.631 156.783 288.357 151.511 288.357C146.238 288.357 141.964 292.631 141.964 297.903C141.964 303.176 146.238 307.45 151.511 307.45Z" fill="url(#paint56_radial_63_19)"/>
<path opacity="0.24" d="M153.332 290.725C154.318 292.236 153.118 294.764 150.653 296.382C148.189 298 145.393 298.075 144.407 296.575C143.421 295.075 144.621 292.536 147.086 290.918C149.55 289.3 152.346 289.214 153.332 290.725Z" fill="url(#paint57_radial_63_19)"/>
<path d="M151.511 302.092C150.889 302.092 150.375 302.242 150.375 302.414V307.375C150.75 307.417 151.125 307.439 151.511 307.439C151.897 307.439 152.272 307.417 152.647 307.375V302.414C152.636 302.232 152.132 302.092 151.511 302.092Z" fill="url(#paint58_radial_63_19)"/>
<path d="M151.511 307.45C156.783 307.45 161.057 303.176 161.057 297.903C161.057 292.631 156.783 288.357 151.511 288.357C146.238 288.357 141.964 292.631 141.964 297.903C141.964 303.176 146.238 307.45 151.511 307.45Z" fill="url(#paint59_radial_63_19)"/>
<path d="M145.35 305.189C146.239 305.479 147.193 305.639 148.179 305.639C149.014 305.639 149.829 305.521 150.6 305.307C146.475 304.129 143.454 300.336 143.454 295.825C143.454 294.239 143.829 292.739 144.504 291.4C142.929 293.125 141.964 295.396 141.964 297.904C141.964 301.407 143.861 304.482 146.679 306.132C146.207 305.854 145.768 305.543 145.35 305.189Z" fill="url(#paint60_linear_63_19)"/>
<path d="M185.739 295.131V292.318H205.375V295.131H197.142V318.5H193.972V295.131H185.739ZM212.966 318.96C211.721 318.96 210.592 318.726 209.578 318.257C208.564 317.78 207.758 317.094 207.162 316.199C206.565 315.295 206.267 314.205 206.267 312.926C206.267 311.801 206.488 310.889 206.931 310.19C207.375 309.483 207.967 308.929 208.708 308.528C209.45 308.128 210.268 307.83 211.163 307.634C212.066 307.429 212.974 307.267 213.886 307.148C215.079 306.994 216.047 306.879 216.788 306.803C217.538 306.717 218.083 306.577 218.424 306.381C218.774 306.185 218.949 305.844 218.949 305.358V305.256C218.949 303.994 218.603 303.014 217.913 302.315C217.231 301.616 216.196 301.267 214.806 301.267C213.366 301.267 212.237 301.582 211.419 302.213C210.6 302.844 210.025 303.517 209.693 304.233L206.829 303.21C207.341 302.017 208.022 301.088 208.875 300.423C209.735 299.75 210.673 299.281 211.687 299.017C212.71 298.744 213.716 298.608 214.704 298.608C215.335 298.608 216.059 298.685 216.877 298.838C217.704 298.983 218.501 299.286 219.268 299.746C220.044 300.206 220.687 300.901 221.199 301.83C221.71 302.759 221.966 304.003 221.966 305.562V318.5H218.949V315.841H218.795C218.591 316.267 218.25 316.723 217.772 317.209C217.295 317.695 216.66 318.108 215.868 318.449C215.075 318.79 214.108 318.96 212.966 318.96ZM213.426 316.25C214.619 316.25 215.625 316.016 216.443 315.547C217.27 315.078 217.892 314.473 218.309 313.732C218.735 312.99 218.949 312.21 218.949 311.392V308.631C218.821 308.784 218.539 308.925 218.105 309.053C217.679 309.172 217.184 309.278 216.622 309.372C216.068 309.457 215.527 309.534 214.998 309.602C214.478 309.662 214.056 309.713 213.733 309.756C212.949 309.858 212.216 310.024 211.534 310.254C210.86 310.476 210.315 310.812 209.897 311.264C209.488 311.707 209.284 312.312 209.284 313.08C209.284 314.128 209.672 314.92 210.447 315.457C211.231 315.986 212.224 316.25 213.426 316.25ZM227.881 318.5V292.318H230.898V301.983H231.154C231.376 301.642 231.683 301.207 232.075 300.679C232.475 300.142 233.046 299.665 233.788 299.247C234.538 298.821 235.552 298.608 236.83 298.608C238.484 298.608 239.941 299.021 241.202 299.848C242.464 300.675 243.448 301.847 244.156 303.364C244.863 304.881 245.217 306.67 245.217 308.733C245.217 310.812 244.863 312.615 244.156 314.141C243.448 315.658 242.468 316.834 241.215 317.669C239.962 318.496 238.518 318.909 236.881 318.909C235.62 318.909 234.61 318.7 233.852 318.283C233.093 317.857 232.509 317.375 232.1 316.838C231.691 316.293 231.376 315.841 231.154 315.483H230.796V318.5H227.881ZM230.847 308.682C230.847 310.165 231.065 311.473 231.499 312.607C231.934 313.732 232.569 314.614 233.404 315.253C234.239 315.884 235.262 316.199 236.472 316.199C237.734 316.199 238.786 315.866 239.63 315.202C240.482 314.528 241.121 313.625 241.548 312.491C241.982 311.349 242.2 310.08 242.2 308.682C242.2 307.301 241.987 306.057 241.56 304.949C241.143 303.832 240.508 302.95 239.656 302.303C238.812 301.646 237.751 301.318 236.472 301.318C235.245 301.318 234.214 301.629 233.379 302.251C232.543 302.865 231.913 303.726 231.487 304.834C231.06 305.933 230.847 307.216 230.847 308.682ZM252.849 292.318V318.5H249.832V292.318H252.849ZM266.608 318.909C264.716 318.909 263.083 318.491 261.711 317.656C260.348 316.812 259.295 315.636 258.554 314.128C257.821 312.611 257.454 310.847 257.454 308.835C257.454 306.824 257.821 305.051 258.554 303.517C259.295 301.974 260.326 300.773 261.647 299.912C262.977 299.043 264.528 298.608 266.301 298.608C267.324 298.608 268.333 298.778 269.331 299.119C270.328 299.46 271.235 300.014 272.054 300.781C272.872 301.54 273.524 302.545 274.01 303.798C274.495 305.051 274.738 306.594 274.738 308.426V309.705H259.602V307.097H271.67C271.67 305.989 271.449 305 271.005 304.131C270.571 303.261 269.949 302.575 269.139 302.072C268.338 301.57 267.392 301.318 266.301 301.318C265.099 301.318 264.059 301.616 263.181 302.213C262.312 302.801 261.643 303.568 261.174 304.514C260.706 305.46 260.471 306.474 260.471 307.557V309.295C260.471 310.778 260.727 312.036 261.238 313.067C261.758 314.089 262.478 314.869 263.399 315.406C264.319 315.935 265.389 316.199 266.608 316.199C267.4 316.199 268.116 316.088 268.755 315.866C269.403 315.636 269.961 315.295 270.43 314.844C270.899 314.384 271.261 313.812 271.517 313.131L274.431 313.949C274.125 314.938 273.609 315.807 272.885 316.557C272.16 317.298 271.265 317.878 270.2 318.295C269.135 318.705 267.937 318.909 266.608 318.909ZM297.583 318.858C296.083 318.858 294.733 318.56 293.531 317.963C292.329 317.366 291.366 316.548 290.642 315.509C289.917 314.469 289.521 313.284 289.453 311.955H292.521C292.64 313.139 293.177 314.119 294.132 314.895C295.095 315.662 296.245 316.045 297.583 316.045C298.657 316.045 299.612 315.794 300.447 315.291C301.291 314.788 301.951 314.098 302.429 313.22C302.914 312.334 303.157 311.332 303.157 310.216C303.157 309.074 302.906 308.055 302.403 307.161C301.909 306.257 301.227 305.545 300.358 305.026C299.488 304.506 298.495 304.241 297.379 304.233C296.578 304.224 295.755 304.348 294.912 304.604C294.068 304.851 293.373 305.17 292.828 305.562L289.862 305.205L291.447 292.318H305.049V295.131H294.106L293.186 302.852H293.339C293.876 302.426 294.549 302.072 295.359 301.791C296.169 301.51 297.012 301.369 297.89 301.369C299.493 301.369 300.92 301.753 302.173 302.52C303.434 303.278 304.423 304.318 305.139 305.639C305.863 306.96 306.225 308.469 306.225 310.165C306.225 311.835 305.85 313.327 305.1 314.639C304.359 315.943 303.336 316.974 302.032 317.733C300.728 318.483 299.245 318.858 297.583 318.858Z" fill="black"/>
</g>
</g>
<defs>
<filter id="filter0_i_63_19" x="0" y="0" width="372" height="372" filterUnits="userSpaceOnUse" color-interpolation-filters="sRGB">
<feFlood flood-opacity="0" result="BackgroundImageFix"/>
<feBlend mode="normal" in="SourceGraphic" in2="BackgroundImageFix" result="shape"/>
<feColorMatrix in="SourceAlpha" type="matrix" values="0 0 0 0 0 0 0 0 0 0 0 0 0 0 0 0 0 0 127 0" result="hardAlpha"/>
<feOffset dx="4" dy="4"/>
<feGaussianBlur stdDeviation="10.3"/>
<feComposite in2="hardAlpha" operator="arithmetic" k2="-1" k3="1"/>
<feColorMatrix type="matrix" values="0 0 0 0 0 0 0 0 0 0 0 0 0 0 0 0 0 0 0.02 0"/>
<feBlend mode="normal" in2="shape" result="effect1_innerShadow_63_19"/>
</filter>
<linearGradient id="paint0_linear_63_19" x1="184" y1="0" x2="184" y2="368" gradientUnits="userSpaceOnUse">
<stop stop-color="#E5E7EB"/>
<stop offset="1" stop-color="#EFEFEF"/>
</linearGradient>
<linearGradient id="paint1_linear_63_19" x1="140.035" y1="62.9827" x2="141.428" y2="78.9469" gradientUnits="userSpaceOnUse">
<stop stop-color="white"/>
<stop offset="1" stop-color="#CBD4DB"/>
</linearGradient>
<linearGradient id="paint2_linear_63_19" x1="139.575" y1="43.9683" x2="141.048" y2="66.5878" gradientUnits="userSpaceOnUse">
<stop stop-color="white"/>
<stop offset="1" stop-color="#E7EBEE"/>
</linearGradient>
<linearGradient id="paint3_linear_63_19" x1="139.725" y1="69.0926" x2="141.489" y2="47.3687" gradientUnits="userSpaceOnUse">
<stop stop-color="white"/>
<stop offset="1" stop-color="#E7EBEE"/>
</linearGradient>
<radialGradient id="paint4_radial_63_19" cx="0" cy="0" r="1" gradientUnits="userSpaceOnUse" gradientTransform="translate(141.505 52.2341) rotate(8.70783) scale(25.9277 14.7855)">
<stop offset="0.0296695" stop-color="#FF0000"/>
<stop offset="1" stop-color="#C20000"/>
</radialGradient>
<linearGradient id="paint5_linear_63_19" x1="131.845" y1="35.445" x2="139.773" y2="53.6593" gradientUnits="userSpaceOnUse">
<stop stop-color="#FF0000"/>
<stop offset="1" stop-color="#FF0000" stop-opacity="0"/>
</linearGradient>
<linearGradient id="paint6_linear_63_19" x1="135.37" y1="63.4637" x2="140.584" y2="80.1066" gradientUnits="userSpaceOnUse">
<stop/>
<stop offset="1" stop-color="#8EA5A8"/>
</linearGradient>
<linearGradient id="paint7_linear_63_19" x1="145.152" y1="60.3988" x2="150.366" y2="77.0417" gradientUnits="userSpaceOnUse">
<stop/>
<stop offset="1" stop-color="#8EA5A8"/>
</linearGradient>
<linearGradient id="paint8_linear_63_19" x1="136.447" y1="72.1967" x2="134.395" y2="55.7813" gradientUnits="userSpaceOnUse">
<stop/>
<stop offset="1" stop-color="#8EA5A8"/>
</linearGradient>
<linearGradient id="paint9_linear_63_19" x1="146.252" y1="75.9979" x2="142.495" y2="45.9428" gradientUnits="userSpaceOnUse">
<stop/>
<stop offset="1" stop-color="#8EA5A8"/>
</linearGradient>
<linearGradient id="paint10_linear_63_19" x1="35.458" y1="228.942" x2="42.867" y2="213.198" gradientUnits="userSpaceOnUse">
<stop offset="0.00132565" stop-color="#FFCB4B"/>
<stop offset="1" stop-color="#FFD748"/>
</linearGradient>
<linearGradient id="paint11_linear_63_19" x1="42.3968" y1="221.194" x2="64.9215" y2="239.402" gradientUnits="userSpaceOnUse">
<stop stop-color="#FFBC47" stop-opacity="0"/>
<stop offset="1" stop-color="#C86F34"/>
</linearGradient>
<linearGradient id="paint12_linear_63_19" x1="34.2131" y1="228.356" x2="41.6221" y2="212.612" gradientUnits="userSpaceOnUse">
<stop stop-color="#FFBB47" stop-opacity="0.9686"/>
<stop offset="0.0026513" stop-color="#FFBA47"/>
<stop offset="1" stop-color="#FFD748" stop-opacity="0"/>
</linearGradient>
<linearGradient id="paint13_linear_63_19" x1="38.3073" y1="215.166" x2="29.7076" y2="241.892" gradientUnits="userSpaceOnUse">
<stop stop-color="#FFBC47" stop-opacity="0"/>
<stop offset="1" stop-color="#C86F34"/>
</linearGradient>
<linearGradient id="paint14_linear_63_19" x1="28.0836" y1="216.116" x2="39.7925" y2="196.668" gradientUnits="userSpaceOnUse">
<stop stop-color="#FFBC47" stop-opacity="0"/>
<stop offset="1" stop-color="#C86F34"/>
</linearGradient>
<linearGradient id="paint15_linear_63_19" x1="44.0115" y1="222.683" x2="48.4768" y2="205.269" gradientUnits="userSpaceOnUse">
<stop stop-color="#FFBC47" stop-opacity="0"/>
<stop offset="1" stop-color="#C86F34"/>
</linearGradient>
<linearGradient id="paint16_linear_63_19" x1="56.9705" y1="216.973" x2="31.7005" y2="214.724" gradientUnits="userSpaceOnUse">
<stop offset="0.00132565" stop-color="#FFCB4B"/>
<stop offset="1" stop-color="#FFD748"/>
</linearGradient>
<linearGradient id="paint17_linear_63_19" x1="48.8355" y1="204.397" x2="47.0494" y2="239.92" gradientUnits="userSpaceOnUse">
<stop stop-color="#FFBC47" stop-opacity="0"/>
<stop offset="1" stop-color="#C86F34"/>
</linearGradient>
<linearGradient id="paint18_linear_63_19" x1="39.7731" y1="232.172" x2="41.7576" y2="228.335" gradientUnits="userSpaceOnUse">
<stop offset="0.00132565" stop-color="#FFCB4B"/>
<stop offset="1" stop-color="#FFD748"/>
</linearGradient>
<linearGradient id="paint19_linear_63_19" x1="42.8648" y1="233.771" x2="44.8493" y2="229.934" gradientUnits="userSpaceOnUse">
<stop offset="0.00132565" stop-color="#FFCB4B"/>
<stop offset="1" stop-color="#FFD748"/>
</linearGradient>
<linearGradient id="paint20_linear_63_19" x1="43.8706" y1="231.564" x2="31.5167" y2="231.464" gradientUnits="userSpaceOnUse">
<stop stop-color="#FFBC47" stop-opacity="0"/>
<stop offset="1" stop-color="#C86F34"/>
</linearGradient>
<linearGradient id="paint21_linear_63_19" x1="46.8125" y1="228.297" x2="33.2183" y2="247.051" gradientUnits="userSpaceOnUse">
<stop stop-color="#FFBC47" stop-opacity="0"/>
<stop offset="1" stop-color="#C86F34"/>
</linearGradient>
<linearGradient id="paint22_linear_63_19" x1="31.6822" y1="228.09" x2="35.6645" y2="225.055" gradientUnits="userSpaceOnUse">
<stop offset="0.00132565" stop-color="#FFCB4B"/>
<stop offset="1" stop-color="#FFD748"/>
</linearGradient>
<linearGradient id="paint23_linear_63_19" x1="36.3166" y1="230.591" x2="38.5963" y2="226.183" gradientUnits="userSpaceOnUse">
<stop offset="0.00132565" stop-color="#FFCB4B"/>
<stop offset="1" stop-color="#FFD748"/>
</linearGradient>
<linearGradient id="paint24_linear_63_19" x1="39.3202" y1="227.477" x2="21.5585" y2="225.592" gradientUnits="userSpaceOnUse">
<stop stop-color="#FFBC47" stop-opacity="0"/>
<stop offset="1" stop-color="#C86F34"/>
</linearGradient>
<linearGradient id="paint25_linear_63_19" x1="41.2616" y1="223.169" x2="25.8855" y2="244.381" gradientUnits="userSpaceOnUse">
<stop stop-color="#FFBC47" stop-opacity="0"/>
<stop offset="1" stop-color="#C86F34"/>
</linearGradient>
<linearGradient id="paint26_linear_63_19" x1="35.5701" y1="205.934" x2="41.5355" y2="224.446" gradientUnits="userSpaceOnUse">
<stop stop-color="#FFBC47" stop-opacity="0"/>
<stop offset="1" stop-color="#C86F34"/>
</linearGradient>
<radialGradient id="paint27_radial_63_19" cx="0" cy="0" r="1" gradientUnits="userSpaceOnUse" gradientTransform="translate(37.6549 212.335) rotate(-53.846) scale(3.53323 1.7213)">
<stop stop-color="#FBE07A"/>
<stop offset="0.2654" stop-color="#FCDF73" stop-opacity="0.7346"/>
<stop offset="0.6548" stop-color="#FDDB5F" stop-opacity="0.3452"/>
<stop offset="1" stop-color="#FFD748" stop-opacity="0"/>
</radialGradient>
<radialGradient id="paint28_radial_63_19" cx="0" cy="0" r="1" gradientUnits="userSpaceOnUse" gradientTransform="translate(27.6034 213.621) rotate(-66.2167) scale(3.7625 2.67801)">
<stop stop-color="#FBE07A"/>
<stop offset="0.2654" stop-color="#FCDF73" stop-opacity="0.7346"/>
<stop offset="0.6548" stop-color="#FDDB5F" stop-opacity="0.3452"/>
<stop offset="1" stop-color="#FFD748" stop-opacity="0"/>
</radialGradient>
<radialGradient id="paint29_radial_63_19" cx="0" cy="0" r="1" gradientUnits="userSpaceOnUse" gradientTransform="translate(47.446 213.193) rotate(17.5529) scale(3.7712 1.66405)">
<stop stop-color="#FBE07A"/>
<stop offset="0.2654" stop-color="#FCDF73" stop-opacity="0.7346"/>
<stop offset="0.6548" stop-color="#FDDB5F" stop-opacity="0.3452"/>
<stop offset="1" stop-color="#FFD748" stop-opacity="0"/>
</radialGradient>
<radialGradient id="paint30_radial_63_19" cx="0" cy="0" r="1" gradientUnits="userSpaceOnUse" gradientTransform="translate(56.147 214.896) rotate(56.3078) scale(3.32299 2.52928)">
<stop stop-color="#FBE07A"/>
<stop offset="0.2654" stop-color="#FCDF73" stop-opacity="0.7346"/>
<stop offset="0.6548" stop-color="#FDDB5F" stop-opacity="0.3452"/>
<stop offset="1" stop-color="#FFD748" stop-opacity="0"/>
</radialGradient>
<linearGradient id="paint31_linear_63_19" x1="193.692" y1="152.76" x2="181.478" y2="122.867" gradientUnits="userSpaceOnUse">
<stop stop-color="#8EA5A8"/>
<stop offset="1" stop-color="#CFDCDE"/>
</linearGradient>
<linearGradient id="paint32_linear_63_19" x1="178.73" y1="113.005" x2="213.98" y2="209.541" gradientUnits="userSpaceOnUse">
<stop stop-color="white"/>
<stop offset="1" stop-color="#A9BCBE"/>
</linearGradient>
<linearGradient id="paint33_linear_63_19" x1="173.905" y1="113.881" x2="199.905" y2="161.595" gradientUnits="userSpaceOnUse">
<stop stop-color="#8EA5A8"/>
<stop offset="1" stop-color="#DEE7E8"/>
</linearGradient>
<linearGradient id="paint34_linear_63_19" x1="201.273" y1="198.281" x2="187.771" y2="134.31" gradientUnits="userSpaceOnUse">
<stop stop-color="white"/>
<stop offset="1" stop-color="#A9BCBE"/>
</linearGradient>
<linearGradient id="paint35_linear_63_19" x1="187.846" y1="139.513" x2="202.203" y2="165.441" gradientUnits="userSpaceOnUse">
<stop stop-color="white"/>
<stop offset="1" stop-color="#CFDCDE"/>
</linearGradient>
<linearGradient id="paint36_linear_63_19" x1="197.103" y1="148.684" x2="186.727" y2="130.543" gradientUnits="userSpaceOnUse">
<stop stop-color="#A9BCBE" stop-opacity="0"/>
<stop offset="1" stop-color="#8EA5A8"/>
</linearGradient>
<linearGradient id="paint37_linear_63_19" x1="199.383" y1="150.468" x2="169.33" y2="138.897" gradientUnits="userSpaceOnUse">
<stop stop-color="#A9BCBE" stop-opacity="0"/>
<stop offset="1" stop-color="#8EA5A8"/>
</linearGradient>
<linearGradient id="paint38_linear_63_19" x1="189.097" y1="140.856" x2="179.24" y2="119.106" gradientUnits="userSpaceOnUse">
<stop stop-color="#A9BCBE" stop-opacity="0"/>
<stop offset="1" stop-color="#8EA5A8"/>
</linearGradient>
<linearGradient id="paint39_linear_63_19" x1="192.37" y1="153.112" x2="186.63" y2="144.067" gradientUnits="userSpaceOnUse">
<stop stop-color="#FF9214"/>
<stop offset="1" stop-color="#FF9D00"/>
</linearGradient>
<linearGradient id="paint40_linear_63_19" x1="189.5" y1="139.714" x2="189.5" y2="143.237" gradientUnits="userSpaceOnUse">
<stop stop-color="#FF9D00"/>
<stop offset="1" stop-color="#A3541E"/>
</linearGradient>
<linearGradient id="paint41_linear_63_19" x1="191.069" y1="144.972" x2="188.406" y2="140.775" gradientUnits="userSpaceOnUse">
<stop stop-color="#FF9214"/>
<stop offset="1" stop-color="#FF9D00"/>
</linearGradient>
<linearGradient id="paint42_linear_63_19" x1="185.576" y1="133.883" x2="194.308" y2="138.061" gradientUnits="userSpaceOnUse">
<stop stop-color="#BBCACC"/>
<stop offset="0.4708" stop-color="#939FA1" stop-opacity="0.75"/>
<stop offset="1" stop-color="#CFDCDE"/>
</linearGradient>
<linearGradient id="paint43_linear_63_19" x1="185.367" y1="134.32" x2="194.099" y2="138.499" gradientUnits="userSpaceOnUse">
<stop stop-color="#BBCACC"/>
<stop offset="0.4708" stop-color="#939FA1" stop-opacity="0.75"/>
<stop offset="1" stop-color="#CFDCDE"/>
</linearGradient>
<linearGradient id="paint44_linear_63_19" x1="186.004" y1="132.989" x2="194.736" y2="137.168" gradientUnits="userSpaceOnUse">
<stop stop-color="#BBCACC"/>
<stop offset="0.4708" stop-color="#939FA1" stop-opacity="0.75"/>
<stop offset="1" stop-color="#CFDCDE"/>
</linearGradient>
<linearGradient id="paint45_linear_63_19" x1="186.199" y1="132.581" x2="194.931" y2="136.76" gradientUnits="userSpaceOnUse">
<stop stop-color="#BBCACC"/>
<stop offset="0.4708" stop-color="#939FA1" stop-opacity="0.75"/>
<stop offset="1" stop-color="#CFDCDE"/>
</linearGradient>
<linearGradient id="paint46_linear_63_19" x1="185.769" y1="133.479" x2="194.501" y2="137.658" gradientUnits="userSpaceOnUse">
<stop stop-color="#BBCACC"/>
<stop offset="0.4708" stop-color="#939FA1" stop-opacity="0.75"/>
<stop offset="1" stop-color="#CFDCDE"/>
</linearGradient>
<linearGradient id="paint47_linear_63_19" x1="144.37" y1="315.259" x2="159.579" y2="309.656" gradientUnits="userSpaceOnUse">
<stop stop-color="#939FA1"/>
<stop offset="0.1854" stop-color="#8E999B"/>
<stop offset="0.4439" stop-color="#7F8788"/>
<stop offset="0.7438" stop-color="#666B6B"/>
<stop offset="1" stop-color="#4D4D4C"/>
</linearGradient>
<radialGradient id="paint48_radial_63_19" cx="0" cy="0" r="1" gradientUnits="userSpaceOnUse" gradientTransform="translate(151.384 314.407) rotate(89.2772) scale(9.60713 1.34264)">
<stop stop-color="#DEE7E8" stop-opacity="0.5"/>
<stop offset="0.9111" stop-color="#DEE7E8" stop-opacity="0"/>
</radialGradient>
<linearGradient id="paint49_linear_63_19" x1="151.877" y1="312.681" x2="150.978" y2="301.158" gradientUnits="userSpaceOnUse">
<stop stop-opacity="0"/>
<stop offset="1"/>
</linearGradient>
<radialGradient id="paint50_radial_63_19" cx="0" cy="0" r="1" gradientUnits="userSpaceOnUse" gradientTransform="translate(150.463 297.688) scale(10.4361)">
<stop stop-color="#FC5B54"/>
<stop offset="0.2984" stop-color="#FC554E"/>
<stop offset="0.7134" stop-color="#FA433F"/>
<stop offset="1" stop-color="#F93230"/>
</radialGradient>
<linearGradient id="paint51_linear_63_19" x1="148.262" y1="300.527" x2="165.244" y2="288.984" gradientUnits="userSpaceOnUse">
<stop offset="0.0322279" stop-color="#FEBCB9" stop-opacity="0"/>
<stop offset="1" stop-color="#FF1C1C"/>
</linearGradient>
<linearGradient id="paint52_linear_63_19" x1="153.329" y1="300.283" x2="160.256" y2="308.903" gradientUnits="userSpaceOnUse">
<stop stop-color="#FF5C5C" stop-opacity="0"/>
<stop offset="1" stop-color="#FF0000"/>
</linearGradient>
<radialGradient id="paint53_radial_63_19" cx="0" cy="0" r="1" gradientUnits="userSpaceOnUse" gradientTransform="translate(142.718 289.163) scale(21.576)">
<stop stop-color="#FF9696"/>
<stop offset="0.9987" stop-color="#C20000" stop-opacity="0"/>
</radialGradient>
<radialGradient id="paint54_radial_63_19" cx="0" cy="0" r="1" gradientUnits="userSpaceOnUse" gradientTransform="translate(148.643 286.968) scale(15.79)">
<stop stop-color="#FF0000"/>
<stop offset="1" stop-color="#FF5C5C" stop-opacity="0"/>
</radialGradient>
<linearGradient id="paint55_linear_63_19" x1="145.686" y1="294.68" x2="170.042" y2="314.65" gradientUnits="userSpaceOnUse">
<stop stop-color="#FEBCB9" stop-opacity="0"/>
<stop offset="1" stop-color="#FC5B54"/>
</linearGradient>
<radialGradient id="paint56_radial_63_19" cx="0" cy="0" r="1" gradientUnits="userSpaceOnUse" gradientTransform="translate(151.566 294.046) scale(14.9302)">
<stop stop-color="#FF3838" stop-opacity="0"/>
<stop offset="0.2302" stop-color="#F93232" stop-opacity="0.1727"/>
<stop offset="0.5512" stop-color="#E62121" stop-opacity="0.4134"/>
<stop offset="0.9239" stop-color="#C90606" stop-opacity="0.6929"/>
<stop offset="1" stop-color="#C20000" stop-opacity="0.75"/>
</radialGradient>
<radialGradient id="paint57_radial_63_19" cx="0" cy="0" r="1" gradientUnits="userSpaceOnUse" gradientTransform="translate(148.833 293.652) rotate(-32.7373) scale(5.27256 2.98746)">
<stop stop-color="white"/>
<stop offset="1" stop-color="white" stop-opacity="0"/>
</radialGradient>
<radialGradient id="paint58_radial_63_19" cx="0" cy="0" r="1" gradientUnits="userSpaceOnUse" gradientTransform="translate(146.206 314.057) scale(17.6975)">
<stop stop-color="#FF3838" stop-opacity="0"/>
<stop offset="0.2302" stop-color="#F93232" stop-opacity="0.1727"/>
<stop offset="0.5512" stop-color="#E62121" stop-opacity="0.4134"/>
<stop offset="0.9239" stop-color="#C90606" stop-opacity="0.6929"/>
<stop offset="1" stop-color="#C20000" stop-opacity="0.75"/>
</radialGradient>
<radialGradient id="paint59_radial_63_19" cx="0" cy="0" r="1" gradientUnits="userSpaceOnUse" gradientTransform="translate(151.34 297.669) scale(9.88907)">
<stop offset="0.873" stop-color="#C20000" stop-opacity="0"/>
<stop offset="0.9025" stop-color="#BC0101" stop-opacity="0.1745"/>
<stop offset="0.9437" stop-color="#A90302" stop-opacity="0.4178"/>
<stop offset="0.9916" stop-color="#8C0705" stop-opacity="0.7004"/>
<stop offset="1" stop-color="#860805" stop-opacity="0.75"/>
</radialGradient>
<linearGradient id="paint60_linear_63_19" x1="147.495" y1="296.678" x2="142.159" y2="315.507" gradientUnits="userSpaceOnUse">
<stop stop-color="#F78174" stop-opacity="0"/>
<stop offset="1" stop-color="#F78174"/>
</linearGradient>
<clipPath id="clip0_63_19">
<rect width="368" height="368" rx="35" fill="white"/>
</clipPath>
</defs>
</svg>
