<svg width="368" height="368" viewBox="0 0 368 368" fill="none" xmlns="http://www.w3.org/2000/svg">
<g filter="url(#filter0_i_63_193)">
<g clip-path="url(#clip0_63_193)">
<rect width="368" height="368" rx="35" fill="url(#paint0_linear_63_193)"/>
<g clip-path="url(#clip1_63_193)">
<rect x="29" y="-136" width="357" height="478" rx="47" fill="white"/>
<rect x="60.5" y="18.5" width="331" height="115" rx="5.5" fill="white"/>
<rect x="60.5" y="18.5" width="331" height="115" rx="5.5" stroke="#E5E7EB"/>
<path d="M84.6605 42.5078V41.0909H93.1033V42.5078H89.6996V52H88.0589V42.5078H84.6605ZM96.1089 52.1811C95.5905 52.1811 95.1217 52.0852 94.7027 51.8935C94.2836 51.6982 93.9516 51.4158 93.7066 51.0465C93.4651 50.6772 93.3444 50.2244 93.3444 49.6882C93.3444 49.2266 93.4331 48.8466 93.6107 48.5483C93.7883 48.25 94.028 48.0138 94.3298 47.8398C94.6317 47.6658 94.969 47.5344 95.3419 47.4457C95.7148 47.3569 96.0947 47.2894 96.4818 47.2433C96.9719 47.1864 97.3696 47.1403 97.675 47.1048C97.9804 47.0657 98.2023 47.0036 98.3408 46.9183C98.4793 46.8331 98.5486 46.6946 98.5486 46.5028V46.4656C98.5486 46.0004 98.4172 45.6399 98.1544 45.3842C97.8952 45.1286 97.5081 45.0007 96.9932 45.0007C96.4569 45.0007 96.0344 45.1197 95.7254 45.3576C95.42 45.592 95.2087 45.853 95.0915 46.1406L93.5947 45.7997C93.7723 45.3026 94.0315 44.9013 94.3724 44.5959C94.7169 44.2869 95.1128 44.0632 95.5603 43.9247C96.0077 43.7827 96.4782 43.7116 96.9719 43.7116C97.2986 43.7116 97.6448 43.7507 98.0106 43.8288C98.3799 43.9034 98.7243 44.0419 99.0439 44.2443C99.3671 44.4467 99.6317 44.7362 99.8376 45.1126C100.044 45.4854 100.147 45.9702 100.147 46.5668V52H98.5912V50.8814H98.5273C98.4243 51.0874 98.2698 51.2898 98.0638 51.4886C97.8579 51.6875 97.5933 51.8526 97.2702 51.984C96.947 52.1154 96.5599 52.1811 96.1089 52.1811ZM96.4552 50.9027C96.8955 50.9027 97.2719 50.8157 97.5844 50.6417C97.9005 50.4677 98.1402 50.2404 98.3035 49.9599C98.4704 49.6758 98.5539 49.3722 98.5539 49.049V47.9943C98.4971 48.0511 98.387 48.1044 98.2236 48.1541C98.0638 48.2003 97.8809 48.2411 97.675 48.2766C97.469 48.3086 97.2684 48.3388 97.0731 48.3672C96.8778 48.392 96.7144 48.4134 96.583 48.4311C96.2741 48.4702 95.9917 48.5359 95.7361 48.6282C95.4839 48.7205 95.2815 48.8537 95.1288 49.0277C94.9797 49.1982 94.9051 49.4254 94.9051 49.7095C94.9051 50.1037 95.0507 50.402 95.3419 50.6044C95.6331 50.8033 96.0042 50.9027 96.4552 50.9027ZM102.396 52V41.0909H103.988V45.1445H104.084C104.177 44.9741 104.31 44.777 104.484 44.5533C104.658 44.3295 104.899 44.1342 105.208 43.9673C105.517 43.7969 105.926 43.7116 106.433 43.7116C107.094 43.7116 107.683 43.8786 108.202 44.2124C108.72 44.5462 109.127 45.0273 109.422 45.6559C109.72 46.2844 109.869 47.0408 109.869 47.9251C109.869 48.8093 109.722 49.5675 109.427 50.1996C109.132 50.8281 108.727 51.3129 108.213 51.6538C107.698 51.9911 107.11 52.1598 106.449 52.1598C105.952 52.1598 105.546 52.0763 105.23 51.9094C104.917 51.7425 104.672 51.5472 104.494 51.3235C104.317 51.0998 104.18 50.9009 104.084 50.7269H103.951V52H102.396ZM103.956 47.9091C103.956 48.4844 104.04 48.9886 104.207 49.4219C104.374 49.8551 104.615 50.1942 104.931 50.4393C105.247 50.6808 105.634 50.8015 106.093 50.8015C106.568 50.8015 106.966 50.6754 107.286 50.4233C107.605 50.1676 107.847 49.8214 108.01 49.3846C108.177 48.9478 108.26 48.456 108.26 47.9091C108.26 47.3693 108.179 46.8846 108.015 46.4549C107.856 46.0252 107.614 45.6861 107.291 45.4375C106.971 45.1889 106.572 45.0646 106.093 45.0646C105.631 45.0646 105.24 45.1836 104.921 45.4215C104.605 45.6594 104.365 45.9915 104.202 46.4176C104.038 46.8437 103.956 47.3409 103.956 47.9091ZM113.25 41.0909V52H111.658V41.0909H113.25ZM118.919 52.1651C118.113 52.1651 117.419 51.9929 116.836 51.6484C116.258 51.3004 115.81 50.8121 115.494 50.1836C115.182 49.5515 115.025 48.8111 115.025 47.9624C115.025 47.1243 115.182 46.3857 115.494 45.7464C115.81 45.1072 116.251 44.6083 116.815 44.2496C117.383 43.891 118.047 43.7116 118.807 43.7116C119.269 43.7116 119.716 43.788 120.15 43.9407C120.583 44.0934 120.972 44.3331 121.316 44.6598C121.661 44.9865 121.932 45.4109 122.131 45.9329C122.33 46.4513 122.43 47.0817 122.43 47.8239V48.3885H115.926V47.1953H120.869C120.869 46.7763 120.784 46.4052 120.613 46.082C120.443 45.7553 120.203 45.4979 119.894 45.3097C119.589 45.1214 119.23 45.0273 118.818 45.0273C118.371 45.0273 117.98 45.1374 117.646 45.3576C117.316 45.5742 117.06 45.8583 116.879 46.2099C116.702 46.5579 116.613 46.9361 116.613 47.3445V48.2766C116.613 48.8235 116.709 49.2887 116.9 49.6722C117.096 50.0558 117.367 50.3487 117.715 50.5511C118.063 50.75 118.47 50.8494 118.935 50.8494C119.237 50.8494 119.512 50.8068 119.761 50.7216C120.009 50.6328 120.224 50.5014 120.405 50.3274C120.586 50.1534 120.725 49.9386 120.821 49.6829L122.328 49.9545C122.208 50.3984 121.991 50.7873 121.678 51.1211C121.369 51.4513 120.981 51.7088 120.512 51.8935C120.047 52.0746 119.516 52.1651 118.919 52.1651ZM128.145 52V50.8068L131.836 46.9822C132.231 46.5668 132.556 46.2028 132.811 45.8903C133.07 45.5742 133.264 45.2741 133.392 44.9901C133.52 44.706 133.584 44.4041 133.584 44.0845C133.584 43.7223 133.498 43.4098 133.328 43.147C133.157 42.8807 132.925 42.6765 132.63 42.5344C132.335 42.3888 132.003 42.3161 131.634 42.3161C131.243 42.3161 130.903 42.396 130.611 42.5558C130.32 42.7156 130.096 42.9411 129.94 43.2322C129.784 43.5234 129.706 43.8643 129.706 44.255H128.134C128.134 43.5909 128.287 43.0103 128.593 42.5131C128.898 42.016 129.317 41.6307 129.85 41.3572C130.382 41.0803 130.988 40.9418 131.666 40.9418C132.351 40.9418 132.955 41.0785 133.477 41.3519C134.003 41.6218 134.413 41.9911 134.708 42.4599C135.002 42.9251 135.15 43.4506 135.15 44.0366C135.15 44.4414 135.073 44.8374 134.921 45.2244C134.771 45.6115 134.51 46.043 134.138 46.5188C133.765 46.9911 133.246 47.5646 132.582 48.2393L130.414 50.5085V50.5884H135.325V52H128.145Z" fill="black"/>
<path d="M91.3494 72.5455H92.4943V78.8054C92.4943 79.4517 92.342 80.0288 92.0373 80.5366C91.7357 81.0413 91.3094 81.4399 90.7585 81.7322C90.2076 82.0215 89.5613 82.1662 88.8196 82.1662C88.0779 82.1662 87.4316 82.0215 86.8807 81.7322C86.3298 81.4399 85.902 81.0413 85.5973 80.5366C85.2957 80.0288 85.1449 79.4517 85.1449 78.8054V72.5455H86.2898V78.7131C86.2898 79.1747 86.3913 79.5856 86.5945 79.9457C86.7976 80.3027 87.0869 80.5843 87.4624 80.7905C87.8409 80.9936 88.2933 81.0952 88.8196 81.0952C89.3459 81.0952 89.7983 80.9936 90.1768 80.7905C90.5554 80.5843 90.8447 80.3027 91.0447 79.9457C91.2479 79.5856 91.3494 79.1747 91.3494 78.7131V72.5455ZM94.6329 84.6591V74.9091H95.6855V76.0355H95.8147C95.8947 75.9124 96.0055 75.7554 96.1471 75.5646C96.2918 75.3707 96.498 75.1984 96.7657 75.0476C97.0365 74.8937 97.4028 74.8168 97.8644 74.8168C98.4615 74.8168 98.9878 74.966 99.4433 75.2646C99.8988 75.5631 100.254 75.9863 100.51 76.5341C100.765 77.0819 100.893 77.7282 100.893 78.473C100.893 79.224 100.765 79.8749 100.51 80.4258C100.254 80.9736 99.9003 81.3983 99.4479 81.6999C98.9955 81.9985 98.4738 82.1477 97.8829 82.1477C97.4274 82.1477 97.0627 82.0723 96.7888 81.9215C96.5149 81.7676 96.3041 81.5937 96.1563 81.3999C96.0086 81.2029 95.8947 81.0398 95.8147 80.9105H95.7224V84.6591H94.6329ZM95.7039 78.4545C95.7039 78.9901 95.7824 79.4625 95.9394 79.8718C96.0963 80.2781 96.3256 80.5966 96.6272 80.8274C96.9288 81.0552 97.2981 81.169 97.7352 81.169C98.1907 81.169 98.5708 81.049 98.8754 80.8089C99.1832 80.5658 99.414 80.2396 99.5679 79.8303C99.7249 79.4179 99.8034 78.9593 99.8034 78.4545C99.8034 77.956 99.7264 77.5066 99.5725 77.1065C99.4217 76.7034 99.1924 76.3848 98.8847 76.1509C98.58 75.9139 98.1968 75.7955 97.7352 75.7955C97.292 75.7955 96.9196 75.9078 96.618 76.1325C96.3164 76.354 96.0886 76.6649 95.9347 77.065C95.7809 77.462 95.7039 77.9252 95.7039 78.4545ZM109.295 74.9091V75.8324H105.62V74.9091H109.295ZM106.691 73.2102H107.781V79.9688C107.781 80.2765 107.825 80.5073 107.915 80.6612C108.007 80.812 108.124 80.9136 108.265 80.9659C108.41 81.0152 108.562 81.0398 108.722 81.0398C108.842 81.0398 108.941 81.0336 109.018 81.0213C109.095 81.0059 109.156 80.9936 109.203 80.9844L109.424 81.9631C109.35 81.9908 109.247 82.0185 109.115 82.0462C108.982 82.0769 108.815 82.0923 108.612 82.0923C108.304 82.0923 108.002 82.0262 107.707 81.8938C107.414 81.7615 107.171 81.5599 106.977 81.2891C106.787 81.0182 106.691 80.6766 106.691 80.2642V73.2102ZM113.738 82.1477C113.098 82.1477 112.536 81.9954 112.053 81.6907C111.573 81.386 111.198 80.9598 110.927 80.4119C110.659 79.8641 110.525 79.224 110.525 78.4915C110.525 77.7528 110.659 77.1081 110.927 76.5572C111.198 76.0063 111.573 75.5785 112.053 75.2738C112.536 74.9691 113.098 74.8168 113.738 74.8168C114.378 74.8168 114.938 74.9691 115.419 75.2738C115.902 75.5785 116.277 76.0063 116.545 76.5572C116.816 77.1081 116.951 77.7528 116.951 78.4915C116.951 79.224 116.816 79.8641 116.545 80.4119C116.277 80.9598 115.902 81.386 115.419 81.6907C114.938 81.9954 114.378 82.1477 113.738 82.1477ZM113.738 81.169C114.224 81.169 114.625 81.0444 114.938 80.7951C115.252 80.5458 115.485 80.218 115.636 79.8118C115.786 79.4055 115.862 78.9654 115.862 78.4915C115.862 78.0175 115.786 77.5759 115.636 77.1665C115.485 76.7572 115.252 76.4264 114.938 76.174C114.625 75.9216 114.224 75.7955 113.738 75.7955C113.252 75.7955 112.852 75.9216 112.538 76.174C112.224 76.4264 111.992 76.7572 111.841 77.1665C111.69 77.5759 111.615 78.0175 111.615 78.4915C111.615 78.9654 111.69 79.4055 111.841 79.8118C111.992 80.218 112.224 80.5458 112.538 80.7951C112.852 81.0444 113.252 81.169 113.738 81.169ZM122.031 80.0611V79.1193L126.185 72.5455H126.869V74.0043H126.407L123.268 78.9716V79.0455H128.863V80.0611H122.031ZM126.481 82V79.7749V79.3363V72.5455H127.57V82H126.481ZM134.268 84.6591V74.9091H135.32V76.0355H135.449C135.53 75.9124 135.64 75.7554 135.782 75.5646C135.927 75.3707 136.133 75.1984 136.4 75.0476C136.671 74.8937 137.038 74.8168 137.499 74.8168C138.096 74.8168 138.623 74.966 139.078 75.2646C139.534 75.5631 139.889 75.9863 140.144 76.5341C140.4 77.0819 140.528 77.7282 140.528 78.473C140.528 79.224 140.4 79.8749 140.144 80.4258C139.889 80.9736 139.535 81.3983 139.083 81.6999C138.63 81.9985 138.109 82.1477 137.518 82.1477C137.062 82.1477 136.697 82.0723 136.424 81.9215C136.15 81.7676 135.939 81.5937 135.791 81.3999C135.643 81.2029 135.53 81.0398 135.449 80.9105H135.357V84.6591H134.268ZM135.339 78.4545C135.339 78.9901 135.417 79.4625 135.574 79.8718C135.731 80.2781 135.96 80.5966 136.262 80.8274C136.564 81.0552 136.933 81.169 137.37 81.169C137.825 81.169 138.206 81.049 138.51 80.8089C138.818 80.5658 139.049 80.2396 139.203 79.8303C139.36 79.4179 139.438 78.9593 139.438 78.4545C139.438 77.956 139.361 77.5066 139.207 77.1065C139.056 76.7034 138.827 76.3848 138.519 76.1509C138.215 75.9139 137.832 75.7955 137.37 75.7955C136.927 75.7955 136.554 75.9078 136.253 76.1325C135.951 76.354 135.723 76.6649 135.57 77.065C135.416 77.462 135.339 77.9252 135.339 78.4545ZM145.163 82.1477C144.479 82.1477 143.89 81.9969 143.394 81.6953C142.902 81.3906 142.522 80.9659 142.254 80.4212C141.989 79.8733 141.857 79.2363 141.857 78.5099C141.857 77.7836 141.989 77.1435 142.254 76.5895C142.522 76.0324 142.894 75.5985 143.371 75.2876C143.851 74.9737 144.412 74.8168 145.052 74.8168C145.421 74.8168 145.786 74.8783 146.146 75.0014C146.506 75.1245 146.834 75.3246 147.129 75.6016C147.425 75.8755 147.66 76.2386 147.835 76.6911C148.011 77.1435 148.099 77.7005 148.099 78.3622V78.8239H142.633V77.8821H146.991C146.991 77.482 146.911 77.125 146.751 76.8111C146.594 76.4972 146.369 76.2494 146.077 76.0678C145.787 75.8862 145.446 75.7955 145.052 75.7955C144.618 75.7955 144.242 75.9032 143.925 76.1186C143.611 76.331 143.37 76.608 143.201 76.9496C143.031 77.2912 142.947 77.6574 142.947 78.0483V78.6761C142.947 79.2116 143.039 79.6656 143.224 80.038C143.411 80.4073 143.671 80.6889 144.004 80.8828C144.336 81.0736 144.722 81.169 145.163 81.169C145.449 81.169 145.707 81.129 145.938 81.049C146.172 80.9659 146.374 80.8428 146.543 80.6797C146.712 80.5135 146.843 80.3073 146.935 80.0611L147.988 80.3565C147.877 80.7135 147.691 81.0275 147.429 81.2983C147.168 81.5661 146.844 81.7753 146.46 81.9261C146.075 82.0739 145.643 82.1477 145.163 82.1477ZM152.637 82.1477C151.996 82.1477 151.435 81.9954 150.952 81.6907C150.472 81.386 150.096 80.9598 149.825 80.4119C149.557 79.8641 149.424 79.224 149.424 78.4915C149.424 77.7528 149.557 77.1081 149.825 76.5572C150.096 76.0063 150.472 75.5785 150.952 75.2738C151.435 74.9691 151.996 74.8168 152.637 74.8168C153.277 74.8168 153.837 74.9691 154.317 75.2738C154.8 75.5785 155.176 76.0063 155.443 76.5572C155.714 77.1081 155.85 77.7528 155.85 78.4915C155.85 79.224 155.714 79.8641 155.443 80.4119C155.176 80.9598 154.8 81.386 154.317 81.6907C153.837 81.9954 153.277 82.1477 152.637 82.1477ZM152.637 81.169C153.123 81.169 153.523 81.0444 153.837 80.7951C154.151 80.5458 154.383 80.218 154.534 79.8118C154.685 79.4055 154.76 78.9654 154.76 78.4915C154.76 78.0175 154.685 77.5759 154.534 77.1665C154.383 76.7572 154.151 76.4264 153.837 76.174C153.523 75.9216 153.123 75.7955 152.637 75.7955C152.15 75.7955 151.75 75.9216 151.436 76.174C151.122 76.4264 150.89 76.7572 150.739 77.1665C150.588 77.5759 150.513 78.0175 150.513 78.4915C150.513 78.9654 150.588 79.4055 150.739 79.8118C150.89 80.218 151.122 80.5458 151.436 80.7951C151.75 81.0444 152.15 81.169 152.637 81.169ZM157.513 84.6591V74.9091H158.565V76.0355H158.695C158.775 75.9124 158.885 75.7554 159.027 75.5646C159.172 75.3707 159.378 75.1984 159.646 75.0476C159.916 74.8937 160.283 74.8168 160.744 74.8168C161.341 74.8168 161.868 74.966 162.323 75.2646C162.779 75.5631 163.134 75.9863 163.39 76.5341C163.645 77.0819 163.773 77.7282 163.773 78.473C163.773 79.224 163.645 79.8749 163.39 80.4258C163.134 80.9736 162.78 81.3983 162.328 81.6999C161.875 81.9985 161.354 82.1477 160.763 82.1477C160.307 82.1477 159.943 82.0723 159.669 81.9215C159.395 81.7676 159.184 81.5937 159.036 81.3999C158.888 81.2029 158.775 81.0398 158.695 80.9105H158.602V84.6591H157.513ZM158.584 78.4545C158.584 78.9901 158.662 79.4625 158.819 79.8718C158.976 80.2781 159.205 80.5966 159.507 80.8274C159.809 81.0552 160.178 81.169 160.615 81.169C161.071 81.169 161.451 81.049 161.755 80.8089C162.063 80.5658 162.294 80.2396 162.448 79.8303C162.605 79.4179 162.683 78.9593 162.683 78.4545C162.683 77.956 162.606 77.5066 162.452 77.1065C162.302 76.7034 162.072 76.3848 161.765 76.1509C161.46 75.9139 161.077 75.7955 160.615 75.7955C160.172 75.7955 159.799 75.9078 159.498 76.1325C159.196 76.354 158.969 76.6649 158.815 77.065C158.661 77.462 158.584 77.9252 158.584 78.4545ZM166.524 72.5455V82H165.435V72.5455H166.524ZM171.493 82.1477C170.809 82.1477 170.22 81.9969 169.725 81.6953C169.232 81.3906 168.852 80.9659 168.584 80.4212C168.32 79.8733 168.187 79.2363 168.187 78.5099C168.187 77.7836 168.32 77.1435 168.584 76.5895C168.852 76.0324 169.224 75.5985 169.701 75.2876C170.182 74.9737 170.742 74.8168 171.382 74.8168C171.751 74.8168 172.116 74.8783 172.476 75.0014C172.836 75.1245 173.164 75.3246 173.459 75.6016C173.755 75.8755 173.99 76.2386 174.166 76.6911C174.341 77.1435 174.429 77.7005 174.429 78.3622V78.8239H168.963V77.8821H173.321C173.321 77.482 173.241 77.125 173.081 76.8111C172.924 76.4972 172.699 76.2494 172.407 76.0678C172.117 75.8862 171.776 75.7955 171.382 75.7955C170.948 75.7955 170.572 75.9032 170.255 76.1186C169.941 76.331 169.7 76.608 169.531 76.9496C169.361 77.2912 169.277 77.6574 169.277 78.0483V78.6761C169.277 79.2116 169.369 79.6656 169.554 80.038C169.741 80.4073 170.002 80.6889 170.334 80.8828C170.666 81.0736 171.053 81.169 171.493 81.169C171.779 81.169 172.037 81.129 172.268 81.049C172.502 80.9659 172.704 80.8428 172.873 80.6797C173.042 80.5135 173.173 80.3073 173.265 80.0611L174.318 80.3565C174.207 80.7135 174.021 81.0275 173.759 81.2983C173.498 81.5661 173.175 81.7753 172.79 81.9261C172.405 82.0739 171.973 82.1477 171.493 82.1477Z" fill="#4A5565"/>
<path d="M85.1449 111V101.545H88.3395C89.0812 101.545 89.6875 101.679 90.1584 101.947C90.6323 102.212 90.9832 102.57 91.2109 103.023C91.4387 103.475 91.5526 103.98 91.5526 104.537C91.5526 105.094 91.4387 105.6 91.2109 106.056C90.9863 106.511 90.6385 106.874 90.1676 107.145C89.6967 107.413 89.0935 107.547 88.358 107.547H86.0682V106.531H88.321C88.8288 106.531 89.2366 106.444 89.5444 106.268C89.8522 106.093 90.0753 105.856 90.2138 105.557C90.3554 105.256 90.4261 104.915 90.4261 104.537C90.4261 104.158 90.3554 103.82 90.2138 103.521C90.0753 103.223 89.8506 102.989 89.5398 102.82C89.2289 102.647 88.8165 102.561 88.3026 102.561H86.2898V111H85.1449ZM96.146 111.148C95.4627 111.148 94.8733 110.997 94.3778 110.695C93.8854 110.391 93.5053 109.966 93.2376 109.421C92.9729 108.873 92.8406 108.236 92.8406 107.51C92.8406 106.784 92.9729 106.143 93.2376 105.589C93.5053 105.032 93.8777 104.598 94.3548 104.288C94.8349 103.974 95.395 103.817 96.0352 103.817C96.4045 103.817 96.7692 103.878 97.1293 104.001C97.4893 104.125 97.8171 104.325 98.1126 104.602C98.408 104.875 98.6435 105.239 98.8189 105.691C98.9943 106.143 99.082 106.701 99.082 107.362V107.824H93.6161V106.882H97.9741C97.9741 106.482 97.8941 106.125 97.734 105.811C97.5771 105.497 97.3524 105.249 97.06 105.068C96.7707 104.886 96.4291 104.795 96.0352 104.795C95.6012 104.795 95.2257 104.903 94.9087 105.119C94.5948 105.331 94.3532 105.608 94.1839 105.95C94.0147 106.291 93.93 106.657 93.93 107.048V107.676C93.93 108.212 94.0224 108.666 94.207 109.038C94.3948 109.407 94.6548 109.689 94.9872 109.883C95.3196 110.074 95.7058 110.169 96.146 110.169C96.4322 110.169 96.6907 110.129 96.9215 110.049C97.1554 109.966 97.357 109.843 97.5263 109.68C97.6955 109.513 97.8263 109.307 97.9187 109.061L98.9712 109.357C98.8604 109.714 98.6742 110.027 98.4126 110.298C98.151 110.566 97.8279 110.775 97.4432 110.926C97.0585 111.074 96.6261 111.148 96.146 111.148ZM100.739 111V103.909H101.792V104.98H101.866C101.995 104.629 102.229 104.345 102.567 104.126C102.906 103.908 103.288 103.798 103.712 103.798C103.792 103.798 103.892 103.8 104.012 103.803C104.132 103.806 104.223 103.811 104.285 103.817V104.925C104.248 104.915 104.163 104.902 104.031 104.883C103.902 104.862 103.765 104.851 103.62 104.851C103.275 104.851 102.968 104.923 102.697 105.068C102.429 105.209 102.217 105.406 102.06 105.659C101.906 105.908 101.829 106.193 101.829 106.513V111H100.739ZM109.178 103.909V104.832H105.356V103.909H109.178ZM106.501 111V102.93C106.501 102.524 106.596 102.186 106.787 101.915C106.978 101.644 107.225 101.441 107.53 101.305C107.835 101.17 108.156 101.102 108.495 101.102C108.763 101.102 108.981 101.124 109.151 101.167C109.32 101.21 109.446 101.25 109.529 101.287L109.215 102.229C109.16 102.21 109.083 102.187 108.984 102.159C108.889 102.132 108.763 102.118 108.606 102.118C108.246 102.118 107.986 102.209 107.826 102.39C107.669 102.572 107.59 102.838 107.59 103.189V111H106.501ZM113.386 111.148C112.703 111.148 112.114 110.997 111.618 110.695C111.126 110.391 110.746 109.966 110.478 109.421C110.213 108.873 110.081 108.236 110.081 107.51C110.081 106.784 110.213 106.143 110.478 105.589C110.746 105.032 111.118 104.598 111.595 104.288C112.075 103.974 112.635 103.817 113.275 103.817C113.645 103.817 114.009 103.878 114.369 104.001C114.73 104.125 115.057 104.325 115.353 104.602C115.648 104.875 115.884 105.239 116.059 105.691C116.235 106.143 116.322 106.701 116.322 107.362V107.824H110.856V106.882H115.214C115.214 106.482 115.134 106.125 114.974 105.811C114.817 105.497 114.593 105.249 114.3 105.068C114.011 104.886 113.669 104.795 113.275 104.795C112.841 104.795 112.466 104.903 112.149 105.119C111.835 105.331 111.593 105.608 111.424 105.95C111.255 106.291 111.17 106.657 111.17 107.048V107.676C111.17 108.212 111.263 108.666 111.447 109.038C111.635 109.407 111.895 109.689 112.227 109.883C112.56 110.074 112.946 110.169 113.386 110.169C113.672 110.169 113.931 110.129 114.162 110.049C114.396 109.966 114.597 109.843 114.767 109.68C114.936 109.513 115.067 109.307 115.159 109.061L116.211 109.357C116.101 109.714 115.914 110.027 115.653 110.298C115.391 110.566 115.068 110.775 114.683 110.926C114.299 111.074 113.866 111.148 113.386 111.148ZM120.86 111.148C120.195 111.148 119.623 110.991 119.143 110.677C118.663 110.363 118.294 109.931 118.035 109.38C117.776 108.829 117.647 108.199 117.647 107.491C117.647 106.771 117.78 106.136 118.044 105.585C118.312 105.031 118.684 104.598 119.161 104.288C119.642 103.974 120.202 103.817 120.842 103.817C121.34 103.817 121.79 103.909 122.19 104.094C122.59 104.278 122.918 104.537 123.173 104.869C123.429 105.202 123.587 105.589 123.649 106.033H122.559C122.476 105.71 122.291 105.423 122.005 105.174C121.722 104.922 121.34 104.795 120.86 104.795C120.436 104.795 120.063 104.906 119.743 105.128C119.426 105.346 119.178 105.656 119 106.056C118.824 106.453 118.737 106.919 118.737 107.455C118.737 108.002 118.823 108.479 118.995 108.886C119.171 109.292 119.417 109.607 119.734 109.832C120.054 110.057 120.429 110.169 120.86 110.169C121.143 110.169 121.4 110.12 121.631 110.021C121.862 109.923 122.057 109.781 122.218 109.597C122.378 109.412 122.491 109.19 122.559 108.932H123.649C123.587 109.35 123.435 109.727 123.192 110.063C122.952 110.395 122.633 110.66 122.236 110.857C121.842 111.051 121.383 111.148 120.86 111.148ZM128.325 103.909V104.832H124.65V103.909H128.325ZM125.721 102.21H126.811V108.969C126.811 109.277 126.856 109.507 126.945 109.661C127.037 109.812 127.154 109.914 127.296 109.966C127.44 110.015 127.593 110.04 127.753 110.04C127.873 110.04 127.971 110.034 128.048 110.021C128.125 110.006 128.187 109.994 128.233 109.984L128.454 110.963C128.381 110.991 128.277 111.018 128.145 111.046C128.013 111.077 127.845 111.092 127.642 111.092C127.334 111.092 127.032 111.026 126.737 110.894C126.445 110.761 126.202 110.56 126.008 110.289C125.817 110.018 125.721 109.677 125.721 109.264V102.21ZM136.501 111.148C135.836 111.148 135.264 110.991 134.784 110.677C134.303 110.363 133.934 109.931 133.676 109.38C133.417 108.829 133.288 108.199 133.288 107.491C133.288 106.771 133.42 106.136 133.685 105.585C133.953 105.031 134.325 104.598 134.802 104.288C135.282 103.974 135.842 103.817 136.482 103.817C136.981 103.817 137.43 103.909 137.83 104.094C138.231 104.278 138.558 104.537 138.814 104.869C139.069 105.202 139.228 105.589 139.289 106.033H138.2C138.117 105.71 137.932 105.423 137.646 105.174C137.363 104.922 136.981 104.795 136.501 104.795C136.076 104.795 135.704 104.906 135.384 105.128C135.067 105.346 134.819 105.656 134.64 106.056C134.465 106.453 134.377 106.919 134.377 107.455C134.377 108.002 134.463 108.479 134.636 108.886C134.811 109.292 135.057 109.607 135.374 109.832C135.695 110.057 136.07 110.169 136.501 110.169C136.784 110.169 137.041 110.12 137.272 110.021C137.503 109.923 137.698 109.781 137.858 109.597C138.018 109.412 138.132 109.19 138.2 108.932H139.289C139.228 109.35 139.075 109.727 138.832 110.063C138.592 110.395 138.274 110.66 137.877 110.857C137.483 111.051 137.024 111.148 136.501 111.148ZM143.855 111.148C143.172 111.148 142.582 110.997 142.087 110.695C141.594 110.391 141.214 109.966 140.947 109.421C140.682 108.873 140.55 108.236 140.55 107.51C140.55 106.784 140.682 106.143 140.947 105.589C141.214 105.032 141.587 104.598 142.064 104.288C142.544 103.974 143.104 103.817 143.744 103.817C144.113 103.817 144.478 103.878 144.838 104.001C145.198 104.125 145.526 104.325 145.822 104.602C146.117 104.875 146.352 105.239 146.528 105.691C146.703 106.143 146.791 106.701 146.791 107.362V107.824H141.325V106.882H145.683C145.683 106.482 145.603 106.125 145.443 105.811C145.286 105.497 145.061 105.249 144.769 105.068C144.48 104.886 144.138 104.795 143.744 104.795C143.31 104.795 142.935 104.903 142.618 105.119C142.304 105.331 142.062 105.608 141.893 105.95C141.724 106.291 141.639 106.657 141.639 107.048V107.676C141.639 108.212 141.731 108.666 141.916 109.038C142.104 109.407 142.364 109.689 142.696 109.883C143.029 110.074 143.415 110.169 143.855 110.169C144.141 110.169 144.4 110.129 144.631 110.049C144.864 109.966 145.066 109.843 145.235 109.68C145.405 109.513 145.535 109.307 145.628 109.061L146.68 109.357C146.569 109.714 146.383 110.027 146.122 110.298C145.86 110.566 145.537 110.775 145.152 110.926C144.767 111.074 144.335 111.148 143.855 111.148ZM149.538 106.734V111H148.448V103.909H149.501V105.017H149.593C149.759 104.657 150.012 104.368 150.35 104.149C150.689 103.928 151.126 103.817 151.661 103.817C152.142 103.817 152.562 103.915 152.922 104.112C153.282 104.306 153.562 104.602 153.762 104.999C153.962 105.393 154.062 105.891 154.062 106.494V111H152.972V106.568C152.972 106.011 152.828 105.577 152.539 105.266C152.249 104.952 151.852 104.795 151.347 104.795C151 104.795 150.689 104.871 150.415 105.022C150.144 105.172 149.93 105.393 149.773 105.682C149.616 105.971 149.538 106.322 149.538 106.734ZM159.137 103.909V104.832H155.462V103.909H159.137ZM156.533 102.21H157.622V108.969C157.622 109.277 157.667 109.507 157.756 109.661C157.849 109.812 157.966 109.914 158.107 109.966C158.252 110.015 158.404 110.04 158.564 110.04C158.684 110.04 158.783 110.034 158.86 110.021C158.937 110.006 158.998 109.994 159.044 109.984L159.266 110.963C159.192 110.991 159.089 111.018 158.957 111.046C158.824 111.077 158.657 111.092 158.453 111.092C158.146 111.092 157.844 111.026 157.549 110.894C157.256 110.761 157.013 110.56 156.819 110.289C156.628 110.018 156.533 109.677 156.533 109.264V102.21ZM163.672 111.148C162.989 111.148 162.4 110.997 161.904 110.695C161.412 110.391 161.032 109.966 160.764 109.421C160.499 108.873 160.367 108.236 160.367 107.51C160.367 106.784 160.499 106.143 160.764 105.589C161.032 105.032 161.404 104.598 161.881 104.288C162.361 103.974 162.921 103.817 163.562 103.817C163.931 103.817 164.296 103.878 164.656 104.001C165.016 104.125 165.343 104.325 165.639 104.602C165.934 104.875 166.17 105.239 166.345 105.691C166.521 106.143 166.608 106.701 166.608 107.362V107.824H161.142V106.882H165.5C165.5 106.482 165.42 106.125 165.26 105.811C165.103 105.497 164.879 105.249 164.586 105.068C164.297 104.886 163.955 104.795 163.562 104.795C163.128 104.795 162.752 104.903 162.435 105.119C162.121 105.331 161.88 105.608 161.71 105.95C161.541 106.291 161.456 106.657 161.456 107.048V107.676C161.456 108.212 161.549 108.666 161.733 109.038C161.921 109.407 162.181 109.689 162.514 109.883C162.846 110.074 163.232 110.169 163.672 110.169C163.959 110.169 164.217 110.129 164.448 110.049C164.682 109.966 164.883 109.843 165.053 109.68C165.222 109.513 165.353 109.307 165.445 109.061L166.498 109.357C166.387 109.714 166.201 110.027 165.939 110.298C165.677 110.566 165.354 110.775 164.97 110.926C164.585 111.074 164.152 111.148 163.672 111.148ZM168.266 111V103.909H169.318V104.98H169.392C169.521 104.629 169.755 104.345 170.094 104.126C170.432 103.908 170.814 103.798 171.239 103.798C171.319 103.798 171.419 103.8 171.539 103.803C171.659 103.806 171.75 103.811 171.811 103.817V104.925C171.774 104.915 171.69 104.902 171.557 104.883C171.428 104.862 171.291 104.851 171.146 104.851C170.802 104.851 170.494 104.923 170.223 105.068C169.955 105.209 169.743 105.406 169.586 105.659C169.432 105.908 169.355 106.193 169.355 106.513V111H168.266ZM179.843 103.909V104.832H176.168V103.909H179.843ZM177.239 102.21H178.328V108.969C178.328 109.277 178.373 109.507 178.462 109.661C178.555 109.812 178.672 109.914 178.813 109.966C178.958 110.015 179.11 110.04 179.27 110.04C179.39 110.04 179.489 110.034 179.566 110.021C179.643 110.006 179.704 109.994 179.75 109.984L179.972 110.963C179.898 110.991 179.795 111.018 179.663 111.046C179.53 111.077 179.363 111.092 179.159 111.092C178.852 111.092 178.55 111.026 178.255 110.894C177.962 110.761 177.719 110.56 177.525 110.289C177.334 110.018 177.239 109.677 177.239 109.264V102.21ZM183.568 111.166C183.119 111.166 182.711 111.082 182.345 110.912C181.979 110.74 181.688 110.492 181.472 110.169C181.257 109.843 181.149 109.449 181.149 108.987C181.149 108.581 181.229 108.252 181.389 107.999C181.549 107.744 181.763 107.544 182.031 107.399C182.299 107.254 182.594 107.147 182.917 107.076C183.243 107.002 183.571 106.944 183.901 106.901C184.331 106.845 184.681 106.804 184.949 106.776C185.219 106.745 185.416 106.694 185.539 106.624C185.666 106.553 185.729 106.43 185.729 106.254V106.217C185.729 105.762 185.604 105.408 185.355 105.156C185.109 104.903 184.735 104.777 184.233 104.777C183.713 104.777 183.305 104.891 183.01 105.119C182.714 105.346 182.506 105.589 182.386 105.848L181.352 105.479C181.537 105.048 181.783 104.712 182.091 104.472C182.402 104.229 182.74 104.06 183.107 103.964C183.476 103.866 183.839 103.817 184.196 103.817C184.424 103.817 184.685 103.844 184.981 103.9C185.279 103.952 185.567 104.061 185.844 104.228C186.124 104.394 186.357 104.645 186.541 104.98C186.726 105.316 186.818 105.765 186.818 106.328V111H185.729V110.04H185.673C185.599 110.194 185.476 110.358 185.304 110.534C185.132 110.709 184.902 110.858 184.616 110.982C184.33 111.105 183.981 111.166 183.568 111.166ZM183.734 110.188C184.165 110.188 184.528 110.103 184.824 109.934C185.122 109.764 185.347 109.546 185.498 109.278C185.652 109.01 185.729 108.729 185.729 108.433V107.436C185.683 107.491 185.581 107.542 185.424 107.588C185.27 107.632 185.092 107.67 184.888 107.704C184.688 107.735 184.493 107.762 184.302 107.787C184.114 107.808 183.962 107.827 183.845 107.842C183.562 107.879 183.297 107.939 183.051 108.022C182.808 108.102 182.611 108.224 182.46 108.387C182.313 108.547 182.239 108.766 182.239 109.043C182.239 109.421 182.379 109.707 182.659 109.901C182.942 110.092 183.3 110.188 183.734 110.188ZM188.954 111V101.545H190.044V105.036H190.136C190.216 104.912 190.327 104.755 190.469 104.565C190.613 104.371 190.82 104.198 191.087 104.048C191.358 103.894 191.724 103.817 192.186 103.817C192.783 103.817 193.309 103.966 193.765 104.265C194.22 104.563 194.576 104.986 194.831 105.534C195.087 106.082 195.214 106.728 195.214 107.473C195.214 108.224 195.087 108.875 194.831 109.426C194.576 109.974 194.222 110.398 193.769 110.7C193.317 110.998 192.795 111.148 192.204 111.148C191.749 111.148 191.384 111.072 191.11 110.922C190.836 110.768 190.626 110.594 190.478 110.4C190.33 110.203 190.216 110.04 190.136 109.911H190.007V111H188.954ZM190.025 107.455C190.025 107.99 190.104 108.462 190.261 108.872C190.418 109.278 190.647 109.597 190.949 109.827C191.25 110.055 191.62 110.169 192.057 110.169C192.512 110.169 192.892 110.049 193.197 109.809C193.505 109.566 193.736 109.24 193.889 108.83C194.046 108.418 194.125 107.959 194.125 107.455C194.125 106.956 194.048 106.507 193.894 106.107C193.743 105.703 193.514 105.385 193.206 105.151C192.902 104.914 192.518 104.795 192.057 104.795C191.614 104.795 191.241 104.908 190.94 105.132C190.638 105.354 190.41 105.665 190.256 106.065C190.102 106.462 190.025 106.925 190.025 107.455ZM197.97 101.545V111H196.881V101.545H197.97ZM202.939 111.148C202.256 111.148 201.666 110.997 201.171 110.695C200.678 110.391 200.298 109.966 200.031 109.421C199.766 108.873 199.634 108.236 199.634 107.51C199.634 106.784 199.766 106.143 200.031 105.589C200.298 105.032 200.671 104.598 201.148 104.288C201.628 103.974 202.188 103.817 202.828 103.817C203.197 103.817 203.562 103.878 203.922 104.001C204.282 104.125 204.61 104.325 204.906 104.602C205.201 104.875 205.436 105.239 205.612 105.691C205.787 106.143 205.875 106.701 205.875 107.362V107.824H200.409V106.882H204.767C204.767 106.482 204.687 106.125 204.527 105.811C204.37 105.497 204.145 105.249 203.853 105.068C203.564 104.886 203.222 104.795 202.828 104.795C202.394 104.795 202.019 104.903 201.702 105.119C201.388 105.331 201.146 105.608 200.977 105.95C200.808 106.291 200.723 106.657 200.723 107.048V107.676C200.723 108.212 200.815 108.666 201 109.038C201.188 109.407 201.448 109.689 201.78 109.883C202.113 110.074 202.499 110.169 202.939 110.169C203.225 110.169 203.484 110.129 203.714 110.049C203.948 109.966 204.15 109.843 204.319 109.68C204.489 109.513 204.619 109.307 204.712 109.061L205.764 109.357C205.653 109.714 205.467 110.027 205.206 110.298C204.944 110.566 204.621 110.775 204.236 110.926C203.851 111.074 203.419 111.148 202.939 111.148ZM214.346 103.909V104.832H210.524V103.909H214.346ZM211.669 111V102.93C211.669 102.524 211.764 102.186 211.955 101.915C212.146 101.644 212.393 101.441 212.698 101.305C213.003 101.17 213.324 101.102 213.663 101.102C213.931 101.102 214.149 101.124 214.319 101.167C214.488 101.21 214.614 101.25 214.697 101.287L214.383 102.229C214.328 102.21 214.251 102.187 214.152 102.159C214.057 102.132 213.931 102.118 213.774 102.118C213.414 102.118 213.154 102.209 212.994 102.39C212.837 102.572 212.758 102.838 212.758 103.189V111H211.669ZM218.462 111.148C217.822 111.148 217.26 110.995 216.777 110.691C216.297 110.386 215.921 109.96 215.65 109.412C215.383 108.864 215.249 108.224 215.249 107.491C215.249 106.753 215.383 106.108 215.65 105.557C215.921 105.006 216.297 104.578 216.777 104.274C217.26 103.969 217.822 103.817 218.462 103.817C219.102 103.817 219.662 103.969 220.142 104.274C220.625 104.578 221.001 105.006 221.269 105.557C221.539 106.108 221.675 106.753 221.675 107.491C221.675 108.224 221.539 108.864 221.269 109.412C221.001 109.96 220.625 110.386 220.142 110.691C219.662 110.995 219.102 111.148 218.462 111.148ZM218.462 110.169C218.948 110.169 219.348 110.044 219.662 109.795C219.976 109.546 220.208 109.218 220.359 108.812C220.51 108.406 220.585 107.965 220.585 107.491C220.585 107.018 220.51 106.576 220.359 106.167C220.208 105.757 219.976 105.426 219.662 105.174C219.348 104.922 218.948 104.795 218.462 104.795C217.976 104.795 217.575 104.922 217.262 105.174C216.948 105.426 216.715 105.757 216.564 106.167C216.414 106.576 216.338 107.018 216.338 107.491C216.338 107.965 216.414 108.406 216.564 108.812C216.715 109.218 216.948 109.546 217.262 109.795C217.575 110.044 217.976 110.169 218.462 110.169ZM223.338 111V103.909H224.391V104.98H224.464C224.594 104.629 224.828 104.345 225.166 104.126C225.505 103.908 225.886 103.798 226.311 103.798C226.391 103.798 226.491 103.8 226.611 103.803C226.731 103.806 226.822 103.811 226.883 103.817V104.925C226.847 104.915 226.762 104.902 226.63 104.883C226.5 104.862 226.363 104.851 226.219 104.851C225.874 104.851 225.566 104.923 225.295 105.068C225.028 105.209 224.815 105.406 224.658 105.659C224.504 105.908 224.427 106.193 224.427 106.513V111H223.338ZM234.989 103.909V104.832H231.166V103.909H234.989ZM232.311 111V102.93C232.311 102.524 232.407 102.186 232.597 101.915C232.788 101.644 233.036 101.441 233.341 101.305C233.645 101.17 233.967 101.102 234.306 101.102C234.573 101.102 234.792 101.124 234.961 101.167C235.13 101.21 235.257 101.25 235.34 101.287L235.026 102.229C234.97 102.21 234.893 102.187 234.795 102.159C234.7 102.132 234.573 102.118 234.416 102.118C234.056 102.118 233.796 102.209 233.636 102.39C233.479 102.572 233.401 102.838 233.401 103.189V111H232.311ZM238.399 111.166C237.95 111.166 237.542 111.082 237.176 110.912C236.81 110.74 236.519 110.492 236.303 110.169C236.088 109.843 235.98 109.449 235.98 108.987C235.98 108.581 236.06 108.252 236.22 107.999C236.38 107.744 236.594 107.544 236.862 107.399C237.13 107.254 237.425 107.147 237.748 107.076C238.075 107.002 238.402 106.944 238.732 106.901C239.162 106.845 239.512 106.804 239.78 106.776C240.05 106.745 240.247 106.694 240.37 106.624C240.497 106.553 240.56 106.43 240.56 106.254V106.217C240.56 105.762 240.435 105.408 240.186 105.156C239.94 104.903 239.566 104.777 239.064 104.777C238.544 104.777 238.136 104.891 237.841 105.119C237.545 105.346 237.337 105.589 237.217 105.848L236.183 105.479C236.368 105.048 236.614 104.712 236.922 104.472C237.233 104.229 237.571 104.06 237.938 103.964C238.307 103.866 238.67 103.817 239.027 103.817C239.255 103.817 239.516 103.844 239.812 103.9C240.11 103.952 240.398 104.061 240.675 104.228C240.955 104.394 241.188 104.645 241.372 104.98C241.557 105.316 241.649 105.765 241.649 106.328V111H240.56V110.04H240.504C240.43 110.194 240.307 110.358 240.135 110.534C239.963 110.709 239.733 110.858 239.447 110.982C239.161 111.105 238.812 111.166 238.399 111.166ZM238.565 110.188C238.996 110.188 239.359 110.103 239.655 109.934C239.953 109.764 240.178 109.546 240.329 109.278C240.483 109.01 240.56 108.729 240.56 108.433V107.436C240.514 107.491 240.412 107.542 240.255 107.588C240.101 107.632 239.923 107.67 239.72 107.704C239.52 107.735 239.324 107.762 239.133 107.787C238.946 107.808 238.793 107.827 238.676 107.842C238.393 107.879 238.128 107.939 237.882 108.022C237.639 108.102 237.442 108.224 237.291 108.387C237.144 108.547 237.07 108.766 237.07 109.043C237.07 109.421 237.21 109.707 237.49 109.901C237.773 110.092 238.131 110.188 238.565 110.188ZM243.638 111V103.909H244.69V105.017H244.783C244.93 104.638 245.169 104.345 245.498 104.135C245.828 103.923 246.223 103.817 246.685 103.817C247.152 103.817 247.542 103.923 247.853 104.135C248.167 104.345 248.411 104.638 248.587 105.017H248.661C248.842 104.651 249.114 104.36 249.478 104.145C249.841 103.926 250.276 103.817 250.784 103.817C251.418 103.817 251.937 104.015 252.34 104.412C252.743 104.806 252.945 105.42 252.945 106.254V111H251.855V106.254C251.855 105.731 251.712 105.357 251.426 105.132C251.14 104.908 250.803 104.795 250.415 104.795C249.916 104.795 249.53 104.946 249.256 105.248C248.982 105.546 248.845 105.925 248.845 106.384V111H247.737V106.143C247.737 105.74 247.606 105.416 247.345 105.169C247.083 104.92 246.746 104.795 246.334 104.795C246.051 104.795 245.786 104.871 245.54 105.022C245.297 105.172 245.1 105.382 244.949 105.65C244.801 105.914 244.727 106.22 244.727 106.568V111H243.638ZM254.937 111V103.909H256.026V111H254.937ZM255.491 102.727C255.278 102.727 255.095 102.655 254.941 102.51C254.79 102.366 254.715 102.192 254.715 101.989C254.715 101.786 254.79 101.612 254.941 101.467C255.095 101.322 255.278 101.25 255.491 101.25C255.703 101.25 255.885 101.322 256.035 101.467C256.189 101.612 256.266 101.786 256.266 101.989C256.266 102.192 256.189 102.366 256.035 102.51C255.885 102.655 255.703 102.727 255.491 102.727ZM259.111 101.545V111H258.022V101.545H259.111ZM261.107 111V103.909H262.196V111H261.107ZM261.661 102.727C261.448 102.727 261.265 102.655 261.111 102.51C260.96 102.366 260.885 102.192 260.885 101.989C260.885 101.786 260.96 101.612 261.111 101.467C261.265 101.322 261.448 101.25 261.661 101.25C261.873 101.25 262.054 101.322 262.205 101.467C262.359 101.612 262.436 101.786 262.436 101.989C262.436 102.192 262.359 102.366 262.205 102.51C262.054 102.655 261.873 102.727 261.661 102.727ZM267.165 111.148C266.481 111.148 265.892 110.997 265.396 110.695C264.904 110.391 264.524 109.966 264.256 109.421C263.991 108.873 263.859 108.236 263.859 107.51C263.859 106.784 263.991 106.143 264.256 105.589C264.524 105.032 264.896 104.598 265.373 104.288C265.853 103.974 266.414 103.817 267.054 103.817C267.423 103.817 267.788 103.878 268.148 104.001C268.508 104.125 268.836 104.325 269.131 104.602C269.427 104.875 269.662 105.239 269.837 105.691C270.013 106.143 270.101 106.701 270.101 107.362V107.824H264.635V106.882H268.993C268.993 106.482 268.913 106.125 268.753 105.811C268.596 105.497 268.371 105.249 268.079 105.068C267.789 104.886 267.448 104.795 267.054 104.795C266.62 104.795 266.244 104.903 265.927 105.119C265.613 105.331 265.372 105.608 265.203 105.95C265.033 106.291 264.949 106.657 264.949 107.048V107.676C264.949 108.212 265.041 108.666 265.226 109.038C265.413 109.407 265.673 109.689 266.006 109.883C266.338 110.074 266.724 110.169 267.165 110.169C267.451 110.169 267.709 110.129 267.94 110.049C268.174 109.966 268.376 109.843 268.545 109.68C268.714 109.513 268.845 109.307 268.937 109.061L269.99 109.357C269.879 109.714 269.693 110.027 269.431 110.298C269.17 110.566 268.846 110.775 268.462 110.926C268.077 111.074 267.645 111.148 267.165 111.148ZM276.781 105.497L275.802 105.774C275.74 105.611 275.65 105.453 275.53 105.299C275.413 105.142 275.253 105.012 275.049 104.911C274.846 104.809 274.586 104.759 274.269 104.759C273.835 104.759 273.474 104.859 273.184 105.059C272.898 105.256 272.755 105.506 272.755 105.811C272.755 106.082 272.854 106.296 273.051 106.453C273.247 106.61 273.555 106.741 273.974 106.845L275.026 107.104C275.66 107.258 276.133 107.493 276.444 107.81C276.754 108.124 276.91 108.529 276.91 109.024C276.91 109.43 276.793 109.794 276.559 110.114C276.328 110.434 276.005 110.686 275.59 110.871C275.174 111.055 274.691 111.148 274.14 111.148C273.417 111.148 272.818 110.991 272.344 110.677C271.87 110.363 271.57 109.904 271.444 109.301L272.478 109.043C272.577 109.424 272.763 109.71 273.037 109.901C273.314 110.092 273.675 110.188 274.122 110.188C274.629 110.188 275.033 110.08 275.331 109.864C275.633 109.646 275.783 109.384 275.783 109.08C275.783 108.833 275.697 108.627 275.525 108.461C275.353 108.292 275.088 108.165 274.731 108.082L273.549 107.805C272.9 107.652 272.423 107.413 272.118 107.09C271.816 106.764 271.666 106.356 271.666 105.866C271.666 105.466 271.778 105.112 272.003 104.805C272.23 104.497 272.54 104.255 272.93 104.08C273.324 103.904 273.771 103.817 274.269 103.817C274.971 103.817 275.522 103.971 275.922 104.278C276.325 104.586 276.611 104.992 276.781 105.497Z" fill="#4A5565"/>
<rect x="60.5" y="151.5" width="331" height="115" rx="5.5" fill="#EEF6E5"/>
<rect x="60.5" y="151.5" width="331" height="115" rx="5.5" stroke="#5EA500"/>
<path d="M84.6605 175.508V174.091H93.1033V175.508H89.6996V185H88.0589V175.508H84.6605ZM96.1089 185.181C95.5905 185.181 95.1217 185.085 94.7027 184.893C94.2836 184.698 93.9516 184.416 93.7066 184.047C93.4651 183.677 93.3444 183.224 93.3444 182.688C93.3444 182.227 93.4331 181.847 93.6107 181.548C93.7883 181.25 94.028 181.014 94.3298 180.84C94.6317 180.666 94.969 180.534 95.3419 180.446C95.7148 180.357 96.0947 180.289 96.4818 180.243C96.9719 180.186 97.3696 180.14 97.675 180.105C97.9804 180.066 98.2023 180.004 98.3408 179.918C98.4793 179.833 98.5486 179.695 98.5486 179.503V179.466C98.5486 179 98.4172 178.64 98.1544 178.384C97.8952 178.129 97.5081 178.001 96.9932 178.001C96.4569 178.001 96.0344 178.12 95.7254 178.358C95.42 178.592 95.2087 178.853 95.0915 179.141L93.5947 178.8C93.7723 178.303 94.0315 177.901 94.3724 177.596C94.7169 177.287 95.1128 177.063 95.5603 176.925C96.0077 176.783 96.4782 176.712 96.9719 176.712C97.2986 176.712 97.6448 176.751 98.0106 176.829C98.3799 176.903 98.7243 177.042 99.0439 177.244C99.3671 177.447 99.6317 177.736 99.8376 178.113C100.044 178.485 100.147 178.97 100.147 179.567V185H98.5912V183.881H98.5273C98.4243 184.087 98.2698 184.29 98.0638 184.489C97.8579 184.687 97.5933 184.853 97.2702 184.984C96.947 185.115 96.5599 185.181 96.1089 185.181ZM96.4552 183.903C96.8955 183.903 97.2719 183.816 97.5844 183.642C97.9005 183.468 98.1402 183.24 98.3035 182.96C98.4704 182.676 98.5539 182.372 98.5539 182.049V180.994C98.4971 181.051 98.387 181.104 98.2236 181.154C98.0638 181.2 97.8809 181.241 97.675 181.277C97.469 181.309 97.2684 181.339 97.0731 181.367C96.8778 181.392 96.7144 181.413 96.583 181.431C96.2741 181.47 95.9917 181.536 95.7361 181.628C95.4839 181.721 95.2815 181.854 95.1288 182.028C94.9797 182.198 94.9051 182.425 94.9051 182.71C94.9051 183.104 95.0507 183.402 95.3419 183.604C95.6331 183.803 96.0042 183.903 96.4552 183.903ZM102.396 185V174.091H103.988V178.145H104.084C104.177 177.974 104.31 177.777 104.484 177.553C104.658 177.33 104.899 177.134 105.208 176.967C105.517 176.797 105.926 176.712 106.433 176.712C107.094 176.712 107.683 176.879 108.202 177.212C108.72 177.546 109.127 178.027 109.422 178.656C109.72 179.284 109.869 180.041 109.869 180.925C109.869 181.809 109.722 182.567 109.427 183.2C109.132 183.828 108.727 184.313 108.213 184.654C107.698 184.991 107.11 185.16 106.449 185.16C105.952 185.16 105.546 185.076 105.23 184.909C104.917 184.743 104.672 184.547 104.494 184.324C104.317 184.1 104.18 183.901 104.084 183.727H103.951V185H102.396ZM103.956 180.909C103.956 181.484 104.04 181.989 104.207 182.422C104.374 182.855 104.615 183.194 104.931 183.439C105.247 183.681 105.634 183.801 106.093 183.801C106.568 183.801 106.966 183.675 107.286 183.423C107.605 183.168 107.847 182.821 108.01 182.385C108.177 181.948 108.26 181.456 108.26 180.909C108.26 180.369 108.179 179.885 108.015 179.455C107.856 179.025 107.614 178.686 107.291 178.438C106.971 178.189 106.572 178.065 106.093 178.065C105.631 178.065 105.24 178.184 104.921 178.422C104.605 178.659 104.365 178.991 104.202 179.418C104.038 179.844 103.956 180.341 103.956 180.909ZM113.25 174.091V185H111.658V174.091H113.25ZM118.919 185.165C118.113 185.165 117.419 184.993 116.836 184.648C116.258 184.3 115.81 183.812 115.494 183.184C115.182 182.551 115.025 181.811 115.025 180.962C115.025 180.124 115.182 179.386 115.494 178.746C115.81 178.107 116.251 177.608 116.815 177.25C117.383 176.891 118.047 176.712 118.807 176.712C119.269 176.712 119.716 176.788 120.15 176.941C120.583 177.093 120.972 177.333 121.316 177.66C121.661 177.987 121.932 178.411 122.131 178.933C122.33 179.451 122.43 180.082 122.43 180.824V181.388H115.926V180.195H120.869C120.869 179.776 120.784 179.405 120.613 179.082C120.443 178.755 120.203 178.498 119.894 178.31C119.589 178.121 119.23 178.027 118.818 178.027C118.371 178.027 117.98 178.137 117.646 178.358C117.316 178.574 117.06 178.858 116.879 179.21C116.702 179.558 116.613 179.936 116.613 180.344V181.277C116.613 181.824 116.709 182.289 116.9 182.672C117.096 183.056 117.367 183.349 117.715 183.551C118.063 183.75 118.47 183.849 118.935 183.849C119.237 183.849 119.512 183.807 119.761 183.722C120.009 183.633 120.224 183.501 120.405 183.327C120.586 183.153 120.725 182.939 120.821 182.683L122.328 182.955C122.208 183.398 121.991 183.787 121.678 184.121C121.369 184.451 120.981 184.709 120.512 184.893C120.047 185.075 119.516 185.165 118.919 185.165ZM131.746 185.149C131.078 185.149 130.478 185.021 129.945 184.766C129.416 184.506 128.994 184.151 128.678 183.7C128.362 183.249 128.193 182.734 128.172 182.156H129.77C129.809 182.624 130.017 183.01 130.393 183.311C130.769 183.613 131.22 183.764 131.746 183.764C132.165 183.764 132.536 183.668 132.859 183.477C133.186 183.281 133.442 183.013 133.626 182.672C133.814 182.331 133.909 181.942 133.909 181.506C133.909 181.062 133.813 180.666 133.621 180.318C133.429 179.97 133.165 179.696 132.827 179.498C132.493 179.299 132.11 179.197 131.677 179.194C131.346 179.194 131.014 179.251 130.681 179.364C130.347 179.478 130.077 179.627 129.871 179.812L128.363 179.588L128.976 174.091H134.974V175.502H130.345L129.999 178.555H130.063C130.276 178.349 130.558 178.176 130.91 178.038C131.265 177.9 131.645 177.83 132.05 177.83C132.714 177.83 133.305 177.988 133.823 178.304C134.345 178.62 134.756 179.052 135.054 179.599C135.356 180.142 135.505 180.767 135.501 181.474C135.505 182.18 135.345 182.811 135.022 183.365C134.702 183.919 134.258 184.355 133.69 184.675C133.126 184.991 132.477 185.149 131.746 185.149Z" fill="black"/>
<path d="M91.3494 205.545H92.4943V211.805C92.4943 212.452 92.342 213.029 92.0373 213.537C91.7357 214.041 91.3094 214.44 90.7585 214.732C90.2076 215.022 89.5613 215.166 88.8196 215.166C88.0779 215.166 87.4316 215.022 86.8807 214.732C86.3298 214.44 85.902 214.041 85.5973 213.537C85.2957 213.029 85.1449 212.452 85.1449 211.805V205.545H86.2898V211.713C86.2898 212.175 86.3913 212.586 86.5945 212.946C86.7976 213.303 87.0869 213.584 87.4624 213.79C87.8409 213.994 88.2933 214.095 88.8196 214.095C89.3459 214.095 89.7983 213.994 90.1768 213.79C90.5554 213.584 90.8447 213.303 91.0447 212.946C91.2479 212.586 91.3494 212.175 91.3494 211.713V205.545ZM94.6329 217.659V207.909H95.6855V209.036H95.8147C95.8947 208.912 96.0055 208.755 96.1471 208.565C96.2918 208.371 96.498 208.198 96.7657 208.048C97.0365 207.894 97.4028 207.817 97.8644 207.817C98.4615 207.817 98.9878 207.966 99.4433 208.265C99.8988 208.563 100.254 208.986 100.51 209.534C100.765 210.082 100.893 210.728 100.893 211.473C100.893 212.224 100.765 212.875 100.51 213.426C100.254 213.974 99.9003 214.398 99.4479 214.7C98.9955 214.998 98.4738 215.148 97.8829 215.148C97.4274 215.148 97.0627 215.072 96.7888 214.922C96.5149 214.768 96.3041 214.594 96.1563 214.4C96.0086 214.203 95.8947 214.04 95.8147 213.911H95.7224V217.659H94.6329ZM95.7039 211.455C95.7039 211.99 95.7824 212.462 95.9394 212.872C96.0963 213.278 96.3256 213.597 96.6272 213.827C96.9288 214.055 97.2981 214.169 97.7352 214.169C98.1907 214.169 98.5708 214.049 98.8754 213.809C99.1832 213.566 99.414 213.24 99.5679 212.83C99.7249 212.418 99.8034 211.959 99.8034 211.455C99.8034 210.956 99.7264 210.507 99.5725 210.107C99.4217 209.703 99.1924 209.385 98.8847 209.151C98.58 208.914 98.1968 208.795 97.7352 208.795C97.292 208.795 96.9196 208.908 96.618 209.132C96.3164 209.354 96.0886 209.665 95.9347 210.065C95.7809 210.462 95.7039 210.925 95.7039 211.455ZM109.295 207.909V208.832H105.62V207.909H109.295ZM106.691 206.21H107.781V212.969C107.781 213.277 107.825 213.507 107.915 213.661C108.007 213.812 108.124 213.914 108.265 213.966C108.41 214.015 108.562 214.04 108.722 214.04C108.842 214.04 108.941 214.034 109.018 214.021C109.095 214.006 109.156 213.994 109.203 213.984L109.424 214.963C109.35 214.991 109.247 215.018 109.115 215.046C108.982 215.077 108.815 215.092 108.612 215.092C108.304 215.092 108.002 215.026 107.707 214.894C107.414 214.761 107.171 214.56 106.977 214.289C106.787 214.018 106.691 213.677 106.691 213.264V206.21ZM113.738 215.148C113.098 215.148 112.536 214.995 112.053 214.691C111.573 214.386 111.198 213.96 110.927 213.412C110.659 212.864 110.525 212.224 110.525 211.491C110.525 210.753 110.659 210.108 110.927 209.557C111.198 209.006 111.573 208.578 112.053 208.274C112.536 207.969 113.098 207.817 113.738 207.817C114.378 207.817 114.938 207.969 115.419 208.274C115.902 208.578 116.277 209.006 116.545 209.557C116.816 210.108 116.951 210.753 116.951 211.491C116.951 212.224 116.816 212.864 116.545 213.412C116.277 213.96 115.902 214.386 115.419 214.691C114.938 214.995 114.378 215.148 113.738 215.148ZM113.738 214.169C114.224 214.169 114.625 214.044 114.938 213.795C115.252 213.546 115.485 213.218 115.636 212.812C115.786 212.406 115.862 211.965 115.862 211.491C115.862 211.018 115.786 210.576 115.636 210.167C115.485 209.757 115.252 209.426 114.938 209.174C114.625 208.922 114.224 208.795 113.738 208.795C113.252 208.795 112.852 208.922 112.538 209.174C112.224 209.426 111.992 209.757 111.841 210.167C111.69 210.576 111.615 211.018 111.615 211.491C111.615 211.965 111.69 212.406 111.841 212.812C111.992 213.218 112.224 213.546 112.538 213.795C112.852 214.044 113.252 214.169 113.738 214.169ZM122.031 213.061V212.119L126.185 205.545H126.869V207.004H126.407L123.268 211.972V212.045H128.863V213.061H122.031ZM126.481 215V212.775V212.336V205.545H127.57V215H126.481ZM134.268 217.659V207.909H135.32V209.036H135.449C135.53 208.912 135.64 208.755 135.782 208.565C135.927 208.371 136.133 208.198 136.4 208.048C136.671 207.894 137.038 207.817 137.499 207.817C138.096 207.817 138.623 207.966 139.078 208.265C139.534 208.563 139.889 208.986 140.144 209.534C140.4 210.082 140.528 210.728 140.528 211.473C140.528 212.224 140.4 212.875 140.144 213.426C139.889 213.974 139.535 214.398 139.083 214.7C138.63 214.998 138.109 215.148 137.518 215.148C137.062 215.148 136.697 215.072 136.424 214.922C136.15 214.768 135.939 214.594 135.791 214.4C135.643 214.203 135.53 214.04 135.449 213.911H135.357V217.659H134.268ZM135.339 211.455C135.339 211.99 135.417 212.462 135.574 212.872C135.731 213.278 135.96 213.597 136.262 213.827C136.564 214.055 136.933 214.169 137.37 214.169C137.825 214.169 138.206 214.049 138.51 213.809C138.818 213.566 139.049 213.24 139.203 212.83C139.36 212.418 139.438 211.959 139.438 211.455C139.438 210.956 139.361 210.507 139.207 210.107C139.056 209.703 138.827 209.385 138.519 209.151C138.215 208.914 137.832 208.795 137.37 208.795C136.927 208.795 136.554 208.908 136.253 209.132C135.951 209.354 135.723 209.665 135.57 210.065C135.416 210.462 135.339 210.925 135.339 211.455ZM145.163 215.148C144.479 215.148 143.89 214.997 143.394 214.695C142.902 214.391 142.522 213.966 142.254 213.421C141.989 212.873 141.857 212.236 141.857 211.51C141.857 210.784 141.989 210.143 142.254 209.589C142.522 209.032 142.894 208.598 143.371 208.288C143.851 207.974 144.412 207.817 145.052 207.817C145.421 207.817 145.786 207.878 146.146 208.001C146.506 208.125 146.834 208.325 147.129 208.602C147.425 208.875 147.66 209.239 147.835 209.691C148.011 210.143 148.099 210.701 148.099 211.362V211.824H142.633V210.882H146.991C146.991 210.482 146.911 210.125 146.751 209.811C146.594 209.497 146.369 209.249 146.077 209.068C145.787 208.886 145.446 208.795 145.052 208.795C144.618 208.795 144.242 208.903 143.925 209.119C143.611 209.331 143.37 209.608 143.201 209.95C143.031 210.291 142.947 210.657 142.947 211.048V211.676C142.947 212.212 143.039 212.666 143.224 213.038C143.411 213.407 143.671 213.689 144.004 213.883C144.336 214.074 144.722 214.169 145.163 214.169C145.449 214.169 145.707 214.129 145.938 214.049C146.172 213.966 146.374 213.843 146.543 213.68C146.712 213.513 146.843 213.307 146.935 213.061L147.988 213.357C147.877 213.714 147.691 214.027 147.429 214.298C147.168 214.566 146.844 214.775 146.46 214.926C146.075 215.074 145.643 215.148 145.163 215.148ZM152.637 215.148C151.996 215.148 151.435 214.995 150.952 214.691C150.472 214.386 150.096 213.96 149.825 213.412C149.557 212.864 149.424 212.224 149.424 211.491C149.424 210.753 149.557 210.108 149.825 209.557C150.096 209.006 150.472 208.578 150.952 208.274C151.435 207.969 151.996 207.817 152.637 207.817C153.277 207.817 153.837 207.969 154.317 208.274C154.8 208.578 155.176 209.006 155.443 209.557C155.714 210.108 155.85 210.753 155.85 211.491C155.85 212.224 155.714 212.864 155.443 213.412C155.176 213.96 154.8 214.386 154.317 214.691C153.837 214.995 153.277 215.148 152.637 215.148ZM152.637 214.169C153.123 214.169 153.523 214.044 153.837 213.795C154.151 213.546 154.383 213.218 154.534 212.812C154.685 212.406 154.76 211.965 154.76 211.491C154.76 211.018 154.685 210.576 154.534 210.167C154.383 209.757 154.151 209.426 153.837 209.174C153.523 208.922 153.123 208.795 152.637 208.795C152.15 208.795 151.75 208.922 151.436 209.174C151.122 209.426 150.89 209.757 150.739 210.167C150.588 210.576 150.513 211.018 150.513 211.491C150.513 211.965 150.588 212.406 150.739 212.812C150.89 213.218 151.122 213.546 151.436 213.795C151.75 214.044 152.15 214.169 152.637 214.169ZM157.513 217.659V207.909H158.565V209.036H158.695C158.775 208.912 158.885 208.755 159.027 208.565C159.172 208.371 159.378 208.198 159.646 208.048C159.916 207.894 160.283 207.817 160.744 207.817C161.341 207.817 161.868 207.966 162.323 208.265C162.779 208.563 163.134 208.986 163.39 209.534C163.645 210.082 163.773 210.728 163.773 211.473C163.773 212.224 163.645 212.875 163.39 213.426C163.134 213.974 162.78 214.398 162.328 214.7C161.875 214.998 161.354 215.148 160.763 215.148C160.307 215.148 159.943 215.072 159.669 214.922C159.395 214.768 159.184 214.594 159.036 214.4C158.888 214.203 158.775 214.04 158.695 213.911H158.602V217.659H157.513ZM158.584 211.455C158.584 211.99 158.662 212.462 158.819 212.872C158.976 213.278 159.205 213.597 159.507 213.827C159.809 214.055 160.178 214.169 160.615 214.169C161.071 214.169 161.451 214.049 161.755 213.809C162.063 213.566 162.294 213.24 162.448 212.83C162.605 212.418 162.683 211.959 162.683 211.455C162.683 210.956 162.606 210.507 162.452 210.107C162.302 209.703 162.072 209.385 161.765 209.151C161.46 208.914 161.077 208.795 160.615 208.795C160.172 208.795 159.799 208.908 159.498 209.132C159.196 209.354 158.969 209.665 158.815 210.065C158.661 210.462 158.584 210.925 158.584 211.455ZM166.524 205.545V215H165.435V205.545H166.524ZM171.493 215.148C170.809 215.148 170.22 214.997 169.725 214.695C169.232 214.391 168.852 213.966 168.584 213.421C168.32 212.873 168.187 212.236 168.187 211.51C168.187 210.784 168.32 210.143 168.584 209.589C168.852 209.032 169.224 208.598 169.701 208.288C170.182 207.974 170.742 207.817 171.382 207.817C171.751 207.817 172.116 207.878 172.476 208.001C172.836 208.125 173.164 208.325 173.459 208.602C173.755 208.875 173.99 209.239 174.166 209.691C174.341 210.143 174.429 210.701 174.429 211.362V211.824H168.963V210.882H173.321C173.321 210.482 173.241 210.125 173.081 209.811C172.924 209.497 172.699 209.249 172.407 209.068C172.117 208.886 171.776 208.795 171.382 208.795C170.948 208.795 170.572 208.903 170.255 209.119C169.941 209.331 169.7 209.608 169.531 209.95C169.361 210.291 169.277 210.657 169.277 211.048V211.676C169.277 212.212 169.369 212.666 169.554 213.038C169.741 213.407 170.002 213.689 170.334 213.883C170.666 214.074 171.053 214.169 171.493 214.169C171.779 214.169 172.037 214.129 172.268 214.049C172.502 213.966 172.704 213.843 172.873 213.68C173.042 213.513 173.173 213.307 173.265 213.061L174.318 213.357C174.207 213.714 174.021 214.027 173.759 214.298C173.498 214.566 173.175 214.775 172.79 214.926C172.405 215.074 171.973 215.148 171.493 215.148Z" fill="#4A5565"/>
<path d="M92.7528 237.5H91.608C91.5402 237.171 91.4218 236.881 91.2525 236.632C91.0863 236.383 90.8832 236.174 90.6431 236.004C90.4061 235.832 90.143 235.703 89.8537 235.616C89.5644 235.53 89.2628 235.487 88.9489 235.487C88.3764 235.487 87.8578 235.632 87.3931 235.921C86.9315 236.21 86.5637 236.637 86.2898 237.2C86.0189 237.763 85.8835 238.454 85.8835 239.273C85.8835 240.091 86.0189 240.782 86.2898 241.346C86.5637 241.909 86.9315 242.335 87.3931 242.624C87.8578 242.914 88.3764 243.058 88.9489 243.058C89.2628 243.058 89.5644 243.015 89.8537 242.929C90.143 242.843 90.4061 242.715 90.6431 242.546C90.8832 242.373 91.0863 242.163 91.2525 241.913C91.4218 241.661 91.5402 241.372 91.608 241.045H92.7528C92.6667 241.529 92.5097 241.961 92.282 242.343C92.0542 242.724 91.7711 243.049 91.4325 243.317C91.094 243.581 90.7139 243.783 90.2923 243.922C89.8737 244.06 89.4259 244.129 88.9489 244.129C88.1425 244.129 87.4254 243.932 86.7976 243.538C86.1697 243.144 85.6758 242.584 85.3157 241.858C84.9556 241.132 84.7756 240.27 84.7756 239.273C84.7756 238.276 84.9556 237.414 85.3157 236.688C85.6758 235.961 86.1697 235.401 86.7976 235.007C87.4254 234.613 88.1425 234.416 88.9489 234.416C89.4259 234.416 89.8737 234.485 90.2923 234.624C90.7139 234.762 91.094 234.966 91.4325 235.233C91.7711 235.498 92.0542 235.821 92.282 236.203C92.5097 236.581 92.6667 237.014 92.7528 237.5ZM97.3358 244.148C96.6957 244.148 96.134 243.995 95.6508 243.691C95.1707 243.386 94.7952 242.96 94.5244 242.412C94.2567 241.864 94.1228 241.224 94.1228 240.491C94.1228 239.753 94.2567 239.108 94.5244 238.557C94.7952 238.006 95.1707 237.578 95.6508 237.274C96.134 236.969 96.6957 236.817 97.3358 236.817C97.976 236.817 98.5361 236.969 99.0162 237.274C99.4994 237.578 99.8749 238.006 100.143 238.557C100.414 239.108 100.549 239.753 100.549 240.491C100.549 241.224 100.414 241.864 100.143 242.412C99.8749 242.96 99.4994 243.386 99.0162 243.691C98.5361 243.995 97.976 244.148 97.3358 244.148ZM97.3358 243.169C97.8221 243.169 98.2222 243.044 98.5361 242.795C98.8501 242.546 99.0824 242.218 99.2332 241.812C99.384 241.406 99.4594 240.965 99.4594 240.491C99.4594 240.018 99.384 239.576 99.2332 239.167C99.0824 238.757 98.8501 238.426 98.5361 238.174C98.2222 237.922 97.8221 237.795 97.3358 237.795C96.8496 237.795 96.4495 237.922 96.1356 238.174C95.8216 238.426 95.5893 238.757 95.4385 239.167C95.2877 239.576 95.2123 240.018 95.2123 240.491C95.2123 240.965 95.2877 241.406 95.4385 241.812C95.5893 242.218 95.8216 242.546 96.1356 242.795C96.4495 243.044 96.8496 243.169 97.3358 243.169ZM102.212 244V236.909H103.265V238.017H103.357C103.505 237.638 103.743 237.345 104.072 237.135C104.402 236.923 104.797 236.817 105.259 236.817C105.727 236.817 106.116 236.923 106.427 237.135C106.741 237.345 106.985 237.638 107.161 238.017H107.235C107.416 237.651 107.689 237.36 108.052 237.145C108.415 236.926 108.85 236.817 109.358 236.817C109.992 236.817 110.511 237.015 110.914 237.412C111.317 237.806 111.519 238.42 111.519 239.254V244H110.429V239.254C110.429 238.731 110.286 238.357 110 238.132C109.714 237.908 109.377 237.795 108.989 237.795C108.49 237.795 108.104 237.946 107.83 238.248C107.556 238.546 107.419 238.925 107.419 239.384V244H106.311V239.143C106.311 238.74 106.181 238.416 105.919 238.169C105.657 237.92 105.32 237.795 104.908 237.795C104.625 237.795 104.36 237.871 104.114 238.022C103.871 238.172 103.674 238.382 103.523 238.65C103.375 238.914 103.301 239.22 103.301 239.568V244H102.212ZM116.669 236.909V237.832H112.846V236.909H116.669ZM113.991 244V235.93C113.991 235.524 114.086 235.186 114.277 234.915C114.468 234.644 114.716 234.441 115.02 234.305C115.325 234.17 115.647 234.102 115.985 234.102C116.253 234.102 116.472 234.124 116.641 234.167C116.81 234.21 116.936 234.25 117.019 234.287L116.705 235.229C116.65 235.21 116.573 235.187 116.475 235.159C116.379 235.132 116.253 235.118 116.096 235.118C115.736 235.118 115.476 235.209 115.316 235.39C115.159 235.572 115.08 235.838 115.08 236.189V244H113.991ZM120.784 244.148C120.144 244.148 119.582 243.995 119.099 243.691C118.619 243.386 118.243 242.96 117.973 242.412C117.705 241.864 117.571 241.224 117.571 240.491C117.571 239.753 117.705 239.108 117.973 238.557C118.243 238.006 118.619 237.578 119.099 237.274C119.582 236.969 120.144 236.817 120.784 236.817C121.424 236.817 121.984 236.969 122.464 237.274C122.948 237.578 123.323 238.006 123.591 238.557C123.862 239.108 123.997 239.753 123.997 240.491C123.997 241.224 123.862 241.864 123.591 242.412C123.323 242.96 122.948 243.386 122.464 243.691C121.984 243.995 121.424 244.148 120.784 244.148ZM120.784 243.169C121.27 243.169 121.67 243.044 121.984 242.795C122.298 242.546 122.531 242.218 122.681 241.812C122.832 241.406 122.908 240.965 122.908 240.491C122.908 240.018 122.832 239.576 122.681 239.167C122.531 238.757 122.298 238.426 121.984 238.174C121.67 237.922 121.27 237.795 120.784 237.795C120.298 237.795 119.898 237.922 119.584 238.174C119.27 238.426 119.038 238.757 118.887 239.167C118.736 239.576 118.661 240.018 118.661 240.491C118.661 240.965 118.736 241.406 118.887 241.812C119.038 242.218 119.27 242.546 119.584 242.795C119.898 243.044 120.298 243.169 120.784 243.169ZM125.66 244V236.909H126.713V237.98H126.787C126.916 237.629 127.15 237.345 127.488 237.126C127.827 236.908 128.209 236.798 128.633 236.798C128.713 236.798 128.813 236.8 128.933 236.803C129.053 236.806 129.144 236.811 129.206 236.817V237.925C129.169 237.915 129.084 237.902 128.952 237.883C128.823 237.862 128.686 237.851 128.541 237.851C128.196 237.851 127.888 237.923 127.618 238.068C127.35 238.209 127.138 238.406 126.981 238.659C126.827 238.908 126.75 239.193 126.75 239.513V244H125.66ZM134.025 236.909V237.832H130.351V236.909H134.025ZM131.422 235.21H132.511V241.969C132.511 242.277 132.556 242.507 132.645 242.661C132.737 242.812 132.854 242.914 132.996 242.966C133.14 243.015 133.293 243.04 133.453 243.04C133.573 243.04 133.671 243.034 133.748 243.021C133.825 243.006 133.887 242.994 133.933 242.984L134.155 243.963C134.081 243.991 133.978 244.018 133.845 244.046C133.713 244.077 133.545 244.092 133.342 244.092C133.034 244.092 132.733 244.026 132.437 243.894C132.145 243.761 131.902 243.56 131.708 243.289C131.517 243.018 131.422 242.677 131.422 242.264V235.21ZM137.751 244.166C137.301 244.166 136.894 244.082 136.527 243.912C136.161 243.74 135.87 243.492 135.655 243.169C135.439 242.843 135.332 242.449 135.332 241.987C135.332 241.581 135.412 241.252 135.572 240.999C135.732 240.744 135.946 240.544 136.214 240.399C136.481 240.254 136.777 240.147 137.1 240.076C137.426 240.002 137.754 239.944 138.083 239.901C138.514 239.845 138.863 239.804 139.131 239.776C139.402 239.745 139.599 239.694 139.722 239.624C139.848 239.553 139.911 239.43 139.911 239.254V239.217C139.911 238.762 139.787 238.408 139.537 238.156C139.291 237.903 138.917 237.777 138.416 237.777C137.895 237.777 137.488 237.891 137.192 238.119C136.897 238.346 136.689 238.589 136.569 238.848L135.535 238.479C135.72 238.048 135.966 237.712 136.274 237.472C136.584 237.229 136.923 237.06 137.289 236.964C137.658 236.866 138.022 236.817 138.379 236.817C138.606 236.817 138.868 236.844 139.163 236.9C139.462 236.952 139.75 237.061 140.027 237.228C140.307 237.394 140.539 237.645 140.724 237.98C140.908 238.316 141.001 238.765 141.001 239.328V244H139.911V243.04H139.856C139.782 243.194 139.659 243.358 139.487 243.534C139.314 243.709 139.085 243.858 138.799 243.982C138.513 244.105 138.163 244.166 137.751 244.166ZM137.917 243.188C138.348 243.188 138.711 243.103 139.006 242.934C139.305 242.764 139.53 242.546 139.68 242.278C139.834 242.01 139.911 241.729 139.911 241.433V240.436C139.865 240.491 139.764 240.542 139.607 240.588C139.453 240.632 139.274 240.67 139.071 240.704C138.871 240.735 138.676 240.762 138.485 240.787C138.297 240.808 138.145 240.827 138.028 240.842C137.745 240.879 137.48 240.939 137.234 241.022C136.991 241.102 136.794 241.224 136.643 241.387C136.495 241.547 136.421 241.766 136.421 242.043C136.421 242.421 136.561 242.707 136.841 242.901C137.124 243.092 137.483 243.188 137.917 243.188ZM143.137 244V234.545H144.227V238.036H144.319C144.399 237.912 144.51 237.755 144.651 237.565C144.796 237.371 145.002 237.198 145.27 237.048C145.541 236.894 145.907 236.817 146.369 236.817C146.966 236.817 147.492 236.966 147.947 237.265C148.403 237.563 148.758 237.986 149.014 238.534C149.269 239.082 149.397 239.728 149.397 240.473C149.397 241.224 149.269 241.875 149.014 242.426C148.758 242.974 148.404 243.398 147.952 243.7C147.5 243.998 146.978 244.148 146.387 244.148C145.932 244.148 145.567 244.072 145.293 243.922C145.019 243.768 144.808 243.594 144.661 243.4C144.513 243.203 144.399 243.04 144.319 242.911H144.19V244H143.137ZM144.208 240.455C144.208 240.99 144.287 241.462 144.444 241.872C144.6 242.278 144.83 242.597 145.131 242.827C145.433 243.055 145.802 243.169 146.239 243.169C146.695 243.169 147.075 243.049 147.38 242.809C147.687 242.566 147.918 242.24 148.072 241.83C148.229 241.418 148.308 240.959 148.308 240.455C148.308 239.956 148.231 239.507 148.077 239.107C147.926 238.703 147.697 238.385 147.389 238.151C147.084 237.914 146.701 237.795 146.239 237.795C145.796 237.795 145.424 237.908 145.122 238.132C144.821 238.354 144.593 238.665 144.439 239.065C144.285 239.462 144.208 239.925 144.208 240.455ZM152.153 234.545V244H151.064V234.545H152.153ZM157.122 244.148C156.438 244.148 155.849 243.997 155.353 243.695C154.861 243.391 154.481 242.966 154.213 242.421C153.948 241.873 153.816 241.236 153.816 240.51C153.816 239.784 153.948 239.143 154.213 238.589C154.481 238.032 154.853 237.598 155.33 237.288C155.81 236.974 156.371 236.817 157.011 236.817C157.38 236.817 157.745 236.878 158.105 237.001C158.465 237.125 158.793 237.325 159.088 237.602C159.384 237.875 159.619 238.239 159.794 238.691C159.97 239.143 160.058 239.701 160.058 240.362V240.824H154.592V239.882H158.95C158.95 239.482 158.87 239.125 158.71 238.811C158.553 238.497 158.328 238.249 158.036 238.068C157.746 237.886 157.405 237.795 157.011 237.795C156.577 237.795 156.201 237.903 155.884 238.119C155.57 238.331 155.329 238.608 155.16 238.95C154.99 239.291 154.906 239.657 154.906 240.048V240.676C154.906 241.212 154.998 241.666 155.183 242.038C155.37 242.407 155.63 242.689 155.963 242.883C156.295 243.074 156.681 243.169 157.122 243.169C157.408 243.169 157.666 243.129 157.897 243.049C158.131 242.966 158.333 242.843 158.502 242.68C158.671 242.513 158.802 242.307 158.894 242.061L159.947 242.357C159.836 242.714 159.65 243.027 159.388 243.298C159.127 243.566 158.803 243.775 158.419 243.926C158.034 244.074 157.602 244.148 157.122 244.148ZM168.252 244.148C167.587 244.148 167.015 243.991 166.535 243.677C166.054 243.363 165.685 242.931 165.427 242.38C165.168 241.829 165.039 241.199 165.039 240.491C165.039 239.771 165.171 239.136 165.436 238.585C165.704 238.031 166.076 237.598 166.553 237.288C167.033 236.974 167.593 236.817 168.233 236.817C168.732 236.817 169.181 236.909 169.581 237.094C169.982 237.278 170.309 237.537 170.565 237.869C170.82 238.202 170.979 238.589 171.04 239.033H169.951C169.868 238.71 169.683 238.423 169.397 238.174C169.114 237.922 168.732 237.795 168.252 237.795C167.827 237.795 167.455 237.906 167.135 238.128C166.818 238.346 166.57 238.656 166.391 239.056C166.216 239.453 166.128 239.919 166.128 240.455C166.128 241.002 166.214 241.479 166.387 241.886C166.562 242.292 166.808 242.607 167.125 242.832C167.446 243.057 167.821 243.169 168.252 243.169C168.535 243.169 168.792 243.12 169.023 243.021C169.254 242.923 169.449 242.781 169.609 242.597C169.769 242.412 169.883 242.19 169.951 241.932H171.04C170.979 242.35 170.826 242.727 170.583 243.063C170.343 243.395 170.025 243.66 169.628 243.857C169.234 244.051 168.775 244.148 168.252 244.148ZM175.606 244.148C174.923 244.148 174.333 243.997 173.838 243.695C173.345 243.391 172.965 242.966 172.698 242.421C172.433 241.873 172.301 241.236 172.301 240.51C172.301 239.784 172.433 239.143 172.698 238.589C172.965 238.032 173.338 237.598 173.815 237.288C174.295 236.974 174.855 236.817 175.495 236.817C175.864 236.817 176.229 236.878 176.589 237.001C176.949 237.125 177.277 237.325 177.573 237.602C177.868 237.875 178.103 238.239 178.279 238.691C178.454 239.143 178.542 239.701 178.542 240.362V240.824H173.076V239.882H177.434C177.434 239.482 177.354 239.125 177.194 238.811C177.037 238.497 176.812 238.249 176.52 238.068C176.231 237.886 175.889 237.795 175.495 237.795C175.061 237.795 174.686 237.903 174.369 238.119C174.055 238.331 173.813 238.608 173.644 238.95C173.475 239.291 173.39 239.657 173.39 240.048V240.676C173.39 241.212 173.482 241.666 173.667 242.038C173.855 242.407 174.115 242.689 174.447 242.883C174.78 243.074 175.166 243.169 175.606 243.169C175.892 243.169 176.151 243.129 176.381 243.049C176.615 242.966 176.817 242.843 176.986 242.68C177.156 242.513 177.286 242.307 177.379 242.061L178.431 242.357C178.32 242.714 178.134 243.027 177.873 243.298C177.611 243.566 177.288 243.775 176.903 243.926C176.518 244.074 176.086 244.148 175.606 244.148ZM181.289 239.734V244H180.199V236.909H181.252V238.017H181.344C181.51 237.657 181.763 237.368 182.101 237.149C182.44 236.928 182.877 236.817 183.412 236.817C183.892 236.817 184.313 236.915 184.673 237.112C185.033 237.306 185.313 237.602 185.513 237.999C185.713 238.393 185.813 238.891 185.813 239.494V244H184.723V239.568C184.723 239.011 184.579 238.577 184.29 238.266C184 237.952 183.603 237.795 183.098 237.795C182.751 237.795 182.44 237.871 182.166 238.022C181.895 238.172 181.681 238.393 181.524 238.682C181.367 238.971 181.289 239.322 181.289 239.734ZM190.888 236.909V237.832H187.213V236.909H190.888ZM188.284 235.21H189.373V241.969C189.373 242.277 189.418 242.507 189.507 242.661C189.6 242.812 189.717 242.914 189.858 242.966C190.003 243.015 190.155 243.04 190.315 243.04C190.435 243.04 190.534 243.034 190.611 243.021C190.688 243.006 190.749 242.994 190.795 242.984L191.017 243.963C190.943 243.991 190.84 244.018 190.708 244.046C190.575 244.077 190.407 244.092 190.204 244.092C189.897 244.092 189.595 244.026 189.3 243.894C189.007 243.761 188.764 243.56 188.57 243.289C188.379 243.018 188.284 242.677 188.284 242.264V235.21ZM195.423 244.148C194.74 244.148 194.151 243.997 193.655 243.695C193.163 243.391 192.783 242.966 192.515 242.421C192.25 241.873 192.118 241.236 192.118 240.51C192.118 239.784 192.25 239.143 192.515 238.589C192.783 238.032 193.155 237.598 193.632 237.288C194.112 236.974 194.672 236.817 195.312 236.817C195.682 236.817 196.047 236.878 196.407 237.001C196.767 237.125 197.094 237.325 197.39 237.602C197.685 237.875 197.921 238.239 198.096 238.691C198.272 239.143 198.359 239.701 198.359 240.362V240.824H192.893V239.882H197.251C197.251 239.482 197.171 239.125 197.011 238.811C196.854 238.497 196.63 238.249 196.337 238.068C196.048 237.886 195.706 237.795 195.312 237.795C194.879 237.795 194.503 237.903 194.186 238.119C193.872 238.331 193.631 238.608 193.461 238.95C193.292 239.291 193.207 239.657 193.207 240.048V240.676C193.207 241.212 193.3 241.666 193.484 242.038C193.672 242.407 193.932 242.689 194.265 242.883C194.597 243.074 194.983 243.169 195.423 243.169C195.71 243.169 195.968 243.129 196.199 243.049C196.433 242.966 196.634 242.843 196.804 242.68C196.973 242.513 197.104 242.307 197.196 242.061L198.249 242.357C198.138 242.714 197.952 243.027 197.69 243.298C197.428 243.566 197.105 243.775 196.721 243.926C196.336 244.074 195.903 244.148 195.423 244.148ZM200.017 244V236.909H201.069V237.98H201.143C201.272 237.629 201.506 237.345 201.845 237.126C202.183 236.908 202.565 236.798 202.99 236.798C203.07 236.798 203.17 236.8 203.29 236.803C203.41 236.806 203.501 236.811 203.562 236.817V237.925C203.525 237.915 203.441 237.902 203.308 237.883C203.179 237.862 203.042 237.851 202.897 237.851C202.553 237.851 202.245 237.923 201.974 238.068C201.706 238.209 201.494 238.406 201.337 238.659C201.183 238.908 201.106 239.193 201.106 239.513V244H200.017ZM211.594 236.909V237.832H207.919V236.909H211.594ZM208.99 235.21H210.079V241.969C210.079 242.277 210.124 242.507 210.213 242.661C210.306 242.812 210.423 242.914 210.564 242.966C210.709 243.015 210.861 243.04 211.021 243.04C211.141 243.04 211.24 243.034 211.317 243.021C211.394 243.006 211.455 242.994 211.501 242.984L211.723 243.963C211.649 243.991 211.546 244.018 211.414 244.046C211.281 244.077 211.114 244.092 210.91 244.092C210.603 244.092 210.301 244.026 210.006 243.894C209.713 243.761 209.47 243.56 209.276 243.289C209.085 243.018 208.99 242.677 208.99 242.264V235.21ZM215.319 244.166C214.87 244.166 214.462 244.082 214.096 243.912C213.73 243.74 213.439 243.492 213.223 243.169C213.008 242.843 212.9 242.449 212.9 241.987C212.9 241.581 212.98 241.252 213.14 240.999C213.3 240.744 213.514 240.544 213.782 240.399C214.05 240.254 214.345 240.147 214.668 240.076C214.994 240.002 215.322 239.944 215.652 239.901C216.082 239.845 216.432 239.804 216.699 239.776C216.97 239.745 217.167 239.694 217.29 239.624C217.417 239.553 217.48 239.43 217.48 239.254V239.217C217.48 238.762 217.355 238.408 217.106 238.156C216.86 237.903 216.486 237.777 215.984 237.777C215.464 237.777 215.056 237.891 214.761 238.119C214.465 238.346 214.257 238.589 214.137 238.848L213.103 238.479C213.288 238.048 213.534 237.712 213.842 237.472C214.153 237.229 214.491 237.06 214.858 236.964C215.227 236.866 215.59 236.817 215.947 236.817C216.175 236.817 216.436 236.844 216.732 236.9C217.03 236.952 217.318 237.061 217.595 237.228C217.875 237.394 218.108 237.645 218.292 237.98C218.477 238.316 218.569 238.765 218.569 239.328V244H217.48V243.04H217.424C217.35 243.194 217.227 243.358 217.055 243.534C216.883 243.709 216.653 243.858 216.367 243.982C216.081 244.105 215.732 244.166 215.319 244.166ZM215.485 243.188C215.916 243.188 216.279 243.103 216.575 242.934C216.873 242.764 217.098 242.546 217.249 242.278C217.403 242.01 217.48 241.729 217.48 241.433V240.436C217.434 240.491 217.332 240.542 217.175 240.588C217.021 240.632 216.843 240.67 216.639 240.704C216.439 240.735 216.244 240.762 216.053 240.787C215.865 240.808 215.713 240.827 215.596 240.842C215.313 240.879 215.048 240.939 214.802 241.022C214.559 241.102 214.362 241.224 214.211 241.387C214.063 241.547 213.99 241.766 213.99 242.043C213.99 242.421 214.13 242.707 214.41 242.901C214.693 243.092 215.051 243.188 215.485 243.188ZM220.705 244V234.545H221.795V238.036H221.887C221.967 237.912 222.078 237.755 222.22 237.565C222.364 237.371 222.57 237.198 222.838 237.048C223.109 236.894 223.475 236.817 223.937 236.817C224.534 236.817 225.06 236.966 225.516 237.265C225.971 237.563 226.327 237.986 226.582 238.534C226.838 239.082 226.965 239.728 226.965 240.473C226.965 241.224 226.838 241.875 226.582 242.426C226.327 242.974 225.973 243.398 225.52 243.7C225.068 243.998 224.546 244.148 223.955 244.148C223.5 244.148 223.135 244.072 222.861 243.922C222.587 243.768 222.377 243.594 222.229 243.4C222.081 243.203 221.967 243.04 221.887 242.911H221.758V244H220.705ZM221.776 240.455C221.776 240.99 221.855 241.462 222.012 241.872C222.169 242.278 222.398 242.597 222.7 242.827C223.001 243.055 223.371 243.169 223.808 243.169C224.263 243.169 224.643 243.049 224.948 242.809C225.256 242.566 225.487 242.24 225.64 241.83C225.797 241.418 225.876 240.959 225.876 240.455C225.876 239.956 225.799 239.507 225.645 239.107C225.494 238.703 225.265 238.385 224.957 238.151C224.653 237.914 224.269 237.795 223.808 237.795C223.365 237.795 222.992 237.908 222.691 238.132C222.389 238.354 222.161 238.665 222.007 239.065C221.853 239.462 221.776 239.925 221.776 240.455ZM229.721 234.545V244H228.632V234.545H229.721ZM234.69 244.148C234.007 244.148 233.417 243.997 232.922 243.695C232.429 243.391 232.049 242.966 231.782 242.421C231.517 241.873 231.384 241.236 231.384 240.51C231.384 239.784 231.517 239.143 231.782 238.589C232.049 238.032 232.422 237.598 232.899 237.288C233.379 236.974 233.939 236.817 234.579 236.817C234.948 236.817 235.313 236.878 235.673 237.001C236.033 237.125 236.361 237.325 236.657 237.602C236.952 237.875 237.187 238.239 237.363 238.691C237.538 239.143 237.626 239.701 237.626 240.362V240.824H232.16V239.882H236.518C236.518 239.482 236.438 239.125 236.278 238.811C236.121 238.497 235.896 238.249 235.604 238.068C235.315 237.886 234.973 237.795 234.579 237.795C234.145 237.795 233.77 237.903 233.453 238.119C233.139 238.331 232.897 238.608 232.728 238.95C232.559 239.291 232.474 239.657 232.474 240.048V240.676C232.474 241.212 232.566 241.666 232.751 242.038C232.939 242.407 233.199 242.689 233.531 242.883C233.864 243.074 234.25 243.169 234.69 243.169C234.976 243.169 235.235 243.129 235.465 243.049C235.699 242.966 235.901 242.843 236.07 242.68C236.239 242.513 236.37 242.307 236.463 242.061L237.515 242.357C237.404 242.714 237.218 243.027 236.957 243.298C236.695 243.566 236.372 243.775 235.987 243.926C235.602 244.074 235.17 244.148 234.69 244.148Z" fill="#4A5565"/>
<rect x="60.5" y="284.5" width="331" height="115" rx="5.5" fill="white"/>
<rect x="60.5" y="284.5" width="331" height="115" rx="5.5" stroke="#E5E7EB"/>
<path d="M84.6605 308.508V307.091H93.1033V308.508H89.6996V318H88.0589V308.508H84.6605ZM96.1089 318.181C95.5905 318.181 95.1217 318.085 94.7027 317.893C94.2836 317.698 93.9516 317.416 93.7066 317.047C93.4651 316.677 93.3444 316.224 93.3444 315.688C93.3444 315.227 93.4331 314.847 93.6107 314.548C93.7883 314.25 94.028 314.014 94.3298 313.84C94.6317 313.666 94.969 313.534 95.3419 313.446C95.7148 313.357 96.0947 313.289 96.4818 313.243C96.9719 313.186 97.3696 313.14 97.675 313.105C97.9804 313.066 98.2023 313.004 98.3408 312.918C98.4793 312.833 98.5486 312.695 98.5486 312.503V312.466C98.5486 312 98.4172 311.64 98.1544 311.384C97.8952 311.129 97.5081 311.001 96.9932 311.001C96.4569 311.001 96.0344 311.12 95.7254 311.358C95.42 311.592 95.2087 311.853 95.0915 312.141L93.5947 311.8C93.7723 311.303 94.0315 310.901 94.3724 310.596C94.7169 310.287 95.1128 310.063 95.5603 309.925C96.0077 309.783 96.4782 309.712 96.9719 309.712C97.2986 309.712 97.6448 309.751 98.0106 309.829C98.3799 309.903 98.7243 310.042 99.0439 310.244C99.3671 310.447 99.6317 310.736 99.8376 311.113C100.044 311.485 100.147 311.97 100.147 312.567V318H98.5912V316.881H98.5273C98.4243 317.087 98.2698 317.29 98.0638 317.489C97.8579 317.687 97.5933 317.853 97.2702 317.984C96.947 318.115 96.5599 318.181 96.1089 318.181ZM96.4552 316.903C96.8955 316.903 97.2719 316.816 97.5844 316.642C97.9005 316.468 98.1402 316.24 98.3035 315.96C98.4704 315.676 98.5539 315.372 98.5539 315.049V313.994C98.4971 314.051 98.387 314.104 98.2236 314.154C98.0638 314.2 97.8809 314.241 97.675 314.277C97.469 314.309 97.2684 314.339 97.0731 314.367C96.8778 314.392 96.7144 314.413 96.583 314.431C96.2741 314.47 95.9917 314.536 95.7361 314.628C95.4839 314.721 95.2815 314.854 95.1288 315.028C94.9797 315.198 94.9051 315.425 94.9051 315.71C94.9051 316.104 95.0507 316.402 95.3419 316.604C95.6331 316.803 96.0042 316.903 96.4552 316.903ZM102.396 318V307.091H103.988V311.145H104.084C104.177 310.974 104.31 310.777 104.484 310.553C104.658 310.33 104.899 310.134 105.208 309.967C105.517 309.797 105.926 309.712 106.433 309.712C107.094 309.712 107.683 309.879 108.202 310.212C108.72 310.546 109.127 311.027 109.422 311.656C109.72 312.284 109.869 313.041 109.869 313.925C109.869 314.809 109.722 315.567 109.427 316.2C109.132 316.828 108.727 317.313 108.213 317.654C107.698 317.991 107.11 318.16 106.449 318.16C105.952 318.16 105.546 318.076 105.23 317.909C104.917 317.743 104.672 317.547 104.494 317.324C104.317 317.1 104.18 316.901 104.084 316.727H103.951V318H102.396ZM103.956 313.909C103.956 314.484 104.04 314.989 104.207 315.422C104.374 315.855 104.615 316.194 104.931 316.439C105.247 316.681 105.634 316.801 106.093 316.801C106.568 316.801 106.966 316.675 107.286 316.423C107.605 316.168 107.847 315.821 108.01 315.385C108.177 314.948 108.26 314.456 108.26 313.909C108.26 313.369 108.179 312.885 108.015 312.455C107.856 312.025 107.614 311.686 107.291 311.438C106.971 311.189 106.572 311.065 106.093 311.065C105.631 311.065 105.24 311.184 104.921 311.422C104.605 311.659 104.365 311.991 104.202 312.418C104.038 312.844 103.956 313.341 103.956 313.909ZM113.25 307.091V318H111.658V307.091H113.25ZM118.919 318.165C118.113 318.165 117.419 317.993 116.836 317.648C116.258 317.3 115.81 316.812 115.494 316.184C115.182 315.551 115.025 314.811 115.025 313.962C115.025 313.124 115.182 312.386 115.494 311.746C115.81 311.107 116.251 310.608 116.815 310.25C117.383 309.891 118.047 309.712 118.807 309.712C119.269 309.712 119.716 309.788 120.15 309.941C120.583 310.093 120.972 310.333 121.316 310.66C121.661 310.987 121.932 311.411 122.131 311.933C122.33 312.451 122.43 313.082 122.43 313.824V314.388H115.926V313.195H120.869C120.869 312.776 120.784 312.405 120.613 312.082C120.443 311.755 120.203 311.498 119.894 311.31C119.589 311.121 119.23 311.027 118.818 311.027C118.371 311.027 117.98 311.137 117.646 311.358C117.316 311.574 117.06 311.858 116.879 312.21C116.702 312.558 116.613 312.936 116.613 313.344V314.277C116.613 314.824 116.709 315.289 116.9 315.672C117.096 316.056 117.367 316.349 117.715 316.551C118.063 316.75 118.47 316.849 118.935 316.849C119.237 316.849 119.512 316.807 119.761 316.722C120.009 316.633 120.224 316.501 120.405 316.327C120.586 316.153 120.725 315.939 120.821 315.683L122.328 315.955C122.208 316.398 121.991 316.787 121.678 317.121C121.369 317.451 120.981 317.709 120.512 317.893C120.047 318.075 119.516 318.165 118.919 318.165ZM131.831 318.149C131.068 318.149 130.393 318.018 129.807 317.755C129.225 317.492 128.768 317.13 128.438 316.668C128.108 316.207 127.944 315.681 127.948 315.092C127.944 314.63 128.039 314.206 128.23 313.819C128.426 313.428 128.69 313.103 129.024 312.844C129.358 312.581 129.731 312.414 130.143 312.343V312.279C129.599 312.148 129.164 311.857 128.838 311.406C128.511 310.955 128.349 310.436 128.353 309.85C128.349 309.293 128.497 308.795 128.795 308.359C129.097 307.918 129.51 307.572 130.036 307.32C130.562 307.068 131.16 306.942 131.831 306.942C132.495 306.942 133.088 307.07 133.61 307.325C134.136 307.577 134.55 307.924 134.851 308.364C135.153 308.801 135.306 309.296 135.309 309.85C135.306 310.436 135.139 310.955 134.809 311.406C134.479 311.857 134.049 312.148 133.52 312.279V312.343C133.928 312.414 134.296 312.581 134.622 312.844C134.953 313.103 135.215 313.428 135.411 313.819C135.61 314.206 135.711 314.63 135.714 315.092C135.711 315.681 135.544 316.207 135.214 316.668C134.883 317.13 134.425 317.492 133.839 317.755C133.257 318.018 132.588 318.149 131.831 318.149ZM131.831 316.801C132.282 316.801 132.673 316.727 133.003 316.578C133.333 316.425 133.589 316.214 133.77 315.944C133.951 315.67 134.044 315.351 134.047 314.985C134.044 314.605 133.944 314.27 133.749 313.978C133.557 313.687 133.296 313.458 132.966 313.291C132.635 313.124 132.257 313.041 131.831 313.041C131.401 313.041 131.02 313.124 130.686 313.291C130.352 313.458 130.089 313.687 129.898 313.978C129.706 314.27 129.612 314.605 129.615 314.985C129.612 315.351 129.699 315.67 129.876 315.944C130.057 316.214 130.315 316.425 130.649 316.578C130.982 316.727 131.377 316.801 131.831 316.801ZM131.831 311.725C132.193 311.725 132.515 311.652 132.795 311.507C133.076 311.361 133.296 311.159 133.456 310.9C133.619 310.64 133.703 310.337 133.706 309.989C133.703 309.648 133.621 309.349 133.461 309.094C133.305 308.838 133.086 308.641 132.806 308.502C132.525 308.36 132.2 308.289 131.831 308.289C131.455 308.289 131.124 308.36 130.84 308.502C130.56 308.641 130.341 308.838 130.185 309.094C130.029 309.349 129.953 309.648 129.956 309.989C129.953 310.337 130.031 310.64 130.191 310.9C130.35 311.159 130.57 311.361 130.851 311.507C131.135 311.652 131.462 311.725 131.831 311.725Z" fill="black"/>
<path d="M91.3494 338.545H92.4943V344.805C92.4943 345.452 92.342 346.029 92.0373 346.537C91.7357 347.041 91.3094 347.44 90.7585 347.732C90.2076 348.022 89.5613 348.166 88.8196 348.166C88.0779 348.166 87.4316 348.022 86.8807 347.732C86.3298 347.44 85.902 347.041 85.5973 346.537C85.2957 346.029 85.1449 345.452 85.1449 344.805V338.545H86.2898V344.713C86.2898 345.175 86.3913 345.586 86.5945 345.946C86.7976 346.303 87.0869 346.584 87.4624 346.79C87.8409 346.994 88.2933 347.095 88.8196 347.095C89.3459 347.095 89.7983 346.994 90.1768 346.79C90.5554 346.584 90.8447 346.303 91.0447 345.946C91.2479 345.586 91.3494 345.175 91.3494 344.713V338.545ZM94.6329 350.659V340.909H95.6855V342.036H95.8147C95.8947 341.912 96.0055 341.755 96.1471 341.565C96.2918 341.371 96.498 341.198 96.7657 341.048C97.0365 340.894 97.4028 340.817 97.8644 340.817C98.4615 340.817 98.9878 340.966 99.4433 341.265C99.8988 341.563 100.254 341.986 100.51 342.534C100.765 343.082 100.893 343.728 100.893 344.473C100.893 345.224 100.765 345.875 100.51 346.426C100.254 346.974 99.9003 347.398 99.4479 347.7C98.9955 347.998 98.4738 348.148 97.8829 348.148C97.4274 348.148 97.0627 348.072 96.7888 347.922C96.5149 347.768 96.3041 347.594 96.1563 347.4C96.0086 347.203 95.8947 347.04 95.8147 346.911H95.7224V350.659H94.6329ZM95.7039 344.455C95.7039 344.99 95.7824 345.462 95.9394 345.872C96.0963 346.278 96.3256 346.597 96.6272 346.827C96.9288 347.055 97.2981 347.169 97.7352 347.169C98.1907 347.169 98.5708 347.049 98.8754 346.809C99.1832 346.566 99.414 346.24 99.5679 345.83C99.7249 345.418 99.8034 344.959 99.8034 344.455C99.8034 343.956 99.7264 343.507 99.5725 343.107C99.4217 342.703 99.1924 342.385 98.8847 342.151C98.58 341.914 98.1968 341.795 97.7352 341.795C97.292 341.795 96.9196 341.908 96.618 342.132C96.3164 342.354 96.0886 342.665 95.9347 343.065C95.7809 343.462 95.7039 343.925 95.7039 344.455ZM109.295 340.909V341.832H105.62V340.909H109.295ZM106.691 339.21H107.781V345.969C107.781 346.277 107.825 346.507 107.915 346.661C108.007 346.812 108.124 346.914 108.265 346.966C108.41 347.015 108.562 347.04 108.722 347.04C108.842 347.04 108.941 347.034 109.018 347.021C109.095 347.006 109.156 346.994 109.203 346.984L109.424 347.963C109.35 347.991 109.247 348.018 109.115 348.046C108.982 348.077 108.815 348.092 108.612 348.092C108.304 348.092 108.002 348.026 107.707 347.894C107.414 347.761 107.171 347.56 106.977 347.289C106.787 347.018 106.691 346.677 106.691 346.264V339.21ZM113.738 348.148C113.098 348.148 112.536 347.995 112.053 347.691C111.573 347.386 111.198 346.96 110.927 346.412C110.659 345.864 110.525 345.224 110.525 344.491C110.525 343.753 110.659 343.108 110.927 342.557C111.198 342.006 111.573 341.578 112.053 341.274C112.536 340.969 113.098 340.817 113.738 340.817C114.378 340.817 114.938 340.969 115.419 341.274C115.902 341.578 116.277 342.006 116.545 342.557C116.816 343.108 116.951 343.753 116.951 344.491C116.951 345.224 116.816 345.864 116.545 346.412C116.277 346.96 115.902 347.386 115.419 347.691C114.938 347.995 114.378 348.148 113.738 348.148ZM113.738 347.169C114.224 347.169 114.625 347.044 114.938 346.795C115.252 346.546 115.485 346.218 115.636 345.812C115.786 345.406 115.862 344.965 115.862 344.491C115.862 344.018 115.786 343.576 115.636 343.167C115.485 342.757 115.252 342.426 114.938 342.174C114.625 341.922 114.224 341.795 113.738 341.795C113.252 341.795 112.852 341.922 112.538 342.174C112.224 342.426 111.992 342.757 111.841 343.167C111.69 343.576 111.615 344.018 111.615 344.491C111.615 344.965 111.69 345.406 111.841 345.812C111.992 346.218 112.224 346.546 112.538 346.795C112.852 347.044 113.252 347.169 113.738 347.169ZM122.031 346.061V345.119L126.185 338.545H126.869V340.004H126.407L123.268 344.972V345.045H128.863V346.061H122.031ZM126.481 348V345.775V345.336V338.545H127.57V348H126.481ZM134.268 350.659V340.909H135.32V342.036H135.449C135.53 341.912 135.64 341.755 135.782 341.565C135.927 341.371 136.133 341.198 136.4 341.048C136.671 340.894 137.038 340.817 137.499 340.817C138.096 340.817 138.623 340.966 139.078 341.265C139.534 341.563 139.889 341.986 140.144 342.534C140.4 343.082 140.528 343.728 140.528 344.473C140.528 345.224 140.4 345.875 140.144 346.426C139.889 346.974 139.535 347.398 139.083 347.7C138.63 347.998 138.109 348.148 137.518 348.148C137.062 348.148 136.697 348.072 136.424 347.922C136.15 347.768 135.939 347.594 135.791 347.4C135.643 347.203 135.53 347.04 135.449 346.911H135.357V350.659H134.268ZM135.339 344.455C135.339 344.99 135.417 345.462 135.574 345.872C135.731 346.278 135.96 346.597 136.262 346.827C136.564 347.055 136.933 347.169 137.37 347.169C137.825 347.169 138.206 347.049 138.51 346.809C138.818 346.566 139.049 346.24 139.203 345.83C139.36 345.418 139.438 344.959 139.438 344.455C139.438 343.956 139.361 343.507 139.207 343.107C139.056 342.703 138.827 342.385 138.519 342.151C138.215 341.914 137.832 341.795 137.37 341.795C136.927 341.795 136.554 341.908 136.253 342.132C135.951 342.354 135.723 342.665 135.57 343.065C135.416 343.462 135.339 343.925 135.339 344.455ZM145.163 348.148C144.479 348.148 143.89 347.997 143.394 347.695C142.902 347.391 142.522 346.966 142.254 346.421C141.989 345.873 141.857 345.236 141.857 344.51C141.857 343.784 141.989 343.143 142.254 342.589C142.522 342.032 142.894 341.598 143.371 341.288C143.851 340.974 144.412 340.817 145.052 340.817C145.421 340.817 145.786 340.878 146.146 341.001C146.506 341.125 146.834 341.325 147.129 341.602C147.425 341.875 147.66 342.239 147.835 342.691C148.011 343.143 148.099 343.701 148.099 344.362V344.824H142.633V343.882H146.991C146.991 343.482 146.911 343.125 146.751 342.811C146.594 342.497 146.369 342.249 146.077 342.068C145.787 341.886 145.446 341.795 145.052 341.795C144.618 341.795 144.242 341.903 143.925 342.119C143.611 342.331 143.37 342.608 143.201 342.95C143.031 343.291 142.947 343.657 142.947 344.048V344.676C142.947 345.212 143.039 345.666 143.224 346.038C143.411 346.407 143.671 346.689 144.004 346.883C144.336 347.074 144.722 347.169 145.163 347.169C145.449 347.169 145.707 347.129 145.938 347.049C146.172 346.966 146.374 346.843 146.543 346.68C146.712 346.513 146.843 346.307 146.935 346.061L147.988 346.357C147.877 346.714 147.691 347.027 147.429 347.298C147.168 347.566 146.844 347.775 146.46 347.926C146.075 348.074 145.643 348.148 145.163 348.148ZM152.637 348.148C151.996 348.148 151.435 347.995 150.952 347.691C150.472 347.386 150.096 346.96 149.825 346.412C149.557 345.864 149.424 345.224 149.424 344.491C149.424 343.753 149.557 343.108 149.825 342.557C150.096 342.006 150.472 341.578 150.952 341.274C151.435 340.969 151.996 340.817 152.637 340.817C153.277 340.817 153.837 340.969 154.317 341.274C154.8 341.578 155.176 342.006 155.443 342.557C155.714 343.108 155.85 343.753 155.85 344.491C155.85 345.224 155.714 345.864 155.443 346.412C155.176 346.96 154.8 347.386 154.317 347.691C153.837 347.995 153.277 348.148 152.637 348.148ZM152.637 347.169C153.123 347.169 153.523 347.044 153.837 346.795C154.151 346.546 154.383 346.218 154.534 345.812C154.685 345.406 154.76 344.965 154.76 344.491C154.76 344.018 154.685 343.576 154.534 343.167C154.383 342.757 154.151 342.426 153.837 342.174C153.523 341.922 153.123 341.795 152.637 341.795C152.15 341.795 151.75 341.922 151.436 342.174C151.122 342.426 150.89 342.757 150.739 343.167C150.588 343.576 150.513 344.018 150.513 344.491C150.513 344.965 150.588 345.406 150.739 345.812C150.89 346.218 151.122 346.546 151.436 346.795C151.75 347.044 152.15 347.169 152.637 347.169ZM157.513 350.659V340.909H158.565V342.036H158.695C158.775 341.912 158.885 341.755 159.027 341.565C159.172 341.371 159.378 341.198 159.646 341.048C159.916 340.894 160.283 340.817 160.744 340.817C161.341 340.817 161.868 340.966 162.323 341.265C162.779 341.563 163.134 341.986 163.39 342.534C163.645 343.082 163.773 343.728 163.773 344.473C163.773 345.224 163.645 345.875 163.39 346.426C163.134 346.974 162.78 347.398 162.328 347.7C161.875 347.998 161.354 348.148 160.763 348.148C160.307 348.148 159.943 348.072 159.669 347.922C159.395 347.768 159.184 347.594 159.036 347.4C158.888 347.203 158.775 347.04 158.695 346.911H158.602V350.659H157.513ZM158.584 344.455C158.584 344.99 158.662 345.462 158.819 345.872C158.976 346.278 159.205 346.597 159.507 346.827C159.809 347.055 160.178 347.169 160.615 347.169C161.071 347.169 161.451 347.049 161.755 346.809C162.063 346.566 162.294 346.24 162.448 345.83C162.605 345.418 162.683 344.959 162.683 344.455C162.683 343.956 162.606 343.507 162.452 343.107C162.302 342.703 162.072 342.385 161.765 342.151C161.46 341.914 161.077 341.795 160.615 341.795C160.172 341.795 159.799 341.908 159.498 342.132C159.196 342.354 158.969 342.665 158.815 343.065C158.661 343.462 158.584 343.925 158.584 344.455ZM166.524 338.545V348H165.435V338.545H166.524ZM171.493 348.148C170.809 348.148 170.22 347.997 169.725 347.695C169.232 347.391 168.852 346.966 168.584 346.421C168.32 345.873 168.187 345.236 168.187 344.51C168.187 343.784 168.32 343.143 168.584 342.589C168.852 342.032 169.224 341.598 169.701 341.288C170.182 340.974 170.742 340.817 171.382 340.817C171.751 340.817 172.116 340.878 172.476 341.001C172.836 341.125 173.164 341.325 173.459 341.602C173.755 341.875 173.99 342.239 174.166 342.691C174.341 343.143 174.429 343.701 174.429 344.362V344.824H168.963V343.882H173.321C173.321 343.482 173.241 343.125 173.081 342.811C172.924 342.497 172.699 342.249 172.407 342.068C172.117 341.886 171.776 341.795 171.382 341.795C170.948 341.795 170.572 341.903 170.255 342.119C169.941 342.331 169.7 342.608 169.531 342.95C169.361 343.291 169.277 343.657 169.277 344.048V344.676C169.277 345.212 169.369 345.666 169.554 346.038C169.741 346.407 170.002 346.689 170.334 346.883C170.666 347.074 171.053 347.169 171.493 347.169C171.779 347.169 172.037 347.129 172.268 347.049C172.502 346.966 172.704 346.843 172.873 346.68C173.042 346.513 173.173 346.307 173.265 346.061L174.318 346.357C174.207 346.714 174.021 347.027 173.759 347.298C173.498 347.566 173.175 347.775 172.79 347.926C172.405 348.074 171.973 348.148 171.493 348.148Z" fill="#4A5565"/>
</g>
</g>
</g>
<defs>
<filter id="filter0_i_63_193" x="0" y="0" width="372" height="372" filterUnits="userSpaceOnUse" color-interpolation-filters="sRGB">
<feFlood flood-opacity="0" result="BackgroundImageFix"/>
<feBlend mode="normal" in="SourceGraphic" in2="BackgroundImageFix" result="shape"/>
<feColorMatrix in="SourceAlpha" type="matrix" values="0 0 0 0 0 0 0 0 0 0 0 0 0 0 0 0 0 0 127 0" result="hardAlpha"/>
<feOffset dx="4" dy="4"/>
<feGaussianBlur stdDeviation="10.3"/>
<feComposite in2="hardAlpha" operator="arithmetic" k2="-1" k3="1"/>
<feColorMatrix type="matrix" values="0 0 0 0 0 0 0 0 0 0 0 0 0 0 0 0 0 0 0.02 0"/>
<feBlend mode="normal" in2="shape" result="effect1_innerShadow_63_193"/>
</filter>
<linearGradient id="paint0_linear_63_193" x1="184" y1="0" x2="184" y2="368" gradientUnits="userSpaceOnUse">
<stop stop-color="#E5E7EB"/>
<stop offset="1" stop-color="#EFEFEF"/>
</linearGradient>
<clipPath id="clip0_63_193">
<rect width="368" height="368" rx="35" fill="white"/>
</clipPath>
<clipPath id="clip1_63_193">
<rect x="29" y="-136" width="357" height="478" rx="47" fill="white"/>
</clipPath>
</defs>
</svg>
